<svg width="19" height="20" viewBox="0 0 19 20" fill="none" xmlns="http://www.w3.org/2000/svg">
<g clip-path="url(#clip0_1310_4267)">
<path d="M9.4646 20C9.19957 19.8941 8.90803 19.8262 8.67383 19.6754C8.13024 19.3263 7.87441 18.8091 7.89225 18.1776C7.8955 18.0623 7.86575 18.0059 7.75866 17.9548C6.44323 17.3244 5.12942 16.6919 3.81886 16.0521C3.69121 15.99 3.62685 16.0422 3.5376 16.1064C2.92316 16.5468 2.25895 16.6199 1.58123 16.2791C0.920268 15.9461 0.582216 15.3914 0.604933 14.6712C0.62711 13.9578 1.00843 13.4474 1.67101 13.1359C1.76513 13.0915 1.81651 13.0555 1.81597 12.9412C1.81164 10.9623 1.81273 8.98393 1.81219 7.00501C1.81219 6.97944 1.80678 6.95387 1.80353 6.9236C1.25453 6.70859 0.864016 6.34276 0.68228 5.79324C0.443209 5.07045 0.722846 4.28348 1.36758 3.84041C2.01123 3.39839 2.86907 3.40205 3.49866 3.86964C3.64416 3.97766 3.74314 3.98549 3.9054 3.90669C5.17269 3.28619 6.44485 2.67404 7.71917 2.06659C7.85331 2.00292 7.89712 1.9356 7.89225 1.78791C7.85872 0.815677 8.69384 0 9.70746 0C10.7222 0 11.5562 0.814111 11.5232 1.78739C11.5183 1.93612 11.5643 2.00136 11.6968 2.06502C12.9885 2.68187 14.2774 3.30498 15.5647 3.9307C15.681 3.98706 15.7562 3.98654 15.867 3.90512C16.4663 3.46258 17.1241 3.37908 17.8023 3.70473C18.4709 4.0262 18.8192 4.57416 18.8111 5.29381C18.803 6.01555 18.4254 6.53481 17.7607 6.85993C17.7125 6.88341 17.6633 6.90377 17.6027 6.9309C17.6027 6.99301 17.6027 7.05772 17.6027 7.12191C17.6027 9.04185 17.6049 10.9623 17.5984 12.8823C17.5979 13.0294 17.6487 13.0915 17.7801 13.1552C18.4411 13.4735 18.8051 13.9975 18.8105 14.7104C18.8165 15.4295 18.4671 15.9759 17.7975 16.2968C17.1343 16.6147 16.4853 16.5421 15.8962 16.1137C15.7545 16.0103 15.6626 16.0218 15.5241 16.0891C14.2487 16.7091 12.9717 17.3249 11.693 17.9381C11.5735 17.9955 11.5156 18.0493 11.5221 18.198C11.5584 19.0309 10.9466 19.7793 10.1039 19.9588C10.052 19.9697 10.0017 19.9864 9.95086 20.0005C9.78859 20 9.62633 20 9.4646 20ZM16.3879 6.93612C16.3609 6.91995 16.3446 6.90794 16.3268 6.90012C15.5528 6.5609 15.1612 5.98894 15.1731 5.16126C15.1742 5.10281 15.0979 5.01774 15.0357 4.98748C13.7311 4.35184 12.4222 3.72299 11.1165 3.08893C11.0121 3.0383 10.9455 3.04457 10.8493 3.11711C10.1407 3.65359 9.27259 3.65098 8.55862 3.11189C8.46938 3.04457 8.40772 3.03831 8.30928 3.08579C6.99168 3.72508 5.67085 4.35967 4.35488 5.00209C4.29754 5.02975 4.24237 5.12525 4.24237 5.18892C4.24508 5.95449 3.89459 6.51132 3.18873 6.8521C3.0573 6.91525 3.02376 6.98361 3.02376 7.1146C3.02755 9.03455 3.02647 10.955 3.02647 12.875C3.02647 12.9397 3.02647 13.0044 3.02647 13.0644C3.05459 13.0795 3.07136 13.09 3.08975 13.0978C3.86105 13.4396 4.25427 14.0116 4.24075 14.8393C4.23967 14.8941 4.3062 14.9744 4.36299 15.0021C5.68004 15.6435 6.99872 16.2801 8.32118 16.9111C8.37959 16.9387 8.49209 16.9262 8.5451 16.8881C9.28665 16.3506 10.1348 16.3438 10.8568 16.8871C10.945 16.9533 11.0067 16.9633 11.1062 16.9152C12.4178 16.2781 13.7311 15.644 15.0465 15.0141C15.1536 14.9624 15.1817 14.9055 15.1801 14.7907C15.1693 14.033 15.5279 13.4829 16.2262 13.1479C16.3598 13.0837 16.3912 13.0164 16.3906 12.8854C16.3868 10.9655 16.3879 9.04498 16.3879 7.12504C16.3879 7.06033 16.3879 6.99562 16.3879 6.93612Z" fill="#CC092F"/>
<path d="M5.46582 13.5415C5.46582 11.9545 5.46582 10.3821 5.46582 8.79513C5.86337 8.79513 6.25226 8.79513 6.67145 8.79513C6.67145 8.58325 6.66983 8.38442 6.67145 8.18559C6.68227 6.91328 7.53524 5.79753 8.79279 5.40978C10.7146 4.81746 12.7131 6.20198 12.7429 8.14749C12.7461 8.35415 12.7434 8.56133 12.7434 8.78208C13.1496 8.78208 13.5385 8.78208 13.9431 8.78208C13.9431 10.3738 13.9431 11.9509 13.9431 13.5415C11.1256 13.5415 8.30384 13.5415 5.46582 13.5415ZM11.528 8.78626C11.528 8.54985 11.5345 8.34163 11.527 8.13392C11.4826 6.88875 10.1077 6.07203 8.94424 6.61268C8.04259 7.03174 7.78296 7.80776 7.91278 8.79565C8.30329 8.79565 8.69706 8.79565 9.11192 8.79565C9.11192 9.5868 9.11192 10.3571 9.11192 11.1221C9.52245 11.1221 9.91134 11.1221 10.3213 11.1221C10.3213 10.3409 10.3213 9.57062 10.3213 8.78626C10.7319 8.78626 11.1202 8.78626 11.528 8.78626Z" fill="#CC092F"/>
</g>
<defs>
<clipPath id="clip0_1310_4267">
<rect width="18.2137" height="20" fill="white" transform="translate(0.597656)"/>
</clipPath>
</defs>
</svg>
