<svg width="36" height="30" viewBox="0 0 36 30" fill="none" xmlns="http://www.w3.org/2000/svg">
<g clip-path="url(#clip0_1383_7399)">
<path d="M35.3789 27.2974C35.2318 27.8894 35.0475 28.4605 34.6261 28.9321C34.1397 29.4765 33.5513 29.9048 32.8321 29.9291C31.1689 29.9844 29.5013 29.9464 27.9151 29.9464C27.9341 28.9261 27.967 27.8842 27.9704 26.8423C27.9782 24.2877 27.9704 21.7322 27.9748 19.1776C27.9765 18.2292 27.9081 17.2928 27.5957 16.3885C27.5784 16.3375 27.5836 16.2795 27.5732 16.1782C29.0452 16.2656 30.5242 15.9671 31.9356 16.4872C33.842 17.1898 34.9748 18.5649 35.3184 20.5769C35.3279 20.6314 35.3573 20.6816 35.3781 20.7344C35.3789 22.9212 35.3789 25.1089 35.3789 27.2974Z" fill="white"/>
<path d="M17.6544 29.9983C15.3291 29.9983 13.0038 29.9992 10.6786 29.9983C9.83137 29.9983 9.46185 29.628 9.46185 28.779C9.46099 25.4291 9.45493 22.0793 9.46358 18.7303C9.4705 16.2189 11.0446 14.2303 13.4729 13.6635C13.8389 13.5778 14.224 13.5475 14.6013 13.5458C16.6618 13.5345 18.7222 13.5285 20.7827 13.5441C23.2534 13.5622 25.2342 15.1424 25.7898 17.5378C25.8824 17.9367 25.9127 18.3573 25.9144 18.7683C25.9239 22.1182 25.9204 25.4681 25.9196 28.8171C25.9196 29.6176 25.5379 29.9983 24.7349 29.9992C22.3741 29.9992 20.0142 29.9983 17.6544 29.9983Z" fill="white"/>
<path d="M17.6912 12.278C14.3197 12.2789 11.5513 9.49927 11.5479 6.10872C11.5444 2.75539 14.3335 -0.0112157 17.7076 3.41884e-05C21.0722 0.0112841 23.8362 2.76751 23.8336 6.10786C23.831 9.49754 21.0644 12.2771 17.6912 12.278Z" fill="white"/>
<path d="M7.53335 29.9984C6.85057 29.9984 6.16173 29.9984 5.47202 29.9984C4.71222 29.9984 3.95242 30.0027 3.19262 29.9975C1.31389 29.9837 0.0106323 28.6752 0.00370929 26.7913C-0.00234834 25.0181 0.000247788 23.245 0.00284392 21.4718C0.0071708 18.4871 2.11436 16.2977 5.10251 16.1948C5.99644 16.1636 6.8921 16.1904 7.82152 16.1904C7.79123 16.3159 7.76354 16.4007 7.75142 16.4881C7.63546 17.2704 7.4321 18.0518 7.42345 18.835C7.38623 22.139 7.40354 25.4439 7.41306 28.7479C7.41393 29.1555 7.48921 29.5631 7.53335 29.9984Z" fill="white"/>
<path d="M2.31447 10.3134C2.30755 7.79087 4.36974 5.72954 6.9027 5.72608C9.42613 5.72262 11.4719 7.74846 11.4918 10.271C11.5126 12.8031 9.43565 14.9034 6.90789 14.9043C4.38532 14.906 2.32139 12.8429 2.31447 10.3134Z" fill="white"/>
<path d="M33.0669 10.3437C33.0184 12.8991 30.9415 14.9475 28.4431 14.9051C25.8877 14.8609 23.8445 12.7685 23.8904 10.2416C23.9363 7.69476 26.0097 5.68363 28.5435 5.72776C31.0678 5.77103 33.1136 7.85918 33.0669 10.3437Z" fill="white"/>
</g>
<defs>
<clipPath id="clip0_1383_7399">
<rect width="35.3792" height="30" fill="white"/>
</clipPath>
</defs>
</svg>
