<svg width="22" height="20" viewBox="0 0 22 20" fill="none" xmlns="http://www.w3.org/2000/svg">
<g clip-path="url(#clip0_1310_4297)">
<path d="M0.839741 4.33275C0.839741 3.64553 0.837434 2.95831 0.840317 2.2711C0.84493 0.951748 1.82922 0.00410959 3.19926 0.00188379C4.62408 -0.000342021 6.04833 -0.000898474 7.47315 0.00188379C8.82993 0.0052225 9.81537 0.953973 9.8194 2.26219C9.82344 3.64386 9.82344 5.02498 9.8194 6.40665C9.81537 7.71208 8.82647 8.6625 7.47142 8.66584C6.0466 8.66918 4.62235 8.66862 3.19753 8.66584C1.82922 8.66362 0.84493 7.71375 0.840317 6.3944C0.837434 5.70719 0.839741 5.01997 0.839741 4.33275Z" fill="#CC092F"/>
<path d="M17.0722 0.00157753C17.7843 0.00157753 18.497 -9.18255e-05 19.2091 0.00213398C20.5786 0.00602915 21.5612 0.953111 21.5646 2.27468C21.5681 3.64912 21.5681 5.02411 21.5646 6.39855C21.5612 7.71623 20.5734 8.66442 19.204 8.66665C17.7866 8.66888 16.3693 8.66888 14.9514 8.66665C13.571 8.66442 12.5873 7.71567 12.585 6.38297C12.5827 5.01521 12.5821 3.64745 12.585 2.28025C12.5878 0.949215 13.5721 0.00491624 14.9566 0.00213398C15.6618 0.000464627 16.367 0.00157753 17.0722 0.00157753Z" fill="#CC092F"/>
<path d="M5.35141 11.3331C6.05661 11.3331 6.76181 11.3314 7.46701 11.3337C8.83533 11.3381 9.81788 12.2852 9.82077 13.6079C9.82365 14.9823 9.82423 16.3573 9.82077 17.7318C9.81731 19.0394 8.83129 19.9943 7.4797 19.9976C6.04796 20.0015 4.61622 20.001 3.18448 19.9976C1.83173 19.9943 0.845142 19.0405 0.841682 17.7334C0.838223 16.3518 0.837646 14.9706 0.841682 13.589C0.845719 12.2936 1.83231 11.3404 3.17179 11.3337C3.89775 11.3303 4.62429 11.3331 5.35141 11.3331Z" fill="#CC092F"/>
<path d="M17.0637 19.9976C14.59 19.9931 12.5817 18.0489 12.584 15.66C12.5863 13.2639 14.6091 11.3241 17.0954 11.333C19.5691 11.3419 21.5717 13.2901 21.5642 15.6806C21.5573 18.0678 19.5403 20.002 17.0637 19.9976Z" fill="#CC092F"/>
</g>
<defs>
<clipPath id="clip0_1310_4297">
<rect width="20.7288" height="20" fill="white" transform="translate(0.837891)"/>
</clipPath>
</defs>
</svg>
