<svg width="20" height="12" viewBox="0 0 22 12" fill="none" xmlns="http://www.w3.org/2000/svg">
<path d="M16.8057 1.81022C17.7806 1.97024 18.6714 2.46021 19.33 3.19824C19.9886 3.93632 20.3753 4.87826 20.4258 5.86724L21.2234 6.40007L22 5.88143C21.9508 4.48546 21.41 3.15187 20.4736 2.11737C19.5372 1.08286 18.2656 0.414086 16.8842 0.229492L17.2256 0.741887V0.742052C17.3138 0.874355 17.3138 1.04708 17.2256 1.17953L16.8057 1.81022Z" fill="#CC092F"/>
<path d="M6.65807 11.9424C8.27116 11.727 9.72513 10.8568 10.6798 9.53574C11.3595 8.58752 11.7416 7.45765 11.7773 6.2905L10.9987 5.76953L10.2012 6.30237C10.1507 7.29118 9.7638 8.23298 9.1052 8.97089C8.44659 9.70881 7.5558 10.1986 6.58105 10.3588L7.00054 10.9894V10.9893C7.08875 11.1217 7.08875 11.2945 7.00054 11.4269L6.65807 11.9424Z" fill="#CC092F"/>
<path d="M1.62361 6.78079L0.994449 7.20129C0.862467 7.28972 0.690161 7.28972 0.558031 7.20129L0.046875 6.85915C0.231027 8.24371 0.898015 9.51809 1.92985 10.4568C2.96185 11.3953 4.29188 11.9374 5.6843 11.9868L6.20253 11.2087L5.67098 10.4092V10.4094C4.6844 10.3587 3.74487 9.97106 3.00845 9.31102C2.27215 8.65082 1.78341 7.75787 1.62361 6.78076V6.78079Z" fill="#CC092F"/>
<path d="M15.4164 10.3596C14.0668 10.1381 12.9006 9.29064 12.2708 8.07349C12.0872 8.66359 11.8225 9.22514 11.4844 9.74197C12.4366 10.9474 13.8178 11.7358 15.3379 11.9418L14.9958 11.4294C14.9076 11.2969 14.9076 11.1244 14.9958 10.9919L15.4164 10.3596Z" fill="#CC092F"/>
<path d="M21.0044 7.20166L20.3753 6.78149C20.2155 7.75861 19.7267 8.65138 18.9905 9.31159C18.254 9.97162 17.3145 10.3591 16.3281 10.4098L15.7969 11.209L16.3143 11.9872C17.707 11.938 19.0374 11.396 20.0694 10.4575C21.1016 9.51877 21.7689 8.24427 21.9529 6.85954L21.4417 7.20168C21.3096 7.2901 21.1374 7.2901 21.0053 7.20168L21.0044 7.20166Z" fill="#CC092F"/>
<path d="M9.72691 4.09576C9.9104 3.50583 10.1752 2.94445 10.5134 2.42778C9.4376 1.06763 7.82169 0.247918 6.09148 0.18457L5.57324 0.960744L6.10479 1.76019L6.10495 1.76002C7.6407 1.83789 9.0198 2.72721 9.72711 4.09581L9.72691 4.09576Z" fill="#CC092F"/>
<path d="M1.57355 5.86738C1.62407 4.8784 2.01081 3.9366 2.66959 3.19856C3.3282 2.46048 4.21898 1.97072 5.19373 1.8107L4.77425 1.18002C4.68604 1.04755 4.68604 0.874827 4.77425 0.742541L5.11556 0.230145V0.22998C3.73435 0.414579 2.46272 1.08318 1.52635 2.11769C0.589938 3.15219 0.0492071 4.48561 0 5.88158L0.776108 6.40056L1.57355 5.86738Z" fill="#CC092F"/>
<path d="M10.782 4.96872C10.9141 4.88047 11.0863 4.88047 11.2184 4.96872L11.8476 5.38922V5.38939C12.0072 4.41228 12.4958 3.51933 13.2321 2.85913C13.9682 2.19892 14.9076 1.81111 15.8941 1.76026L16.4265 0.960988L15.9103 0.184814C14.0852 0.248821 12.3916 1.15251 11.3199 2.63458C10.7506 3.42592 10.3876 4.34728 10.2637 5.31481L10.782 4.96872Z" fill="#CC092F"/>
</svg>
