<svg width="30" height="29" viewBox="0 0 30 29" fill="none" xmlns="http://www.w3.org/2000/svg">
<g clip-path="url(#clip0_1310_4284)">
<path d="M24.3297 6.31617C24.6224 6.75774 24.9576 7.17894 25.201 7.64449C26.6129 10.345 25.864 13.6626 23.4337 15.5687C20.7754 17.653 16.9289 17.4707 14.4535 15.1421C12.6182 13.4156 9.96042 13.1532 7.82969 14.4879C5.30225 16.0714 4.72455 19.5324 6.60817 21.8058C8.43458 24.0096 11.6588 24.3924 13.9616 22.6673C14.6495 22.1519 15.1757 21.5041 15.5377 20.6789C15.4378 20.7291 15.3782 20.7576 15.3196 20.7879C14.9314 20.9924 14.5032 20.9051 14.2922 20.5784C14.0643 20.2246 14.1675 19.7966 14.5525 19.5591C14.9417 19.3184 15.3388 19.0899 15.7332 18.856C15.9231 18.7434 16.1107 18.6257 16.3048 18.5208C16.6504 18.3339 17.0246 18.381 17.2651 18.6764C17.7139 19.2279 18.1518 19.7889 18.5734 20.3603C18.8177 20.692 18.7113 21.1204 18.3661 21.3512C18.0562 21.5588 17.6163 21.4891 17.3641 21.1905C17.2764 21.0869 17.1953 20.9788 17.1048 20.8643C16.9022 21.2525 16.7315 21.6317 16.5163 21.985C14.4273 25.4085 9.66548 26.2306 6.4825 23.7214C3.66153 21.4982 3.18418 17.5639 5.39416 14.7485C7.66932 11.8502 12.0485 11.3548 14.9736 13.6658C15.465 14.054 15.9198 14.4965 16.4511 14.8245C18.5021 16.0913 21.2771 15.7402 22.953 14.04C24.6814 12.2855 24.9121 9.62702 23.504 7.67842C21.7639 5.26926 18.3694 4.75938 15.9616 6.55414C15.3252 7.02874 14.8305 7.62458 14.4774 8.32539C14.4521 8.37516 14.4338 8.42809 14.4151 8.48057C14.4109 8.49369 14.4198 8.51133 14.417 8.49686C14.6069 8.4403 14.7977 8.34665 14.9933 8.33353C15.3088 8.31227 15.547 8.46971 15.6797 8.75248C15.8031 9.01534 15.7459 9.31846 15.5353 9.52793C15.4781 9.58494 15.4139 9.63787 15.3445 9.6795C14.7911 10.0125 14.2374 10.3459 13.6789 10.6721C13.2555 10.9196 12.8616 10.8409 12.5699 10.4626C12.1798 9.95774 11.7896 9.45283 11.3986 8.94792C11.1154 8.58237 11.1669 8.15166 11.5271 7.89197C11.8619 7.65037 12.3247 7.73678 12.5952 8.09013C12.6628 8.1788 12.734 8.26476 12.8283 8.38194C12.9155 8.18559 12.9863 8.02045 13.0618 7.85713C14.8334 4.02328 19.9768 2.82571 23.3732 5.45566C23.4299 5.49954 23.4956 5.53302 23.5575 5.57103C23.8149 5.81941 24.0723 6.06779 24.3297 6.31617Z" fill="#CC092F"/>
<path d="M8.25696 19.5205C8.22226 19.2255 8.08393 19.1201 7.78242 19.1278C7.37119 19.1382 7.06921 18.8034 7.07343 18.4157C7.07765 18.0261 7.39932 17.7122 7.82369 17.7099C8.0211 17.7085 8.15474 17.6936 8.22789 17.4728C8.29166 17.2801 8.14536 17.2321 8.06424 17.1403C7.81197 16.8562 7.77305 16.5028 7.97468 16.2151C8.1613 15.9481 8.53737 15.8378 8.85576 15.9631C8.93829 15.9957 9.0166 16.0459 9.086 16.1002C9.21964 16.2047 9.30404 16.3558 9.54366 16.2522C9.77155 16.1535 9.69277 15.9979 9.70355 15.8563C9.74669 15.2944 10.36 14.9813 10.8496 15.2799C11.1033 15.4351 11.2055 15.6731 11.1895 15.9554C11.1811 16.1074 11.2177 16.1897 11.3804 16.2599C11.5548 16.335 11.6313 16.2657 11.7353 16.1662C12.0748 15.8405 12.5344 15.8251 12.8378 16.1223C13.1416 16.42 13.1177 16.853 12.7796 17.1873C12.728 17.238 12.675 17.2882 12.6389 17.3231C12.6732 17.6176 12.8115 17.723 13.113 17.7144C13.5228 17.7036 13.8248 18.0393 13.822 18.4274C13.8192 18.8156 13.4966 19.1224 13.0717 19.1368C12.9133 19.1423 12.767 19.107 12.6826 19.325C12.6038 19.5295 12.7308 19.5979 12.8293 19.7046C13.0938 19.9933 13.1233 20.3602 12.9053 20.6475C12.7074 20.9081 12.3276 21.0094 12.0162 20.8692C11.907 20.8199 11.7963 20.7475 11.7213 20.6579C11.5975 20.5104 11.4817 20.5552 11.3307 20.6041C11.1727 20.6552 11.1867 20.7565 11.1919 20.8665C11.2036 21.1112 11.1347 21.3243 10.9396 21.4899C10.7056 21.6885 10.4383 21.7329 10.1551 21.6161C9.84986 21.4899 9.71293 21.2501 9.70309 20.9339C9.69887 20.8104 9.75748 20.6733 9.5596 20.6009C9.39079 20.5394 9.28951 20.5394 9.1568 20.6737C8.82763 21.0076 8.36012 21.0171 8.05721 20.7194C7.75382 20.4222 7.77774 19.9883 8.11629 19.6544C8.16834 19.6051 8.22086 19.5553 8.25696 19.5205ZM9.78046 17.7755C9.41095 18.1302 9.4058 18.7061 9.7692 19.0649C10.1303 19.4214 10.7352 19.4277 11.1061 19.078C11.4873 18.7192 11.4925 18.1297 11.1173 17.7714C10.7483 17.419 10.1495 17.4203 9.78046 17.7755Z" fill="#CC092F"/>
<path d="M17.2429 11.8653C17.2049 11.578 17.0736 11.4649 16.7698 11.473C16.3576 11.4843 16.0566 11.1532 16.0575 10.7641C16.0594 10.3741 16.3792 10.0728 16.804 10.0483C16.9353 10.0411 17.0929 10.1198 17.173 9.91035C17.2373 9.74251 17.2223 9.64478 17.0905 9.51765C16.7543 9.19326 16.7421 8.76617 17.0375 8.473C17.3409 8.17214 17.7901 8.18119 18.139 8.51055C18.2586 8.6232 18.35 8.66166 18.523 8.59787C18.7101 8.52865 18.6876 8.41102 18.689 8.27755C18.6961 7.83282 19.007 7.51295 19.4313 7.5125C19.859 7.5116 20.1924 7.82603 20.1656 8.27439C20.1473 8.58068 20.3555 8.59244 20.5426 8.66257C21.1081 8.19747 21.4823 8.14137 21.8185 8.46667C22.1538 8.79105 22.0957 9.14938 21.6193 9.69319C21.6713 9.92709 21.7534 10.0796 22.0694 10.0615C22.4938 10.0384 22.808 10.375 22.8065 10.7718C22.8051 11.1604 22.4816 11.4717 22.0591 11.483C21.8861 11.488 21.7379 11.4635 21.6591 11.6925C21.5907 11.8924 21.7234 11.9499 21.8129 12.049C22.0755 12.3394 22.1083 12.7041 21.8917 12.9927C21.6952 13.2538 21.3173 13.3542 21.0031 13.2185C20.9145 13.18 20.8301 13.123 20.7588 13.0588C20.6369 12.9493 20.5478 12.8516 20.3382 12.9371C20.1211 13.0253 20.1835 13.1705 20.1759 13.3081C20.145 13.8845 19.5293 14.2134 19.0313 13.9111C18.7777 13.7569 18.674 13.5193 18.6904 13.2366C18.6993 13.0859 18.6665 13.0009 18.5005 12.9312C18.3275 12.8584 18.2506 12.9226 18.1456 13.023C17.8056 13.3492 17.3465 13.3651 17.0422 13.0687C16.7379 12.7724 16.7609 12.3367 17.099 12.0042C17.1515 11.9526 17.204 11.9028 17.2429 11.8653ZM18.7608 10.1248C18.3936 10.4809 18.3917 11.0582 18.7575 11.4138C19.1223 11.7685 19.7239 11.7707 20.0944 11.4187C20.4728 11.0591 20.4742 10.4659 20.0972 10.1121C19.7244 9.76241 19.1289 9.76784 18.7608 10.1248Z" fill="#CC092F"/>
</g>
<defs>
<clipPath id="clip0_1310_4284">
<rect width="24.9682" height="14.4652" fill="white" transform="matrix(0.719645 -0.694342 0.719645 0.694342 0.770508 18.2578)"/>
</clipPath>
</defs>
</svg>
