<svg width="17" height="15" viewBox="0 0 17 15" fill="none" xmlns="http://www.w3.org/2000/svg">
<path d="M0.801758 10.3574C0.831378 9.04169 1.25327 7.96734 2.13068 7.07809C2.73589 6.46494 3.36353 5.87185 3.99036 5.27875C4.37543 4.91395 4.9214 4.9101 5.27925 5.25022C5.6427 5.59574 5.6363 6.13176 5.24643 6.5143C4.65962 7.0912 4.0496 7.64727 3.4724 8.23265C1.81206 9.91475 2.65024 12.638 4.99426 13.1633C6.10062 13.4116 7.06769 13.1093 7.87785 12.3519C8.46545 11.8028 9.03705 11.2374 9.61665 10.6806C9.87283 10.4346 10.1826 10.3598 10.5253 10.4546C10.8735 10.551 11.0785 10.7894 11.1481 11.1279C11.2065 11.4118 11.1217 11.6694 10.9143 11.8706C10.2323 12.5332 9.57982 13.2304 8.84492 13.8335C7.40552 15.0158 5.73957 15.3097 3.97275 14.668C2.19712 14.0224 1.15961 12.7414 0.860198 10.9251C0.823373 10.7084 0.814567 10.4862 0.801758 10.3574Z" fill="#333840"/>
<path d="M11.6192 0C13.5288 0.10503 15.0869 0.994692 15.9091 2.84507C16.7281 4.68849 16.3901 6.41298 15.0022 7.91043C14.4181 8.54061 13.7733 9.11981 13.1493 9.71447C12.761 10.0844 12.2256 10.0929 11.8637 9.75154C11.5001 9.40942 11.5081 8.86265 11.8908 8.48732C12.5061 7.8834 13.1525 7.30728 13.739 6.67788C15.2899 5.01439 14.4541 2.38479 12.2073 1.83802C11.1573 1.58239 10.2025 1.81408 9.40669 2.52071C8.76109 3.09374 8.16502 3.71774 7.53459 4.30621C7.00564 4.7997 6.20103 4.59118 6.01725 3.92471C5.93016 3.60962 6.01885 3.32774 6.25057 3.10069C6.90257 2.46433 7.54578 1.81794 8.22494 1.21016C9.13343 0.397723 10.2345 0.027802 11.6192 0Z" fill="#333840"/>
<path d="M12.2023 5.0669C12.1388 5.17791 12.0581 5.43885 11.882 5.61033C10.136 7.31601 8.37805 9.00844 6.61576 10.6992C6.20181 11.096 5.61954 11.0952 5.23393 10.7265C4.84145 10.3513 4.85004 9.77968 5.27172 9.37128C7.01769 7.68134 8.76795 5.99471 10.5191 4.30809C10.8282 4.00986 11.1941 3.91874 11.6072 4.07613C11.9602 4.21116 12.1989 4.56158 12.2023 5.0669Z" fill="#333840"/>
</svg>
