<svg width="30" height="24" viewBox="0 0 30 24" fill="none" xmlns="http://www.w3.org/2000/svg">
<path d="M5.99954 16.6004V13.0004H9.59954V16.6004H5.99954ZM23.9995 3.08959C23.9967 2.37538 23.711 1.69139 23.2049 1.18738C22.6989 0.683365 22.0138 0.400385 21.2995 0.400391H3.16094C2.44485 0.400391 1.7581 0.684854 1.25175 1.1912C0.745401 1.69755 0.460938 2.38431 0.460938 3.10039V19.3004C0.460938 20.4939 0.935043 21.6385 1.77896 22.4824C2.62287 23.3263 3.76746 23.8004 4.96094 23.8004H25.0381C26.2316 23.8004 27.3762 23.3263 28.2201 22.4824C29.064 21.6385 29.5381 20.4939 29.5381 19.3004V8.50039C29.5381 7.78431 29.2537 7.09755 28.7473 6.5912C28.241 6.08485 27.5542 5.80039 26.8381 5.80039H25.7995V18.8144C25.7995 19.0531 25.7047 19.282 25.5359 19.4508C25.3671 19.6196 25.1382 19.7144 24.8995 19.7144C24.6608 19.7144 24.4319 19.6196 24.2631 19.4508C24.0944 19.282 23.9995 19.0531 23.9995 18.8144V3.09139V3.08959ZM4.19954 6.70039C4.19954 6.4617 4.29436 6.23278 4.46314 6.06399C4.63192 5.89521 4.86084 5.80039 5.09954 5.80039H19.4995C19.7382 5.80039 19.9671 5.89521 20.1359 6.06399C20.3047 6.23278 20.3995 6.4617 20.3995 6.70039C20.3995 6.93909 20.3047 7.168 20.1359 7.33679C19.9671 7.50557 19.7382 7.60039 19.4995 7.60039H5.09954C4.86084 7.60039 4.63192 7.50557 4.46314 7.33679C4.29436 7.168 4.19954 6.93909 4.19954 6.70039ZM14.0995 11.2004H19.4995C19.7382 11.2004 19.9671 11.2952 20.1359 11.464C20.3047 11.6328 20.3995 11.8617 20.3995 12.1004C20.3995 12.3391 20.3047 12.568 20.1359 12.7368C19.9671 12.9056 19.7382 13.0004 19.4995 13.0004H14.0995C13.8608 13.0004 13.6319 12.9056 13.4631 12.7368C13.2944 12.568 13.1995 12.3391 13.1995 12.1004C13.1995 11.8617 13.2944 11.6328 13.4631 11.464C13.6319 11.2952 13.8608 11.2004 14.0995 11.2004ZM13.1995 17.5004C13.1995 17.2617 13.2944 17.0328 13.4631 16.864C13.6319 16.6952 13.8608 16.6004 14.0995 16.6004H19.4995C19.7382 16.6004 19.9671 16.6952 20.1359 16.864C20.3047 17.0328 20.3995 17.2617 20.3995 17.5004C20.3995 17.7391 20.3047 17.968 20.1359 18.1368C19.9671 18.3056 19.7382 18.4004 19.4995 18.4004H14.0995C13.8608 18.4004 13.6319 18.3056 13.4631 18.1368C13.2944 17.968 13.1995 17.7391 13.1995 17.5004ZM5.09954 11.2004H10.4995C10.7382 11.2004 10.9672 11.2952 11.1359 11.464C11.3047 11.6328 11.3995 11.8617 11.3995 12.1004V17.5004C11.3995 17.7391 11.3047 17.968 11.1359 18.1368C10.9672 18.3056 10.7382 18.4004 10.4995 18.4004H5.09954C4.86084 18.4004 4.63192 18.3056 4.46314 18.1368C4.29436 17.968 4.19954 17.7391 4.19954 17.5004V12.1004C4.19954 11.8617 4.29436 11.6328 4.46314 11.464C4.63192 11.2952 4.86084 11.2004 5.09954 11.2004Z" fill="white"/>
</svg>
