<svg width="22" height="21" viewBox="0 0 22 21" fill="none" xmlns="http://www.w3.org/2000/svg">
<path d="M9.79241 20.0001C9.44203 19.8441 9.30631 19.5758 9.34632 19.2131C9.35335 19.1489 9.33983 19.0821 9.34903 19.0179C9.36849 18.8776 9.29658 18.816 9.18249 18.7294C8.86725 18.4893 8.605 18.5337 8.28977 18.7408C7.91776 18.9856 7.58143 18.8812 7.35595 18.5065C6.97691 17.8766 6.5995 17.2462 6.2237 16.6142C5.99552 16.2301 6.08474 15.9248 6.48595 15.6978C6.96988 15.4244 6.98016 15.4051 6.92392 14.8587C6.91203 14.7449 6.61626 14.5706 6.42484 14.5706C5.87169 14.569 5.31854 14.5706 4.76539 14.5701C4.27713 14.5696 4.04516 14.3472 4.04516 13.8791C4.04462 12.1867 4.04516 10.4943 4.04516 8.80137C4.04516 8.73822 4.04516 8.67508 4.04516 8.60254C4.45394 8.60254 4.84217 8.60254 5.25312 8.60254C5.25312 10.1942 5.25312 11.7849 5.25312 13.3974C5.60945 13.3974 5.94469 13.4032 6.27885 13.3917C6.33184 13.3896 6.39781 13.3192 6.43079 13.2649C6.7417 12.755 7.04612 12.2415 7.35433 11.7296C7.58089 11.3533 7.89937 11.2708 8.29139 11.4843C8.78128 11.751 8.7829 11.753 9.26035 11.4514C9.30469 11.4232 9.33929 11.3512 9.34254 11.2975C9.35335 11.1352 9.34146 10.9718 9.34795 10.8095C9.36038 10.488 9.60965 10.2391 9.94327 10.2365C10.7592 10.2297 11.5757 10.2297 12.3916 10.2365C12.7252 10.2391 12.9713 10.487 12.9886 10.809C12.9897 10.8283 12.9934 10.8492 12.9886 10.8674C12.888 11.2855 13.0827 11.5391 13.4779 11.6737C13.5428 11.6956 13.632 11.7009 13.6926 11.6753C13.8272 11.6179 13.95 11.5344 14.0797 11.4655C14.4274 11.2797 14.761 11.3637 14.9627 11.6956C15.2763 12.2118 15.5878 12.7289 15.8906 13.2508C15.9555 13.3625 16.0247 13.4068 16.1582 13.4021C16.454 13.3917 16.7509 13.399 17.0688 13.399C17.0688 11.8 17.0688 10.2094 17.0688 8.60671C17.4841 8.60671 17.8772 8.60671 18.2914 8.60671C18.2914 8.68186 18.2914 8.75179 18.2914 8.8212C18.2914 10.5006 18.2914 12.1799 18.2914 13.8598C18.2914 14.354 18.0659 14.5706 17.5506 14.5711C17.0245 14.5716 16.4978 14.556 15.9728 14.58C15.7981 14.5878 15.6278 14.6953 15.458 14.7626C15.4353 14.7715 15.4239 14.8127 15.4131 14.8409C15.4066 14.8582 15.4158 14.8801 15.4126 14.8989C15.3412 15.2955 15.4704 15.5564 15.8814 15.7265C16.2539 15.8805 16.3334 16.2421 16.1328 16.5824C15.7457 17.2379 15.3547 17.8912 14.9606 18.5425C14.76 18.8739 14.4269 18.9548 14.077 18.7685C14.0711 18.7654 14.0651 18.7622 14.0603 18.7581C13.731 18.4663 13.406 18.5154 13.0908 18.7774C13.0432 18.817 13.0048 18.8833 12.9934 18.9428C12.9772 19.031 12.981 19.1249 12.9907 19.2152C13.0297 19.5784 12.8939 19.8461 12.5441 20.0022C11.6271 20.0001 10.7095 20.0001 9.79241 20.0001ZM9.3474 15.1066C9.34308 16.0704 10.152 16.8658 11.1469 16.8741C12.1548 16.883 12.9837 16.0965 12.9886 15.1274C12.9934 14.163 12.1845 13.3687 11.1891 13.3599C10.1817 13.351 9.35227 14.138 9.3474 15.1066Z" fill="#CC092F"/>
<path d="M21.5306 6.99182C21.3695 7.32999 21.0916 7.42915 20.7158 7.42706C18.667 7.41558 16.6177 7.42184 14.5684 7.42132C14.0682 7.42132 13.8546 7.20109 13.8368 6.71941C13.8 5.72473 14.1228 4.87983 14.9096 4.21758C15.0053 4.13721 15.1107 4.06781 15.2221 3.98535C15.8899 4.69196 16.7042 5.07501 17.6872 5.07449C18.6648 5.07396 19.4748 4.69561 20.1426 3.98848C20.6957 4.34074 21.0975 4.80729 21.3251 5.40378C21.4149 5.63915 21.463 5.88912 21.5295 6.13231C21.5306 6.41881 21.5306 6.70532 21.5306 6.99182Z" fill="#CC092F"/>
<path d="M2.17561 3.97461C3.53226 5.42957 5.76325 5.44001 7.11341 3.99183C7.57302 4.28042 7.92232 4.66243 8.17483 5.13367C8.47276 5.69051 8.53224 6.28752 8.49061 6.8981C8.46898 7.21227 8.19916 7.41945 7.84608 7.42049C7.13179 7.42258 6.41697 7.42101 5.70269 7.42101C4.30764 7.42101 2.91206 7.42154 1.51702 7.42101C1.04335 7.42101 0.822201 7.19452 0.804899 6.73998C0.771915 5.87733 0.995771 5.10341 1.61651 4.4636C1.78467 4.29034 1.98203 4.14265 2.17561 3.97461Z" fill="#CC092F"/>
<path d="M19.7083 1.95387C19.7078 3.02735 18.801 3.90357 17.6887 3.90513C16.5689 3.9067 15.6573 3.02318 15.6621 1.94135C15.6675 0.869957 16.5797 -0.00260349 17.692 5.83706e-06C18.8042 0.00313703 19.7094 0.879872 19.7083 1.95387Z" fill="#CC092F"/>
<path d="M4.65433 2.3355e-07C5.76603 0.0005221 6.67497 0.876736 6.67605 1.94969C6.67714 3.03152 5.76225 3.91087 4.64081 3.90513C3.53018 3.89991 2.62665 3.01952 2.62989 1.94604C2.6326 0.873604 3.54208 -0.000521633 4.65433 2.3355e-07Z" fill="#CC092F"/>
</svg>
