<svg width="233" height="125" viewBox="0 0 233 125" fill="none" xmlns="http://www.w3.org/2000/svg">
<g opacity="0.1">
<path d="M177.987 17.2166C188.313 18.9114 197.747 24.1006 204.722 31.9172C211.698 39.7343 215.793 49.7103 216.329 60.1846L224.775 65.8279L233 60.3349C232.479 45.5502 226.752 31.4261 216.835 20.4697C206.917 9.51319 193.45 2.43014 178.819 0.475098L182.434 5.90189V5.90364C183.369 7.30486 183.369 9.13417 182.434 10.537L177.987 17.2166Z" fill="#333840"/>
<path d="M70.5246 124.528C87.6089 122.246 103.008 113.03 113.119 99.0384C120.317 88.9958 124.364 77.0293 124.743 64.668L116.497 59.1504L108.05 64.7937C107.515 75.2662 103.418 85.2409 96.4422 93.0561C89.4669 100.871 80.0326 106.058 69.709 107.755L74.1517 114.435V114.433C75.086 115.836 75.086 117.665 74.1517 119.068L70.5246 124.528Z" fill="#333840"/>
<path d="M17.1963 69.8616L10.5329 74.3152C9.13502 75.2517 7.31014 75.2517 5.91074 74.3152L0.49707 70.6915C2.44743 85.3554 9.51152 98.8524 20.4397 108.794C31.3697 118.734 45.456 124.475 60.2032 124.999L65.6918 116.757L60.0622 108.29V108.292C49.6132 107.756 39.6626 103.65 31.8632 96.6594C24.065 89.6671 18.8887 80.2099 17.1963 69.8613V69.8616Z" fill="#333840"/>
<path d="M163.275 107.764C148.981 105.418 136.631 96.4427 129.96 83.5518C128.015 89.8015 125.212 95.749 121.631 101.223C131.716 113.989 146.344 122.339 162.444 124.521L158.82 119.095C157.886 117.692 157.886 115.864 158.82 114.461L163.275 107.764Z" fill="#333840"/>
<path d="M222.459 74.3162L215.796 69.8662C214.103 80.2148 208.927 89.6702 201.129 96.6625C193.329 103.653 183.379 107.757 172.932 108.293L167.306 116.759L172.785 125C187.536 124.479 201.626 118.738 212.556 108.798C223.488 98.8568 230.555 85.3585 232.504 70.6928L227.09 74.3164C225.691 75.2529 223.868 75.2529 222.468 74.3164L222.459 74.3162Z" fill="#333840"/>
<path d="M103.021 41.4235C104.964 35.1755 107.769 29.2299 111.35 23.7579C99.9568 9.35254 82.8426 0.670914 64.5179 0L59.0293 8.22048L64.6589 16.6874L64.6607 16.6857C80.9258 17.5103 95.5319 26.9292 103.023 41.424L103.021 41.4235Z" fill="#333840"/>
<path d="M16.6655 60.1824C17.2006 49.7081 21.2966 39.7335 28.2737 31.9169C35.249 24.0998 44.6834 18.9128 55.0069 17.218L50.5642 10.5384C49.6299 9.13547 49.6299 7.30615 50.5642 5.9051L54.1791 0.47831V0.476562C39.5506 2.43165 26.0827 9.51287 16.1656 20.4693C6.24805 31.4258 0.521154 45.5481 0 60.3328L8.21978 65.8293L16.6655 60.1824Z" fill="#333840"/>
<path d="M114.186 50.669C115.585 49.7343 117.409 49.7343 118.808 50.669L125.471 55.1225V55.1242C127.162 44.7756 132.337 35.3184 140.135 28.3262C147.931 21.3339 157.88 17.2266 168.329 16.6881L173.967 8.22292L168.5 0.00244141C149.171 0.680332 131.234 10.2513 119.882 25.948C113.853 34.3291 110.009 44.0873 108.696 54.3343L114.186 50.669Z" fill="#333840"/>
</g>
</svg>
