<svg width="22" height="17" viewBox="0 0 22 17" fill="none" xmlns="http://www.w3.org/2000/svg">
<g clip-path="url(#clip0_1310_4464)">
<path d="M21.1061 16.4707C20.3046 16.4707 19.5036 16.4707 18.6885 16.4707C18.6885 14.6481 18.6885 12.8372 18.6885 11.002C19.4933 11.002 20.2997 11.002 21.1061 11.002C21.1061 12.825 21.1061 14.6481 21.1061 16.4707Z" fill="#CC092F"/>
<path d="M12.5856 6.58278C11.3732 6.58278 10.1744 6.58278 8.95235 6.58278C8.95235 6.39623 8.95397 6.21602 8.95235 6.0358C8.94261 5.0797 8.15567 4.37102 7.09109 4.36663C6.14665 4.36274 5.20168 4.36566 4.25725 4.36566C4.18418 4.36566 4.11057 4.36566 4.02344 4.36566C4.02344 3.27171 4.02344 2.18897 4.02344 1.0843C4.09704 1.0843 4.16849 1.0843 4.24047 1.0843C5.58324 1.0843 6.92601 1.08333 8.26878 1.08479C10.425 1.08674 12.1385 2.36772 12.5379 4.27653C12.5601 4.38368 12.5829 4.49278 12.5834 4.6014C12.5877 5.25601 12.5856 5.91112 12.5856 6.58278Z" fill="#CC092F"/>
<path d="M8.95876 9.87891C10.1733 9.87891 11.3715 9.87891 12.5985 9.87891C12.5985 10.0484 12.5979 10.216 12.5985 10.383C12.6017 11.3869 13.3816 12.0926 14.4938 12.0946C15.4718 12.0965 16.4498 12.0951 17.444 12.0951C17.444 13.1846 17.444 14.2678 17.444 15.3764C17.378 15.3764 17.3071 15.3764 17.2357 15.3764C15.92 15.3764 14.6042 15.3774 13.2885 15.3764C11.1307 15.3745 9.4188 14.0983 9.0145 12.19C8.9869 12.059 8.962 11.9256 8.96092 11.7931C8.95605 11.1613 8.95876 10.5306 8.95876 9.87891Z" fill="#CC092F"/>
<path d="M0.37793 0C1.18706 0 1.98049 0 2.78474 0C2.78474 1.81627 2.78474 3.62376 2.78474 5.44587C1.98915 5.44587 1.1903 5.44587 0.37793 5.44587C0.37793 3.63789 0.37793 1.82552 0.37793 0Z" fill="#CC092F"/>
<path d="M13.7605 8.77514C11.7369 8.77514 9.73327 8.77514 7.71289 8.77514C7.71289 8.41861 7.71289 8.06403 7.71289 7.69727C9.72083 7.69727 11.7342 7.69727 13.7605 7.69727C13.7605 8.05087 13.7605 8.40497 13.7605 8.77514Z" fill="#CC092F"/>
</g>
<defs>
<clipPath id="clip0_1310_4464">
<rect width="20.7288" height="16.4706" fill="white" transform="translate(0.37793)"/>
</clipPath>
</defs>
</svg>
