<svg width="22" height="18" viewBox="0 0 22 18" fill="none" xmlns="http://www.w3.org/2000/svg">
<g clip-path="url(#clip0_1310_4289)">
<path d="M21.604 14.2165C21.3866 14.479 21.1779 14.7482 20.9508 15.0028C20.423 15.595 19.8844 16.1783 19.3544 16.7689C19.2019 16.9384 19.0186 17.0198 18.7877 17.0198C17 17.0188 15.2117 17.0193 13.424 17.0193C13.3861 17.0193 13.3483 17.0151 13.2666 17.0105C13.3596 16.9077 13.4277 16.831 13.497 16.7558C14.1653 16.0311 14.8343 15.3075 15.5026 14.5823C15.8146 14.2436 15.8168 13.977 15.5075 13.6353C14.8197 12.8751 14.1307 12.116 13.4423 11.3563C13.3953 11.3041 13.352 11.2494 13.2828 11.1669C13.8128 11.1669 14.307 11.1669 14.838 11.1669C14.838 11.0667 14.838 10.9859 14.838 10.905C14.838 7.51941 14.838 4.1333 14.838 0.747701C14.838 0.209261 15.0495 0.00525929 15.6081 0.00525929C17.3423 0.00525929 19.0759 0.012042 20.8102 4.1854e-05C21.1941 -0.00256686 21.4607 0.116391 21.6045 0.464394C21.6045 0.555699 21.6045 0.646482 21.6045 0.737787C21.5169 0.867702 21.4369 1.00231 21.3406 1.12649C20.9107 1.68214 20.476 2.23519 20.0331 2.80181C20.3624 3.20877 20.6928 3.60946 21.014 4.0159C21.2173 4.27312 21.4077 4.53921 21.604 4.80113C21.604 4.89243 21.604 4.98322 21.604 5.07452C21.4569 5.434 21.1757 5.542 20.7885 5.53887C19.2906 5.52635 17.7933 5.53366 16.2954 5.53366C16.2181 5.53366 16.1407 5.53366 16.0661 5.53366C16.0661 7.42445 16.0661 9.28291 16.0661 11.1596C16.1532 11.1596 16.2256 11.1596 16.2986 11.1596C17.1217 11.1596 17.9447 11.1638 18.7677 11.157C19.0165 11.1549 19.2068 11.2374 19.3696 11.4168C19.8406 11.936 20.3229 12.4457 20.7928 12.9654C21.0703 13.2722 21.3336 13.5904 21.6029 13.904C21.604 14.0083 21.604 14.1122 21.604 14.2165Z" fill="#CC092F"/>
<path d="M3.87087 11.1594C3.87087 10.598 3.87574 10.059 3.8633 9.52056C3.86222 9.46735 3.76489 9.399 3.69675 9.36665C3.02189 9.04525 2.6055 8.39203 2.66391 7.67046C2.72339 6.9275 3.12733 6.40262 3.84816 6.1334C4.75339 5.79479 5.76677 6.22419 6.15178 7.08819C6.53734 7.95325 6.14421 8.9623 5.25413 9.36248C5.12164 9.42195 5.08001 9.48613 5.08271 9.62126C5.09136 10.0767 5.08217 10.5327 5.08974 10.9882C5.09082 11.0618 5.12651 11.1494 5.1768 11.2053C6.03011 12.1543 6.8883 13.0987 7.74539 14.0451C7.75837 14.0597 7.76648 14.078 7.78811 14.1135C7.55667 14.3655 7.32198 14.6222 7.08621 14.8778C6.46705 15.5488 5.85004 16.2213 5.22331 16.886C5.15679 16.9565 5.03404 17.0133 4.93671 17.0144C3.8168 17.0232 2.69689 17.0212 1.57699 17.0196C1.11626 17.0191 0.875624 16.7869 0.875624 16.346C0.875084 14.8356 0.874543 13.3251 0.875624 11.8141C0.875624 11.3931 1.11356 11.1614 1.54995 11.1604C2.24482 11.1583 2.93969 11.1599 3.63456 11.1599C3.70703 11.1594 3.77949 11.1594 3.87087 11.1594Z" fill="#CC092F"/>
<path d="M11.0495 11.1504C11.0992 11.1536 11.1403 11.1651 11.1776 11.1572C11.5448 11.0816 11.7649 11.2658 11.9888 11.5214C12.7069 12.3416 13.4488 13.143 14.181 13.9517C14.2248 14.0002 14.2648 14.0513 14.3135 14.1087C13.7479 14.7223 13.1882 15.3291 12.6285 15.9364C12.3278 16.262 12.0304 16.5901 11.7233 16.9105C11.6708 16.9648 11.5794 17.0148 11.5053 17.0148C9.95391 17.0206 8.40194 17.019 6.85051 17.0185C6.83158 17.0185 6.8132 17.0117 6.76074 17.0013C6.82077 16.9314 6.86835 16.8735 6.91918 16.8182C7.59621 16.0841 8.27378 15.35 8.95189 14.6164C9.30608 14.2329 9.30716 13.9877 8.95189 13.5959C8.2727 12.8461 7.59297 12.0969 6.91378 11.3471C6.87052 11.2991 6.82996 11.2491 6.76236 11.1692C7.79413 11.1692 8.7929 11.1692 9.82305 11.1692C9.82305 11.0774 9.82305 11.0091 9.82305 10.9407C9.82305 9.59304 9.82034 8.24538 9.82683 6.89824C9.82737 6.75319 9.78411 6.68589 9.64784 6.62328C8.8194 6.24397 8.41924 5.34709 8.69395 4.51022C8.96865 3.67125 9.8344 3.16986 10.7569 3.3149C11.6173 3.45003 12.2748 4.2123 12.2473 5.07787C12.224 5.7984 11.8547 6.3191 11.1847 6.63737C11.0944 6.68015 11.0333 6.71145 11.0338 6.82989C11.0392 8.24277 11.0376 9.65513 11.0381 11.068C11.0381 11.0878 11.0435 11.1071 11.0495 11.1504Z" fill="#CC092F"/>
</g>
<defs>
<clipPath id="clip0_1310_4289">
<rect width="20.7288" height="17.0203" fill="white" transform="translate(0.875)"/>
</clipPath>
</defs>
</svg>
