<svg width="16" height="20" viewBox="0 0 16 20" fill="none" xmlns="http://www.w3.org/2000/svg">
<path d="M7.76557 20.0001C7.55671 19.9166 7.34624 19.8362 7.13901 19.749C3.43939 18.1922 1.14954 15.4997 0.293675 11.683C0.139727 10.9956 0.0896666 10.2764 0.0794392 9.5708C0.0509103 7.64392 0.0692119 5.71652 0.0697501 3.78911C0.0697501 3.3575 0.304441 3.12995 0.751753 3.12212C3.244 3.07775 5.37559 2.20408 7.14923 0.507363C7.2542 0.406635 7.35701 0.303819 7.46305 0.204135C7.75642 -0.0714322 8.08477 -0.0636036 8.39105 0.201003C8.92126 0.659238 9.42993 1.14931 10.0043 1.54909C11.3295 2.47182 12.8276 2.97076 14.4569 3.08924C14.6911 3.10646 14.9258 3.11377 15.1605 3.12264C15.5287 3.13673 15.7811 3.37368 15.7817 3.73014C15.7827 5.80733 15.8753 7.88922 15.758 9.96014C15.5114 14.3123 13.3233 17.4944 9.31959 19.4876C8.92287 19.6848 8.49871 19.8304 8.08746 20.0001C7.98034 20.0001 7.87322 20.0001 7.76557 20.0001ZM7.92759 15.234C10.9204 15.2335 13.361 12.8703 13.3659 9.96849C13.3707 7.05886 10.9269 4.68575 7.92544 4.68627C4.93313 4.68679 2.49256 7.04947 2.48771 9.95127C2.48287 12.8599 4.92774 15.2345 7.92759 15.234Z" fill="#CC092F"/>
<path d="M7.93743 5.85743C10.2655 5.8616 12.1603 7.7055 12.1576 9.96432C12.1549 12.2299 10.2456 14.0702 7.90621 14.0613C5.57976 14.0524 3.68931 12.2033 3.69631 9.94396C3.70384 7.68776 5.60721 5.85325 7.93743 5.85743ZM7.11009 11.0859C6.71984 10.7033 6.34735 10.3375 5.97539 9.97215C5.80853 9.80879 5.61205 9.72633 5.37467 9.78217C4.90045 9.89386 4.74919 10.4314 5.10069 10.7801C5.60236 11.278 6.11427 11.767 6.62241 12.2586C6.95614 12.5812 7.2845 12.5817 7.61931 12.2597C8.05747 11.838 8.49294 11.4137 8.92949 10.9899C9.52752 10.41 10.125 9.83019 10.7236 9.25087C10.8958 9.08386 10.9911 8.8918 10.9287 8.65276C10.8076 8.18618 10.2515 8.05257 9.88278 8.40695C9.01615 9.24147 8.15436 10.0807 7.29042 10.9178C7.23982 10.9679 7.18599 11.0154 7.11009 11.0859Z" fill="#CC092F"/>
</svg>
