<svg width="16" height="22" viewBox="0 0 16 22" fill="none" xmlns="http://www.w3.org/2000/svg">
<mask id="mask0_1383_7481" style="mask-type:alpha" maskUnits="userSpaceOnUse" x="0" y="0" width="16" height="22">
<path d="M9.86111 0H1.47917C0.665625 0 0 0.665625 0 1.47917V20.2153C0 21.0288 0.665625 21.6944 1.47917 21.6944H14.2986C15.1122 21.6944 15.7778 21.0288 15.7778 20.2153V5.91667L9.86111 0Z" fill="white"/>
</mask>
<g mask="url(#mask0_1383_7481)">
<path d="M9.86111 0H1.47917C0.665625 0 0 0.665625 0 1.47917V20.2153C0 21.0288 0.665625 21.6944 1.47917 21.6944H14.2986C15.1122 21.6944 15.7778 21.0288 15.7778 20.2153V5.91667L12.3264 3.45139L9.86111 0Z" fill="#F4B400"/>
</g>
<mask id="mask1_1383_7481" style="mask-type:alpha" maskUnits="userSpaceOnUse" x="0" y="0" width="16" height="22">
<path d="M9.86111 0H1.47917C0.665625 0 0 0.665625 0 1.47917V20.2153C0 21.0288 0.665625 21.6944 1.47917 21.6944H14.2986C15.1122 21.6944 15.7778 21.0288 15.7778 20.2153V5.91667L9.86111 0Z" fill="white"/>
</mask>
<g mask="url(#mask1_1383_7481)">
<path d="M11.0936 9.86133H4.68392C4.27715 9.86133 3.94434 10.1941 3.94434 10.6009V17.0106C3.94434 17.4174 4.27715 17.7502 4.68392 17.7502H11.0936C11.5004 17.7502 11.8332 17.4174 11.8332 17.0106V10.6009C11.8332 10.1941 11.5004 9.86133 11.0936 9.86133ZM10.8471 15.5315H4.93045V12.0801H10.8471V15.5315Z" fill="#F1F1F1"/>
</g>
<mask id="mask2_1383_7481" style="mask-type:alpha" maskUnits="userSpaceOnUse" x="0" y="0" width="16" height="22">
<path d="M9.86111 0H1.47917C0.665625 0 0 0.665625 0 1.47917V20.2153C0 21.0288 0.665625 21.6944 1.47917 21.6944H14.2986C15.1122 21.6944 15.7778 21.0288 15.7778 20.2153V5.91667L9.86111 0Z" fill="white"/>
</mask>
<g mask="url(#mask2_1383_7481)">
<path d="M10.2939 5.48389L15.778 10.9667V5.91654L10.2939 5.48389Z" fill="url(#paint0_linear_1383_7481)"/>
</g>
<mask id="mask3_1383_7481" style="mask-type:alpha" maskUnits="userSpaceOnUse" x="0" y="0" width="16" height="22">
<path d="M9.86111 0H1.47917C0.665625 0 0 0.665625 0 1.47917V20.2153C0 21.0288 0.665625 21.6944 1.47917 21.6944H14.2986C15.1122 21.6944 15.7778 21.0288 15.7778 20.2153V5.91667L9.86111 0Z" fill="white"/>
</mask>
<g mask="url(#mask3_1383_7481)">
<path d="M9.86133 0V4.4375C9.86133 5.25474 10.5233 5.91667 11.3405 5.91667H15.778L9.86133 0Z" fill="#FADA80"/>
</g>
<mask id="mask4_1383_7481" style="mask-type:alpha" maskUnits="userSpaceOnUse" x="0" y="0" width="16" height="22">
<path d="M9.86111 0H1.47917C0.665625 0 0 0.665625 0 1.47917V20.2153C0 21.0288 0.665625 21.6944 1.47917 21.6944H14.2986C15.1122 21.6944 15.7778 21.0288 15.7778 20.2153V5.91667L9.86111 0Z" fill="white"/>
</mask>
<g mask="url(#mask4_1383_7481)">
<path d="M9.86133 0V0.123264L15.6547 5.91667H15.778L9.86133 0Z" fill="white" fill-opacity="0.1"/>
</g>
<mask id="mask5_1383_7481" style="mask-type:alpha" maskUnits="userSpaceOnUse" x="0" y="0" width="16" height="22">
<path d="M9.86111 0H1.47917C0.665625 0 0 0.665625 0 1.47917V20.2153C0 21.0288 0.665625 21.6944 1.47917 21.6944H14.2986C15.1122 21.6944 15.7778 21.0288 15.7778 20.2153V5.91667L9.86111 0Z" fill="white"/>
</mask>
<g mask="url(#mask5_1383_7481)">
<path d="M1.47917 0C0.665625 0 0 0.665625 0 1.47917V1.60243C0 0.788889 0.665625 0.123264 1.47917 0.123264H9.86111V0H1.47917Z" fill="white" fill-opacity="0.2"/>
</g>
<mask id="mask6_1383_7481" style="mask-type:alpha" maskUnits="userSpaceOnUse" x="0" y="0" width="16" height="22">
<path d="M9.86111 0H1.47917C0.665625 0 0 0.665625 0 1.47917V20.2153C0 21.0288 0.665625 21.6944 1.47917 21.6944H14.2986C15.1122 21.6944 15.7778 21.0288 15.7778 20.2153V5.91667L9.86111 0Z" fill="white"/>
</mask>
<g mask="url(#mask6_1383_7481)">
<path d="M14.2986 21.571H1.47917C0.665625 21.571 0 20.9053 0 20.0918V20.2151C0 21.0286 0.665625 21.6942 1.47917 21.6942H14.2986C15.1122 21.6942 15.7778 21.0286 15.7778 20.2151V20.0918C15.7778 20.9053 15.1122 21.571 14.2986 21.571Z" fill="#BF360C" fill-opacity="0.2"/>
</g>
<mask id="mask7_1383_7481" style="mask-type:alpha" maskUnits="userSpaceOnUse" x="0" y="0" width="16" height="22">
<path d="M9.86111 0H1.47917C0.665625 0 0 0.665625 0 1.47917V20.2153C0 21.0288 0.665625 21.6944 1.47917 21.6944H14.2986C15.1122 21.6944 15.7778 21.0288 15.7778 20.2153V5.91667L9.86111 0Z" fill="white"/>
</mask>
<g mask="url(#mask7_1383_7481)">
<path d="M11.3405 5.91667C10.5233 5.91667 9.86133 5.25474 9.86133 4.4375V4.56076C9.86133 5.378 10.5233 6.03993 11.3405 6.03993H15.778V5.91667H11.3405Z" fill="#BF360C" fill-opacity="0.1"/>
</g>
<path d="M9.86111 0H1.47917C0.665625 0 0 0.665625 0 1.47917V20.2153C0 21.0288 0.665625 21.6944 1.47917 21.6944H14.2986C15.1122 21.6944 15.7778 21.0288 15.7778 20.2153V5.91667L9.86111 0Z" fill="url(#paint1_radial_1383_7481)"/>
<defs>
<linearGradient id="paint0_linear_1383_7481" x1="13.0362" y1="5.95464" x2="13.0362" y2="10.9674" gradientUnits="userSpaceOnUse">
<stop stop-color="#BF360C" stop-opacity="0.2"/>
<stop offset="1" stop-color="#BF360C" stop-opacity="0.02"/>
</linearGradient>
<radialGradient id="paint1_radial_1383_7481" cx="0" cy="0" r="1" gradientUnits="userSpaceOnUse" gradientTransform="translate(0.499848 0.431222) scale(25.4414 25.4414)">
<stop stop-color="white" stop-opacity="0.1"/>
<stop offset="1" stop-color="white" stop-opacity="0"/>
</radialGradient>
</defs>
</svg>
