<svg width="22" height="20" viewBox="0 0 22 20" fill="none" xmlns="http://www.w3.org/2000/svg">
<g clip-path="url(#clip0_1310_4275)">
<path d="M10.4227 20.0002C10.0296 19.9494 9.62998 19.9256 9.24496 19.8416C8.63565 19.7084 8.032 19.5475 7.43362 19.3732C7.08585 19.2717 6.92916 18.9373 7.03807 18.6264C7.14617 18.3182 7.47249 18.1705 7.82714 18.2631C8.37897 18.4072 8.92431 18.5893 9.48545 18.6826C13.6409 19.3732 17.7247 17.2502 19.4041 13.5217C20.1782 11.8029 20.3563 10.0127 19.9596 8.1752C19.6531 6.75527 19.0219 5.4834 18.0596 4.36738C18.0345 4.33809 18.0073 4.31074 17.9454 4.24473C17.9393 4.3623 17.9361 4.44082 17.9308 4.51895C17.9081 4.8791 17.6652 5.12012 17.3235 5.12129C16.9749 5.12246 16.7138 4.87285 16.7085 4.50566C16.6996 3.91348 16.6988 3.32129 16.709 2.7291C16.7154 2.34824 16.9713 2.1166 17.3697 2.11387C17.9701 2.10918 18.5701 2.10918 19.1705 2.11387C19.5652 2.11699 19.8272 2.36113 19.8243 2.71035C19.8219 3.0502 19.564 3.28262 19.1778 3.29004C19.0438 3.29277 18.9094 3.29043 18.7264 3.29043C18.7968 3.37559 18.8422 3.43379 18.8911 3.48926C20.2219 4.98496 21.0175 6.71309 21.3021 8.66191C21.3385 8.91191 21.3636 9.16348 21.394 9.41465C21.394 9.80527 21.394 10.1959 21.394 10.5865C21.3818 10.6432 21.3681 10.6994 21.358 10.7564C21.2462 11.3896 21.2057 12.0436 21.0122 12.6525C19.7559 16.6053 17.0065 18.9982 12.8138 19.8436C12.4272 19.9217 12.0292 19.9494 11.6369 20.0006C11.2324 20.0002 10.8276 20.0002 10.4227 20.0002Z" fill="#CC092F"/>
<path d="M11.6377 0C12.0308 0.0515625 12.4284 0.0816406 12.8159 0.160156C13.3422 0.266797 13.8644 0.397656 14.3806 0.543359C14.7187 0.638672 14.879 0.9625 14.7831 1.27148C14.6863 1.58203 14.3531 1.75586 14.0074 1.65391C13.2381 1.42695 12.46 1.25625 11.6543 1.19922C10.5163 1.11875 9.39965 1.23008 8.31948 1.57148C5.70733 2.39805 3.8053 4.01562 2.67533 6.43906C2.01217 7.86094 1.78302 9.36172 1.95468 10.9168C2.14902 12.6789 2.82027 14.2473 3.98748 15.6164C4.02068 15.6555 4.05833 15.691 4.13364 15.7695C4.13364 15.6086 4.12918 15.4945 4.13445 15.3805C4.15145 15.0246 4.40408 14.7762 4.74336 14.7777C5.08061 14.7789 5.3466 15.0297 5.35267 15.3836C5.36279 15.9824 5.36279 16.5816 5.35267 17.1805C5.3466 17.5461 5.10328 17.7793 4.72635 17.7844C4.1057 17.7926 3.48465 17.7922 2.864 17.7844C2.49234 17.7797 2.23971 17.5359 2.23728 17.2047C2.23485 16.8656 2.49396 16.6211 2.87291 16.6074C2.98019 16.6035 3.08748 16.607 3.24011 16.607C3.17574 16.5277 3.13485 16.4742 3.09072 16.423C1.67574 14.7828 0.873709 12.902 0.700834 10.7734C0.69557 10.7105 0.677757 10.6484 0.666016 10.5859C0.666016 10.1953 0.666016 9.80469 0.666016 9.41406C0.678161 9.35156 0.691522 9.28945 0.702048 9.22695C0.794761 8.66953 0.847798 8.10273 0.98626 7.55625C1.498 5.53789 2.58991 3.84844 4.20449 2.48086C5.60044 1.29844 7.21584 0.527734 9.0454 0.195703C9.52758 0.108203 10.0179 0.0640625 10.5041 0C10.8818 0 11.26 0 11.6377 0Z" fill="#CC092F"/>
<path d="M10.4352 4.14746C9.72587 4.50762 9.3611 5.07871 9.07608 5.70723C8.6449 6.65879 8.4619 7.66816 8.35826 8.69395C8.33883 8.88809 8.3364 9.08418 8.30927 9.27715C8.30239 9.3248 8.22911 9.40059 8.18579 9.40059C7.12708 9.40645 6.06837 9.40371 5.00967 9.40176C4.99752 9.40176 4.98537 9.39199 4.97363 9.38652C5.12707 6.8498 7.46271 4.36934 10.4352 4.14746Z" fill="#CC092F"/>
<path d="M4.96973 10.6035C6.07378 10.6035 7.17662 10.6035 8.2997 10.6035C8.31873 10.8258 8.33573 11.0441 8.35597 11.2621C8.45111 12.2895 8.63654 13.2984 9.058 14.2531C9.31104 14.8266 9.63169 15.3594 10.1916 15.7152C10.2568 15.7566 10.324 15.7949 10.4094 15.8465C7.61467 15.6617 5.15475 13.2945 4.96973 10.6035Z" fill="#CC092F"/>
<path d="M17.089 10.6066C16.9149 13.2152 14.5396 15.6383 11.6699 15.8473C12.7671 15.1961 13.1509 14.1281 13.4072 13.0149C13.5772 12.2758 13.6388 11.5137 13.7444 10.7613C13.7582 10.6641 13.7566 10.5891 13.8975 10.5898C14.9359 10.5945 15.9744 10.5926 17.0129 10.5934C17.038 10.5934 17.0639 10.602 17.089 10.6066Z" fill="#CC092F"/>
<path d="M11.6387 4.14746C14.6435 4.38418 16.9391 6.89199 17.0852 9.40684C17.018 9.40684 16.9521 9.40684 16.8861 9.40684C15.9152 9.40684 14.9448 9.40254 13.9743 9.41074C13.7998 9.4123 13.748 9.36856 13.7383 9.19707C13.6715 8.01738 13.4877 6.85762 13.0099 5.75957C12.7597 5.18457 12.4383 4.65332 11.8836 4.29316C11.8176 4.2498 11.7476 4.21191 11.6387 4.14746Z" fill="#CC092F"/>
<path d="M12.5166 9.39717C11.5178 9.39717 10.5433 9.39717 9.5332 9.39717C9.57409 9.00733 9.60365 8.62803 9.65547 8.25147C9.76478 7.45655 9.94373 6.67764 10.3259 5.95811C10.4348 5.75264 10.5798 5.5585 10.7405 5.38702C10.9437 5.17022 11.1352 5.16163 11.3219 5.39092C11.5393 5.65811 11.7421 5.95108 11.8786 6.26202C12.3142 7.25499 12.4607 8.30889 12.5166 9.39717Z" fill="#CC092F"/>
<path d="M12.5303 10.6045C12.4882 11.001 12.4567 11.3877 12.4044 11.7717C12.2979 12.5541 12.1125 13.3182 11.7461 14.0295C11.6481 14.2193 11.5194 14.3998 11.3761 14.5607C11.1283 14.8389 10.9182 14.8537 10.6967 14.5619C10.4647 14.2568 10.2546 13.9213 10.1133 13.5697C9.73721 12.635 9.60279 11.6486 9.54692 10.6521C9.54611 10.6404 9.55543 10.6283 9.56474 10.6045C10.54 10.6045 11.5202 10.6045 12.5303 10.6045Z" fill="#CC092F"/>
</g>
<defs>
<clipPath id="clip0_1310_4275">
<rect width="20.7288" height="20" fill="white" transform="translate(0.666016)"/>
</clipPath>
</defs>
</svg>
