<svg width="22" height="20" viewBox="0 0 22 20" fill="none" xmlns="http://www.w3.org/2000/svg">
<g clip-path="url(#clip0_1310_4347)">
<path d="M4.80456 0C5.02061 0 5.23666 0 5.4527 0C5.51102 0.0112513 5.56935 0.025927 5.62818 0.0332648C6.81795 0.188338 7.78509 0.726446 8.49409 1.65493C9.32683 2.74533 9.52412 3.96488 9.16353 5.2671C9.11637 5.43685 9.15288 5.53517 9.27663 5.65453C11.4173 7.71402 13.555 9.77644 15.686 11.8447C15.8326 11.9871 15.9604 12.0233 16.1587 11.9763C16.8266 11.8183 17.5067 11.7616 18.1837 11.902C19.7584 12.2278 20.8027 13.1494 21.3397 14.6023C21.4559 14.9163 21.4944 15.2563 21.569 15.5846C21.569 15.7798 21.569 15.975 21.569 16.1706C21.5259 16.4001 21.4858 16.6295 21.4391 16.8584C21.3905 17.0986 21.2621 17.2791 21.0096 17.355C20.7565 17.4313 20.546 17.352 20.3655 17.1788C20.15 16.9724 19.937 16.7635 19.7209 16.5581C19.3654 16.22 19.0261 15.8639 18.6468 15.5528C18.1629 15.1556 17.3992 15.2466 16.9919 15.7137C16.5624 16.2063 16.605 16.8579 17.106 17.3481C17.6178 17.8485 18.1356 18.3431 18.6503 18.8406C18.8253 19.0099 18.9049 19.21 18.8339 19.4448C18.7609 19.6869 18.5773 19.8156 18.3283 19.8704C17.7227 20.0039 17.1131 20.0475 16.5035 19.9159C14.8665 19.5636 13.7725 18.6195 13.2593 17.0776C13.0093 16.3272 13.0651 15.5601 13.2461 14.8024C13.2943 14.6018 13.2715 14.4683 13.1082 14.3117C10.969 12.261 8.83794 10.202 6.71145 8.13913C6.57401 8.00607 6.45585 7.9728 6.27277 8.01781C5.61905 8.17777 4.95367 8.22522 4.28727 8.11173C1.90061 7.7057 0.351263 5.3302 0.993317 3.07357C1.12213 2.62059 1.62878 2.46649 1.99545 2.77517C2.15774 2.91214 2.30329 3.06673 2.45746 3.21299C2.89006 3.62342 3.30796 4.05048 3.76084 4.43939C4.16758 4.78916 4.81318 4.77448 5.2397 4.45358C5.83459 4.00597 5.87922 3.21691 5.32997 2.67342C4.83043 2.17983 4.32125 1.69504 3.8141 1.20879C3.62087 1.02338 3.4956 0.819881 3.58334 0.546424C3.67006 0.276881 3.88104 0.160454 4.15338 0.115938C4.37044 0.0807162 4.58699 0.0391351 4.80456 0Z" fill="#CC092F"/>
<path d="M21.5685 1.71901C20.8985 2.80843 20.2331 3.9003 19.5561 4.98532C19.3314 5.34488 18.908 5.38939 18.5895 5.10567C18.4713 5.00049 18.3673 4.88162 18.2213 4.73241C16.8535 6.06839 15.5095 7.38088 14.1747 8.68457C13.5915 8.12249 13.0296 7.58096 12.4844 7.05606C13.8192 5.75384 15.1637 4.44184 16.5462 3.09314C16.4432 3.009 16.3418 2.94345 16.2627 2.85833C15.9929 2.56726 16.0263 2.16515 16.3671 1.96312C17.4408 1.32717 18.5251 0.707856 19.6058 0.0831621C19.6626 0.0503865 19.726 0.0273946 19.7869 0C19.868 0 19.9486 0 20.0298 0C20.1855 0.106643 20.3549 0.1991 20.4948 0.322865C20.7515 0.549848 20.9984 0.788083 21.2338 1.03561C21.3621 1.17063 21.4579 1.33353 21.5685 1.4842C21.5685 1.56296 21.5685 1.64074 21.5685 1.71901Z" fill="#CC092F"/>
<path d="M21.569 1.4842C21.4584 1.33402 21.3626 1.17063 21.2343 1.03561C20.9989 0.788083 20.7519 0.549848 20.4953 0.322865C20.3554 0.1991 20.1865 0.106643 20.0303 0C20.54 0 21.0491 0 21.569 0C21.569 0.49457 21.569 0.989629 21.569 1.4842Z" fill="white"/>
<path d="M7.302 10.4131C8.47251 11.5421 9.60751 12.6369 10.7496 13.7386C10.7232 13.767 10.6903 13.8061 10.6533 13.8418C8.78339 15.6459 6.91403 17.4515 5.04213 19.2537C4.11658 20.1445 2.79646 20.2473 1.78977 19.5149C0.676062 18.7048 0.515295 17.1067 1.44744 16.1072C1.51946 16.03 1.59451 15.9551 1.67109 15.8812C3.50293 14.1138 5.33526 12.3469 7.16659 10.5784C7.21781 10.5276 7.25838 10.4664 7.302 10.4131ZM4.06586 17.6629C4.20077 17.6687 4.3519 17.5548 4.4939 17.4178C5.66643 16.2858 6.83998 15.1548 8.01201 14.0223C8.06881 13.9675 8.12612 13.9098 8.17024 13.8457C8.4015 13.5092 8.21994 13.064 7.81422 12.9622C7.58195 12.904 7.38517 12.9715 7.22238 13.1281C6.0047 14.2997 4.78957 15.4733 3.57443 16.6463C3.54147 16.6786 3.50952 16.7133 3.48416 16.7515C3.35687 16.9413 3.33912 17.1433 3.44562 17.3439C3.55618 17.5518 3.74027 17.6585 4.06586 17.6629Z" fill="#CC092F"/>
</g>
<defs>
<clipPath id="clip0_1310_4347">
<rect width="20.7288" height="20" fill="white" transform="translate(0.839844)"/>
</clipPath>
</defs>
</svg>
