<svg width="496" height="306" viewBox="0 0 496 306" fill="none" xmlns="http://www.w3.org/2000/svg">
<rect width="496" height="306" rx="8" fill="#EAEAEA" fill-opacity="0.2"/>
<path d="M368.018 197.617C351.48 183.485 398.894 59.2666 307.296 102.371C244.982 131.695 242.215 -21.0587 163.352 2.47553C97.86 22.0197 113.767 155.381 118.14 169.865C126.987 199.136 99.4908 203.512 73.955 216.085C33.9926 235.8 63.3989 305.155 101.2 305.456C139.001 305.808 368.018 304.803 368.018 304.803C368.018 304.803 445.782 315.216 445.782 274.626C445.782 216.085 387.826 257.108 368.018 197.617Z" fill="#F5F7FA"/>
<ellipse cx="294.099" cy="54.3571" rx="26.9794" ry="26.9784" fill="#F5F7FA"/>
<g opacity="0.5" clip-path="url(#clip0_391_28223)">
<path d="M83.9375 290.676C83.9375 292.812 83.4976 294.948 82.7057 296.728H55.0782C54.2864 294.859 53.8464 292.812 53.8464 290.676C53.8464 282.222 60.6213 275.458 68.892 275.458C77.2506 275.458 83.9375 282.222 83.9375 290.676Z" fill="#DAF2F0"/>
<path d="M123.795 292.1C123.795 293.79 123.443 295.303 122.827 296.727H101.711C101.095 295.303 100.743 293.701 100.743 292.1C100.743 285.692 105.934 280.441 112.269 280.441C118.692 280.441 123.795 285.692 123.795 292.1Z" fill="#DAF2F0"/>
<path d="M79.275 288.54C78.1312 285.603 79.275 282.221 77.1634 279.729C75.7556 278.039 73.116 277.149 71.6203 275.458C69.2447 272.877 70.2125 269.228 68.8048 266.291C67.573 263.711 64.5814 261.575 64.3175 258.816C64.2295 256.947 65.5493 255.078 67.7489 254.188C69.9486 253.298 72.7641 253.298 74.8758 254.366C78.7471 256.324 79.187 260.596 82.7065 262.91C85.786 264.867 90.8891 265.223 92.5609 267.893C93.9686 270.118 92.3849 272.877 93.7927 275.013C95.4644 277.594 100.128 277.772 103.647 278.929C110.158 280.975 113.413 287.294 110.51 292.011C109.894 292.99 109.014 293.88 107.694 294.235C106.903 294.502 106.023 294.413 105.231 294.413C97.1361 294.413 82.2665 296.371 79.275 288.54Z" fill="#DAF2F0"/>
<path d="M104.526 290.943C105.054 289.074 104.526 286.849 105.582 285.247C106.286 284.179 107.517 283.556 108.221 282.488C109.365 280.798 108.925 278.484 109.541 276.526C110.157 274.835 111.565 273.5 111.653 271.72C111.741 270.563 111.037 269.317 110.069 268.694C109.013 268.071 107.693 268.16 106.726 268.783C104.878 270.029 104.702 272.788 103.03 274.301C101.622 275.547 99.1588 275.814 98.3669 277.505C97.751 278.929 98.4549 280.709 97.751 282.132C96.9591 283.823 94.7595 283.912 93.0878 284.624C90.0083 285.959 88.4245 289.964 89.8323 293.079C90.0963 293.702 90.5362 294.325 91.1521 294.503C91.504 294.681 91.944 294.681 92.2959 294.681C96.0793 294.77 103.118 296.016 104.526 290.943Z" fill="#DAF2F0"/>
<path d="M83.0568 283.912C83.3208 284.446 83.2328 285.069 82.8808 285.514C82.2649 286.226 81.2971 285.692 80.4172 285.87C79.1854 286.048 78.3936 287.472 78.7455 288.718C79.0095 289.964 80.0653 290.854 81.2971 291.21C82.4409 291.566 83.6727 291.566 84.9045 291.566C85.4324 291.566 86.0483 291.566 86.2243 292.1C86.3123 292.278 86.3123 292.456 86.3123 292.634C85.8724 295.304 80.4172 292.456 78.6575 296.283C78.5695 296.372 78.5695 296.55 78.5695 296.639H94.8469C95.7267 294.859 96.3426 293.702 98.0144 292.367C99.8621 290.943 102.238 287.739 101.006 285.514C99.4221 282.844 94.6709 284.713 93.3511 286.671C92.5593 287.917 92.5593 289.608 91.3275 290.587C90.7995 291.032 90.0077 291.121 89.3918 290.765C88.7759 290.32 88.7759 289.697 88.9518 289.163C89.2158 287.739 90.1836 286.582 91.1515 285.514C92.1193 284.446 93.1752 283.467 93.879 282.222C94.5829 280.976 94.7589 279.285 93.967 278.128C93.1752 276.971 91.1515 276.615 90.3596 277.772C90.0077 278.217 89.7437 278.929 89.3918 279.552C89.0398 280.086 88.248 279.819 88.3359 279.196C88.7759 276.081 88.7759 271.364 85.9603 270.741C85.6964 270.652 85.4324 270.652 85.1685 270.741C83.8487 271.097 83.6727 272.877 83.9367 274.123C84.1126 275.013 84.4646 275.814 84.5526 276.704C84.5526 277.416 83.7607 277.861 83.2328 277.327C82.5289 276.615 82.7049 275.458 81.3851 274.568C79.5374 273.233 77.0738 275.458 77.3377 277.238C77.6017 278.662 78.6575 279.641 79.7134 280.531C81.0331 281.51 82.4409 282.4 83.0568 283.912Z" fill="#188F85"/>
<path d="M116.757 279.106H119.309C119.309 279.106 118.693 279.818 117.989 279.818C117.285 279.907 116.757 279.106 116.757 279.106Z" fill="#0D736A"/>
<path d="M117.989 278.395C118.693 278.395 119.309 279.106 119.309 279.106H116.757C116.757 279.106 117.285 278.395 117.989 278.395Z" fill="#188F85"/>
<path d="M115.613 279.729L117.812 281.064C117.812 281.064 116.933 281.42 116.317 280.975C115.701 280.708 115.613 279.729 115.613 279.729Z" fill="#0D736A"/>
<path d="M117.021 279.818C117.637 280.174 117.725 281.064 117.725 281.064L115.525 279.729C115.613 279.729 116.405 279.462 117.021 279.818Z" fill="#188F85"/>
<path d="M113.238 281.242L115.525 282.844C115.525 282.844 114.558 283.111 113.942 282.666C113.238 282.221 113.238 281.242 113.238 281.242Z" fill="#0D736A"/>
<path d="M114.822 281.42C115.437 281.865 115.525 282.933 115.525 282.933L113.238 281.331C113.238 281.242 114.206 280.975 114.822 281.42Z" fill="#188F85"/>
<path d="M111.126 282.755L113.502 284.268C113.502 284.268 112.534 284.624 111.918 284.179C111.214 283.734 111.126 282.755 111.126 282.755Z" fill="#0D736A"/>
<path d="M112.71 282.755C113.414 283.2 113.502 284.179 113.502 284.179L111.126 282.666C111.126 282.755 112.094 282.399 112.71 282.755Z" fill="#188F85"/>
<path d="M114.732 277.771L114.029 280.53C114.029 280.53 113.413 279.729 113.589 278.928C113.765 278.127 114.732 277.771 114.732 277.771Z" fill="#0D736A"/>
<path d="M115.085 279.285C114.909 280.085 113.941 280.441 113.941 280.441L114.645 277.683C114.733 277.772 115.349 278.573 115.085 279.285Z" fill="#188F85"/>
<path d="M112.623 278.928L112.095 281.776C112.095 281.776 111.391 280.975 111.567 280.263C111.655 279.462 112.623 278.928 112.623 278.928Z" fill="#0D736A"/>
<path d="M113.062 280.53C112.886 281.331 112.006 281.776 112.006 281.776L112.534 278.928C112.622 278.928 113.238 279.729 113.062 280.53Z" fill="#188F85"/>
<path d="M107.606 285.87L110.51 286.404C110.51 286.404 109.718 287.116 108.926 287.027C108.134 286.849 107.606 285.87 107.606 285.87Z" fill="#0D736A"/>
<path d="M109.19 285.336C109.982 285.514 110.51 286.404 110.51 286.404L107.606 285.87C107.606 285.87 108.398 285.158 109.19 285.336Z" fill="#188F85"/>
<path d="M106.023 287.917L108.398 288.985C108.398 288.985 107.607 289.43 106.903 289.074C106.287 288.807 106.023 287.917 106.023 287.917Z" fill="#0D736A"/>
<path d="M107.519 287.739C108.134 288.006 108.398 288.896 108.398 288.896L106.023 287.828C106.023 287.917 106.815 287.472 107.519 287.739Z" fill="#188F85"/>
<path d="M104.702 289.875L107.254 290.231C107.254 290.231 106.55 290.854 105.934 290.765C105.142 290.676 104.702 289.875 104.702 289.875Z" fill="#0D736A"/>
<path d="M106.022 289.341C106.726 289.43 107.166 290.231 107.166 290.231L104.614 289.875C104.702 289.875 105.318 289.163 106.022 289.341Z" fill="#188F85"/>
<path d="M101.096 295.481C101.888 293.702 102.944 292.1 104 290.409C105.056 288.807 106.288 287.294 107.519 285.781C108.839 284.357 110.247 283.022 111.743 281.865C112.535 281.242 113.326 280.797 114.118 280.263C114.998 279.819 115.79 279.374 116.758 279.018V279.107C115.878 279.463 114.998 279.908 114.206 280.352C113.414 280.797 112.535 281.331 111.831 281.954C110.335 283.111 108.927 284.446 107.607 285.87C106.376 287.294 105.144 288.807 104.088 290.498C103.032 292.1 102.064 293.791 101.272 295.481H101.096Z" fill="#084A44"/>
<path d="M71.2676 275.102L68.804 274.479C68.804 274.479 69.1559 275.28 69.8598 275.547C70.5637 275.636 71.2676 275.102 71.2676 275.102Z" fill="#0D736A"/>
<path d="M70.2118 274.034C69.5079 273.856 68.804 274.39 68.804 274.39L71.2676 275.013C71.2676 275.102 70.9156 274.301 70.2118 274.034Z" fill="#188F85"/>
<path d="M72.2363 275.992L69.7727 276.704C69.7727 276.704 70.5646 277.238 71.1805 277.06C71.8844 276.882 72.2363 275.992 72.2363 275.992Z" fill="#0D736A"/>
<path d="M70.8286 275.636C70.1247 275.814 69.7727 276.704 69.7727 276.704L72.2363 275.992C72.2363 275.992 71.4445 275.458 70.8286 275.636Z" fill="#188F85"/>
<path d="M74.1719 278.039L71.5323 279.018C71.5323 279.018 72.4122 279.551 73.116 279.284C73.8199 279.018 74.1719 278.039 74.1719 278.039Z" fill="#0D736A"/>
<path d="M72.5881 277.772C71.8842 278.039 71.5323 279.017 71.5323 279.017L74.1719 278.039C74.1719 278.039 73.292 277.505 72.5881 277.772Z" fill="#188F85"/>
<path d="M75.7539 279.997L73.0263 280.798C73.0263 280.798 73.8182 281.42 74.6101 281.153C75.402 280.976 75.7539 279.997 75.7539 279.997Z" fill="#0D736A"/>
<path d="M74.1702 279.641C73.4663 279.819 73.0263 280.798 73.0263 280.798L75.7539 279.997C75.7539 279.997 74.962 279.463 74.1702 279.641Z" fill="#188F85"/>
<path d="M73.5558 274.301V277.149C73.5558 277.149 74.3477 276.526 74.3477 275.725C74.3477 274.924 73.5558 274.301 73.5558 274.301Z" fill="#0D736A"/>
<path d="M72.7648 275.725C72.7648 276.526 73.5566 277.149 73.5566 277.149V274.301C73.5566 274.301 72.7648 274.924 72.7648 275.725Z" fill="#188F85"/>
<path d="M75.3156 275.992L75.1397 278.84C75.1397 278.84 75.9315 278.306 76.0195 277.505C76.0195 276.704 75.3156 275.992 75.3156 275.992Z" fill="#0D736A"/>
<path d="M74.4366 277.327C74.3486 278.128 75.1404 278.84 75.1404 278.84L75.3164 275.992C75.3164 275.992 74.5245 276.526 74.4366 277.327Z" fill="#188F85"/>
<path d="M78.3945 284.001L75.403 283.734C75.403 283.734 76.0189 284.624 76.8108 284.713C77.6027 284.802 78.3945 284.001 78.3945 284.001Z" fill="#0D736A"/>
<path d="M76.9868 283.022C76.1949 282.933 75.403 283.734 75.403 283.734L78.3945 284.001C78.3945 284.001 77.7786 283.111 76.9868 283.022Z" fill="#188F85"/>
<path d="M79.3613 286.315L76.8097 286.76C76.8097 286.76 77.5136 287.383 78.2175 287.294C78.9214 287.116 79.3613 286.315 79.3613 286.315Z" fill="#0D736A"/>
<path d="M78.0415 285.781C77.3376 285.87 76.8976 286.671 76.8976 286.671L79.4492 286.226C79.3612 286.315 78.6574 285.692 78.0415 285.781Z" fill="#188F85"/>
<path d="M80.1543 288.54L77.6027 288.184C77.6027 288.184 78.0426 288.985 78.7465 289.074C79.5384 289.163 80.1543 288.54 80.1543 288.54Z" fill="#0D736A"/>
<path d="M79.0104 287.65C78.3065 287.561 77.6906 288.184 77.6906 288.184L80.2422 288.54C80.1542 288.54 79.7143 287.739 79.0104 287.65Z" fill="#188F85"/>
<path d="M82.1777 294.947C81.8258 293.079 81.2979 291.21 80.682 289.341C80.0661 287.472 79.2742 285.692 78.4823 284.001C77.6025 282.31 76.5467 280.619 75.4029 279.107C74.787 278.306 74.171 277.594 73.4672 276.971C72.7633 276.259 72.0594 275.636 71.2675 275.102L71.1795 275.191C71.9714 275.725 72.6753 276.348 73.3792 277.06C74.0831 277.772 74.699 278.484 75.3149 279.196C76.4587 280.708 77.5145 282.399 78.3944 284.09C79.2742 285.781 79.9781 287.561 80.594 289.43C81.2099 291.299 81.7378 293.168 82.0898 295.036L82.1777 294.947Z" fill="#084A44"/>
<path d="M45.4879 213.696H69.332V211.026H48.1275V156.473H45.4879V213.696Z" fill="#188F85"/>
<path d="M92.0323 295.926H94.6719V231.406H70.7398V132.89H68.1002V234.076H92.0323V295.926Z" fill="#188F85"/>
<path d="M14.7799 159.855C14.7799 162.258 14.9559 164.661 15.3079 166.974H111.388C111.74 164.661 111.916 162.258 111.916 159.855C111.916 132.712 90.1836 110.73 63.348 110.73C36.5124 110.73 14.7799 132.712 14.7799 159.855Z" fill="#0D736A"/>
<path d="M6.42309 187.265C6.42309 189.223 6.59906 191.27 6.86301 193.139H86.402C86.402 193.05 86.402 192.961 86.402 192.872C86.6659 191.003 86.7539 189.134 86.7539 187.265C86.7539 165.461 69.8607 147.663 48.5682 146.684C47.9523 146.684 47.2484 146.595 46.6325 146.595C24.4601 146.595 6.42309 164.838 6.42309 187.265Z" fill="#188F85"/>
<g opacity="0.5">
<path opacity="0.5" d="M48.6544 146.684C62.732 147.396 74.8741 155.405 81.473 166.974H88.4238C81.473 154.693 68.4511 146.328 53.4936 146.328C51.8218 146.417 50.2381 146.506 48.6544 146.684Z" fill="#084A44"/>
</g>
<path d="M102.854 285.959C102.678 286.404 102.678 286.938 103.03 287.294C103.557 287.917 104.349 287.472 105.053 287.561C106.109 287.65 106.725 288.896 106.461 289.875C106.197 290.854 105.317 291.655 104.349 291.922C103.381 292.278 102.326 292.278 101.27 292.278C100.83 292.278 100.302 292.278 100.126 292.723C100.038 292.812 100.038 292.99 100.038 293.168C100.39 295.392 104.965 292.99 106.461 296.193C106.461 296.282 106.549 296.371 106.549 296.46H92.9112C92.2073 294.947 91.6794 293.968 90.2716 292.901C88.6879 291.744 86.7522 288.985 87.7201 287.205C89.0398 284.98 92.9992 286.582 94.143 288.184C94.8469 289.252 94.8469 290.676 95.8147 291.477C96.2547 291.833 96.9585 291.922 97.3985 291.566C97.8384 291.21 97.8384 290.676 97.7504 290.231C97.4865 289.074 96.6946 288.095 95.9027 287.205C95.1108 286.315 94.231 285.514 93.6151 284.446C93.0872 283.378 92.9112 282.043 93.5271 281.064C94.231 280.085 95.8147 279.818 96.5186 280.797C96.7826 281.153 97.0465 281.776 97.3105 282.31C97.5744 282.755 98.2783 282.488 98.1903 281.954C97.8384 279.285 97.8384 275.458 100.214 274.835C100.39 274.746 100.654 274.746 100.83 274.835C101.886 275.191 102.062 276.615 101.798 277.683C101.622 278.395 101.358 279.107 101.27 279.818C101.27 280.441 101.974 280.797 102.414 280.352C103.03 279.818 102.854 278.84 103.909 278.039C105.405 276.882 107.517 278.751 107.253 280.263C106.989 281.509 106.109 282.31 105.229 283.022C104.613 283.912 103.469 284.713 102.854 285.959Z" fill="#0D736A"/>
</g>
<g opacity="0.5" clip-path="url(#clip1_391_28223)">
<path d="M425.477 291.646C425.477 293.439 425.846 295.233 426.511 296.727H449.724C450.389 295.158 450.759 293.439 450.759 291.646C450.759 284.546 445.066 278.867 438.118 278.867C431.095 278.867 425.477 284.546 425.477 291.646Z" fill="#DAF2F0"/>
<path d="M391.988 292.841C391.988 294.261 392.284 295.532 392.801 296.727H410.543C411.061 295.532 411.356 294.187 411.356 292.841C411.356 287.461 406.995 283.052 401.672 283.052C396.276 283.052 391.988 287.461 391.988 292.841Z" fill="#DAF2F0"/>
<path d="M429.394 289.852C430.355 287.386 429.394 284.546 431.169 282.454C432.351 281.034 434.569 280.287 435.826 278.867C437.822 276.7 437.009 273.636 438.191 271.17C439.226 269.003 441.74 267.209 441.961 264.892C442.035 263.323 440.927 261.754 439.078 261.006C437.23 260.259 434.865 260.259 433.091 261.156C429.838 262.8 429.468 266.387 426.511 268.33C423.924 269.974 419.636 270.273 418.232 272.515C417.049 274.383 418.38 276.7 417.197 278.493C415.792 280.66 411.874 280.81 408.917 281.781C403.447 283.5 400.712 288.806 403.151 292.767C403.669 293.589 404.408 294.336 405.517 294.635C406.182 294.859 406.922 294.784 407.587 294.784C414.388 294.784 426.881 296.428 429.394 289.852Z" fill="#DAF2F0"/>
<path d="M408.178 291.87C407.734 290.3 408.178 288.432 407.291 287.087C406.699 286.19 405.664 285.667 405.073 284.77C404.112 283.351 404.481 281.408 403.964 279.764C403.447 278.344 402.264 277.223 402.19 275.728C402.116 274.757 402.707 273.71 403.52 273.187C404.408 272.664 405.516 272.739 406.33 273.262C407.882 274.308 408.03 276.625 409.434 277.895C410.617 278.941 412.687 279.166 413.352 280.586C413.87 281.781 413.278 283.276 413.87 284.472C414.535 285.891 416.383 285.966 417.788 286.564C420.375 287.685 421.706 291.048 420.523 293.663C420.301 294.186 419.932 294.71 419.414 294.859C419.118 295.008 418.749 295.008 418.453 295.008C415.274 295.083 409.36 296.129 408.178 291.87Z" fill="#DAF2F0"/>
<path d="M426.216 285.966C425.994 286.415 426.068 286.938 426.363 287.311C426.881 287.909 427.694 287.461 428.433 287.61C429.468 287.76 430.134 288.955 429.838 290.002C429.616 291.048 428.729 291.795 427.694 292.094C426.733 292.393 425.698 292.393 424.663 292.393C424.22 292.393 423.702 292.393 423.554 292.841C423.48 292.991 423.48 293.14 423.48 293.29C423.85 295.532 428.433 293.14 429.912 296.354C429.986 296.428 429.986 296.578 429.986 296.653H416.31C415.571 295.158 415.053 294.186 413.649 293.066C412.096 291.87 410.1 289.18 411.135 287.311C412.466 285.069 416.458 286.639 417.567 288.283C418.232 289.329 418.232 290.749 419.267 291.571C419.71 291.945 420.376 292.019 420.893 291.72C421.411 291.347 421.411 290.824 421.263 290.375C421.041 289.18 420.228 288.208 419.415 287.311C418.601 286.415 417.714 285.593 417.123 284.546C416.532 283.5 416.384 282.08 417.049 281.109C417.714 280.137 419.415 279.838 420.08 280.81C420.376 281.183 420.597 281.781 420.893 282.304C421.189 282.753 421.854 282.529 421.78 282.005C421.411 279.39 421.411 275.429 423.776 274.906C423.998 274.831 424.22 274.831 424.441 274.906C425.55 275.205 425.698 276.7 425.476 277.746C425.329 278.493 425.033 279.166 424.959 279.913C424.959 280.511 425.624 280.885 426.068 280.436C426.659 279.838 426.511 278.867 427.62 278.12C429.173 276.999 431.242 278.867 431.021 280.361C430.799 281.557 429.912 282.379 429.025 283.126C427.916 283.948 426.733 284.696 426.216 285.966Z" fill="#188F85"/>
<path d="M397.902 281.931H395.758C395.758 281.931 396.275 282.529 396.867 282.529C397.458 282.603 397.902 281.931 397.902 281.931Z" fill="#0D736A"/>
<path d="M396.867 281.333C396.275 281.333 395.758 281.931 395.758 281.931H397.902C397.902 281.931 397.458 281.333 396.867 281.333Z" fill="#188F85"/>
<path d="M398.862 282.454L397.014 283.575C397.014 283.575 397.753 283.874 398.27 283.5C398.788 283.276 398.862 282.454 398.862 282.454Z" fill="#0D736A"/>
<path d="M397.679 282.529C397.162 282.828 397.088 283.575 397.088 283.575L398.936 282.454C398.862 282.454 398.197 282.23 397.679 282.529Z" fill="#188F85"/>
<path d="M400.86 283.724L398.938 285.07C398.938 285.07 399.751 285.294 400.268 284.92C400.86 284.546 400.86 283.724 400.86 283.724Z" fill="#0D736A"/>
<path d="M399.529 283.874C399.011 284.248 398.938 285.144 398.938 285.144L400.86 283.799C400.86 283.724 400.046 283.5 399.529 283.874Z" fill="#188F85"/>
<path d="M402.633 284.995L400.637 286.265C400.637 286.265 401.45 286.564 401.967 286.19C402.559 285.817 402.633 284.995 402.633 284.995Z" fill="#0D736A"/>
<path d="M401.302 284.995C400.711 285.368 400.637 286.19 400.637 286.19L402.633 284.92C402.633 284.995 401.82 284.696 401.302 284.995Z" fill="#188F85"/>
<path d="M399.602 280.81L400.193 283.126C400.193 283.126 400.71 282.454 400.563 281.781C400.415 281.109 399.602 280.81 399.602 280.81Z" fill="#0D736A"/>
<path d="M399.307 282.08C399.455 282.753 400.268 283.052 400.268 283.052L399.676 280.735C399.603 280.81 399.085 281.482 399.307 282.08Z" fill="#188F85"/>
<path d="M401.377 281.781L401.82 284.173C401.82 284.173 402.412 283.5 402.264 282.902C402.19 282.23 401.377 281.781 401.377 281.781Z" fill="#0D736A"/>
<path d="M401.007 283.126C401.155 283.799 401.894 284.173 401.894 284.173L401.45 281.781C401.377 281.781 400.859 282.454 401.007 283.126Z" fill="#188F85"/>
<path d="M405.59 287.61L403.15 288.059C403.15 288.059 403.816 288.657 404.481 288.582C405.146 288.432 405.59 287.61 405.59 287.61Z" fill="#0D736A"/>
<path d="M404.259 287.162C403.594 287.311 403.15 288.059 403.15 288.059L405.59 287.61C405.59 287.61 404.925 287.012 404.259 287.162Z" fill="#188F85"/>
<path d="M406.92 289.329L404.924 290.226C404.924 290.226 405.589 290.6 406.181 290.301C406.698 290.076 406.92 289.329 406.92 289.329Z" fill="#0D736A"/>
<path d="M405.663 289.18C405.146 289.404 404.924 290.151 404.924 290.151L406.92 289.254C406.92 289.329 406.254 288.955 405.663 289.18Z" fill="#188F85"/>
<path d="M408.029 290.973L405.885 291.272C405.885 291.272 406.476 291.795 406.994 291.72C407.659 291.646 408.029 290.973 408.029 290.973Z" fill="#0D736A"/>
<path d="M406.92 290.525C406.329 290.599 405.959 291.272 405.959 291.272L408.103 290.973C408.029 290.973 407.511 290.375 406.92 290.525Z" fill="#188F85"/>
<path d="M411.061 295.681C410.395 294.186 409.508 292.841 408.621 291.421C407.734 290.076 406.699 288.806 405.664 287.535C404.555 286.34 403.373 285.219 402.116 284.247C401.451 283.724 400.785 283.351 400.12 282.902C399.381 282.529 398.716 282.155 397.902 281.856V281.931C398.642 282.23 399.381 282.603 400.046 282.977C400.711 283.351 401.451 283.799 402.042 284.322C403.299 285.294 404.482 286.414 405.59 287.61C406.625 288.806 407.66 290.076 408.547 291.496C409.434 292.841 410.248 294.261 410.913 295.681H411.061Z" fill="#084A44"/>
<path d="M436.119 278.568L438.189 278.045C438.189 278.045 437.893 278.717 437.302 278.941C436.711 279.016 436.119 278.568 436.119 278.568Z" fill="#0D736A"/>
<path d="M437.006 277.671C437.598 277.522 438.189 277.97 438.189 277.97L436.119 278.493C436.119 278.568 436.415 277.895 437.006 277.671Z" fill="#188F85"/>
<path d="M435.307 279.315L437.377 279.913C437.377 279.913 436.711 280.361 436.194 280.212C435.602 280.062 435.307 279.315 435.307 279.315Z" fill="#0D736A"/>
<path d="M436.489 279.016C437.081 279.166 437.377 279.913 437.377 279.913L435.307 279.315C435.307 279.315 435.972 278.867 436.489 279.016Z" fill="#188F85"/>
<path d="M433.68 281.034L435.897 281.856C435.897 281.856 435.158 282.304 434.567 282.08C433.975 281.856 433.68 281.034 433.68 281.034Z" fill="#0D736A"/>
<path d="M435.01 280.81C435.602 281.034 435.897 281.856 435.897 281.856L433.68 281.034C433.68 281.034 434.419 280.586 435.01 280.81Z" fill="#188F85"/>
<path d="M432.35 282.678L434.641 283.351C434.641 283.351 433.976 283.874 433.311 283.649C432.645 283.5 432.35 282.678 432.35 282.678Z" fill="#0D736A"/>
<path d="M433.68 282.379C434.272 282.529 434.641 283.351 434.641 283.351L432.35 282.678C432.35 282.678 433.015 282.23 433.68 282.379Z" fill="#188F85"/>
<path d="M434.199 277.895V280.287C434.199 280.287 433.533 279.764 433.533 279.091C433.533 278.418 434.199 277.895 434.199 277.895Z" fill="#0D736A"/>
<path d="M434.865 279.091C434.865 279.764 434.199 280.287 434.199 280.287V277.895C434.199 277.895 434.865 278.418 434.865 279.091Z" fill="#188F85"/>
<path d="M432.718 279.315L432.866 281.707C432.866 281.707 432.201 281.258 432.127 280.586C432.127 279.913 432.718 279.315 432.718 279.315Z" fill="#0D736A"/>
<path d="M433.458 280.436C433.532 281.109 432.867 281.707 432.867 281.707L432.719 279.315C432.719 279.315 433.384 279.764 433.458 280.436Z" fill="#188F85"/>
<path d="M430.133 286.041L432.646 285.817C432.646 285.817 432.129 286.564 431.463 286.639C430.798 286.714 430.133 286.041 430.133 286.041Z" fill="#0D736A"/>
<path d="M431.316 285.219C431.981 285.144 432.646 285.817 432.646 285.817L430.133 286.041C430.133 286.041 430.65 285.294 431.316 285.219Z" fill="#188F85"/>
<path d="M429.318 287.984L431.462 288.358C431.462 288.358 430.871 288.881 430.279 288.806C429.688 288.656 429.318 287.984 429.318 287.984Z" fill="#0D736A"/>
<path d="M430.427 287.535C431.018 287.61 431.388 288.283 431.388 288.283L429.244 287.909C429.318 287.984 429.909 287.461 430.427 287.535Z" fill="#188F85"/>
<path d="M428.654 289.852L430.798 289.553C430.798 289.553 430.428 290.226 429.837 290.301C429.172 290.375 428.654 289.852 428.654 289.852Z" fill="#0D736A"/>
<path d="M429.615 289.105C430.206 289.03 430.724 289.553 430.724 289.553L428.58 289.852C428.654 289.852 429.024 289.179 429.615 289.105Z" fill="#188F85"/>
<path d="M426.953 295.233C427.249 293.663 427.692 292.094 428.21 290.525C428.727 288.955 429.393 287.461 430.058 286.041C430.797 284.621 431.684 283.201 432.645 281.931C433.163 281.258 433.68 280.66 434.272 280.137C434.863 279.539 435.454 279.016 436.12 278.568L436.194 278.643C435.528 279.091 434.937 279.614 434.346 280.212C433.754 280.81 433.237 281.408 432.719 282.005C431.758 283.276 430.871 284.696 430.132 286.116C429.393 287.535 428.801 289.03 428.284 290.599C427.766 292.169 427.323 293.738 427.027 295.307L426.953 295.233Z" fill="#084A44"/>
<path d="M457.781 227.004H437.748V224.762H455.564V178.953H457.781V227.004Z" fill="#188F85"/>
<path d="M418.675 296.055H416.457V241.875H436.564V159.149H438.782V244.117H418.675V296.055Z" fill="#188F85"/>
<path d="M483.581 181.792C483.581 183.81 483.433 185.828 483.137 187.771H402.412C402.117 185.828 401.969 183.81 401.969 181.792C401.969 159 420.228 140.542 442.775 140.542C465.322 140.542 483.581 159 483.581 181.792Z" fill="#0D736A"/>
<path d="M490.602 204.809C490.602 206.453 490.454 208.172 490.232 209.742H423.405C423.405 209.667 423.405 209.592 423.405 209.517C423.183 207.948 423.109 206.379 423.109 204.809C423.109 186.5 437.303 171.554 455.192 170.732C455.71 170.732 456.301 170.658 456.819 170.658C475.448 170.658 490.602 185.977 490.602 204.809Z" fill="#188F85"/>
<g opacity="0.5">
<path opacity="0.5" d="M455.119 170.733C443.291 171.33 433.089 178.056 427.545 187.771H421.705C427.545 177.458 438.486 170.434 451.053 170.434C452.457 170.508 453.788 170.583 455.119 170.733Z" fill="#084A44"/>
</g>
<path d="M409.582 287.685C409.73 288.059 409.73 288.507 409.434 288.806C408.991 289.329 408.326 288.955 407.734 289.03C406.847 289.105 406.33 290.151 406.551 290.973C406.773 291.795 407.512 292.468 408.326 292.692C409.139 292.991 410.026 292.991 410.913 292.991C411.283 292.991 411.726 292.991 411.874 293.364C411.948 293.439 411.948 293.589 411.948 293.738C411.652 295.606 407.808 293.589 406.551 296.279C406.551 296.354 406.478 296.428 406.478 296.503H417.936C418.527 295.233 418.971 294.411 420.153 293.514C421.484 292.542 423.11 290.226 422.297 288.731C421.188 286.863 417.862 288.208 416.901 289.553C416.309 290.45 416.309 291.646 415.496 292.318C415.127 292.617 414.535 292.692 414.166 292.393C413.796 292.094 413.796 291.646 413.87 291.272C414.092 290.3 414.757 289.478 415.422 288.731C416.088 287.984 416.827 287.311 417.344 286.414C417.788 285.518 417.936 284.397 417.418 283.575C416.827 282.753 415.496 282.529 414.905 283.351C414.683 283.649 414.461 284.173 414.24 284.621C414.018 284.995 413.426 284.77 413.5 284.322C413.796 282.08 413.796 278.867 411.8 278.344C411.652 278.269 411.43 278.269 411.283 278.344C410.395 278.643 410.248 279.838 410.469 280.735C410.617 281.333 410.839 281.931 410.913 282.529C410.913 283.052 410.322 283.351 409.952 282.977C409.434 282.529 409.582 281.706 408.695 281.034C407.439 280.062 405.664 281.632 405.886 282.902C406.108 283.948 406.847 284.621 407.586 285.219C408.104 285.966 409.065 286.639 409.582 287.685Z" fill="#0D736A"/>
</g>
<path d="M332.322 227.954H259.48C256.568 227.954 254.182 225.574 254.182 222.671V111.147C254.182 108.243 256.568 105.864 259.48 105.864H332.322C335.234 105.864 337.621 108.243 337.621 111.147V222.671C337.621 225.574 335.234 227.954 332.322 227.954Z" fill="#6D7CC9"/>
<path d="M330.652 127.569H283.061C281.486 127.569 280.197 126.284 280.197 124.713V113.384C280.197 111.813 281.486 110.528 283.061 110.528H330.652C332.227 110.528 333.516 111.813 333.516 113.384V124.713C333.516 126.284 332.227 127.569 330.652 127.569Z" fill="#EBEFF5"/>
<path d="M272.941 115.05H259.718C258.955 115.05 258.334 114.431 258.334 113.67V112.765C258.334 112.004 258.955 111.385 259.718 111.385H272.941C273.704 111.385 274.325 112.004 274.325 112.765V113.67C274.325 114.431 273.704 115.05 272.941 115.05Z" fill="#EBEFF5"/>
<path d="M272.941 120.572H259.718C258.955 120.572 258.334 119.953 258.334 119.191V118.287C258.334 117.525 258.955 116.906 259.718 116.906H272.941C273.704 116.906 274.325 117.525 274.325 118.287V119.239C274.325 120 273.704 120.572 272.941 120.572Z" fill="#EBEFF5"/>
<path d="M272.941 126.141H259.718C258.955 126.141 258.334 125.522 258.334 124.76V123.856C258.334 123.094 258.955 122.476 259.718 122.476H272.941C273.704 122.476 274.325 123.094 274.325 123.856V124.76C274.325 125.522 273.704 126.141 272.941 126.141Z" fill="#CCA5E8"/>
<path d="M298.002 209.01H294.278C294.04 209.01 293.896 208.867 293.896 208.725C293.896 208.582 294.087 208.439 294.278 208.439H298.002C298.24 208.439 298.383 208.582 298.383 208.725C298.383 208.867 298.193 209.01 298.002 209.01Z" fill="#CCA5E8"/>
<path d="M298.002 210.057H294.278C294.04 210.057 293.896 209.914 293.896 209.772C293.896 209.629 294.087 209.486 294.278 209.486H298.002C298.24 209.486 298.383 209.629 298.383 209.772C298.383 209.914 298.193 210.057 298.002 210.057Z" fill="#CCA5E8"/>
<path d="M254.803 131.091H337.24" stroke="#EBEFF5" stroke-miterlimit="10"/>
<path d="M330.652 151.701H283.061C281.486 151.701 280.197 150.416 280.197 148.845V137.517C280.197 135.946 281.486 134.661 283.061 134.661H330.652C332.227 134.661 333.516 135.946 333.516 137.517V148.845C333.516 150.416 332.227 151.701 330.652 151.701Z" fill="#EBEFF5"/>
<path d="M272.941 139.135H259.718C258.955 139.135 258.334 138.516 258.334 137.755V136.85C258.334 136.089 258.955 135.47 259.718 135.47H272.941C273.704 135.47 274.325 136.089 274.325 136.85V137.755C274.325 138.564 273.704 139.135 272.941 139.135Z" fill="#EBEFF5"/>
<path d="M272.941 144.704H259.718C258.955 144.704 258.334 144.085 258.334 143.324V142.419C258.334 141.658 258.955 141.039 259.718 141.039H272.941C273.704 141.039 274.325 141.658 274.325 142.419V143.324C274.325 144.085 273.704 144.704 272.941 144.704Z" fill="#EBEFF5"/>
<path d="M272.941 150.273H259.718C258.955 150.273 258.334 149.654 258.334 148.893V147.989C258.334 147.227 258.955 146.608 259.718 146.608H272.941C273.704 146.608 274.325 147.227 274.325 147.989V148.893C274.325 149.654 273.704 150.273 272.941 150.273Z" fill="#CCA5E8"/>
<path d="M254.803 155.223H337.24" stroke="#EBEFF5" stroke-miterlimit="10"/>
<path d="M330.652 175.834H283.061C281.486 175.834 280.197 174.549 280.197 172.978V161.649C280.197 160.079 281.486 158.793 283.061 158.793H330.652C332.227 158.793 333.516 160.079 333.516 161.649V172.978C333.516 174.549 332.227 175.834 330.652 175.834Z" fill="#EBEFF5"/>
<path d="M272.941 163.268H259.718C258.955 163.268 258.334 162.649 258.334 161.887V160.983C258.334 160.221 258.955 159.603 259.718 159.603H272.941C273.704 159.603 274.325 160.221 274.325 160.983V161.887C274.325 162.649 273.704 163.268 272.941 163.268Z" fill="#EBEFF5"/>
<path d="M272.941 168.837H259.718C258.955 168.837 258.334 168.218 258.334 167.456V166.552C258.334 165.79 258.955 165.172 259.718 165.172H272.941C273.704 165.172 274.325 165.79 274.325 166.552V167.456C274.325 168.218 273.704 168.837 272.941 168.837Z" fill="#EBEFF5"/>
<path d="M272.941 174.406H259.718C258.955 174.406 258.334 173.787 258.334 173.025V172.121C258.334 171.36 258.955 170.741 259.718 170.741H272.941C273.704 170.741 274.325 171.36 274.325 172.121V173.025C274.325 173.787 273.704 174.406 272.941 174.406Z" fill="#CCA5E8"/>
<path d="M254.803 179.308H337.24" stroke="#EBEFF5" stroke-miterlimit="10"/>
<path d="M330.652 199.919H283.061C281.486 199.919 280.197 198.634 280.197 197.063V185.734C280.197 184.164 281.486 182.878 283.061 182.878H330.652C332.227 182.878 333.516 184.164 333.516 185.734V197.063C333.516 198.634 332.227 199.919 330.652 199.919Z" fill="#EBEFF5"/>
<path d="M272.941 187.4H259.718C258.955 187.4 258.334 186.781 258.334 186.02V185.115C258.334 184.354 258.955 183.735 259.718 183.735H272.941C273.704 183.735 274.325 184.354 274.325 185.115V186.02C274.325 186.781 273.704 187.4 272.941 187.4Z" fill="#EBEFF5"/>
<path d="M272.941 192.969H259.718C258.955 192.969 258.334 192.351 258.334 191.589V190.685C258.334 189.923 258.955 189.304 259.718 189.304H272.941C273.704 189.304 274.325 189.923 274.325 190.685V191.589C274.325 192.351 273.704 192.969 272.941 192.969Z" fill="#EBEFF5"/>
<path d="M272.941 198.491H259.718C258.955 198.491 258.334 197.872 258.334 197.11V196.206C258.334 195.444 258.955 194.826 259.718 194.826H272.941C273.704 194.826 274.325 195.444 274.325 196.206V197.11C274.325 197.92 273.704 198.491 272.941 198.491Z" fill="#CCA5E8"/>
<path d="M254.803 203.441H337.24" stroke="#EBEFF5" stroke-miterlimit="10"/>
<path d="M330.65 224.051H283.059C281.484 224.051 280.195 222.766 280.195 221.195V209.867C280.195 208.296 281.484 207.011 283.059 207.011H330.65C332.226 207.011 333.514 208.296 333.514 209.867V221.195C333.514 222.766 332.226 224.051 330.65 224.051Z" fill="#EBEFF5"/>
<path d="M272.941 211.533H259.718C258.955 211.533 258.334 210.914 258.334 210.152V209.248C258.334 208.486 258.955 207.868 259.718 207.868H272.941C273.704 207.868 274.325 208.486 274.325 209.248V210.152C274.325 210.914 273.704 211.533 272.941 211.533Z" fill="#EBEFF5"/>
<path d="M272.941 217.054H259.718C258.955 217.054 258.334 216.435 258.334 215.674V214.77C258.334 214.008 258.955 213.389 259.718 213.389H272.941C273.704 213.389 274.325 214.008 274.325 214.77V215.674C274.325 216.483 273.704 217.054 272.941 217.054Z" fill="#EBEFF5"/>
<path d="M272.941 222.623H259.718C258.955 222.623 258.334 222.005 258.334 221.243V220.339C258.334 219.577 258.955 218.958 259.718 218.958H272.941C273.704 218.958 274.325 219.577 274.325 220.339V221.243C274.325 222.005 273.704 222.623 272.941 222.623Z" fill="#CCA5E8"/>
<path d="M243.475 227.954H170.632C167.721 227.954 165.334 225.574 165.334 222.671V111.147C165.334 108.243 167.721 105.864 170.632 105.864H243.475C246.387 105.864 248.773 108.243 248.773 111.147V222.671C248.773 225.574 246.387 227.954 243.475 227.954Z" fill="#80BED9"/>
<path d="M241.805 127.569H194.214C192.638 127.569 191.35 126.284 191.35 124.713V113.384C191.35 111.813 192.638 110.528 194.214 110.528H241.805C243.38 110.528 244.669 111.813 244.669 113.384V124.713C244.669 126.284 243.38 127.569 241.805 127.569Z" fill="#EBEFF5"/>
<path d="M184.093 115.05H170.871C170.107 115.05 169.486 114.431 169.486 113.67V112.765C169.486 112.004 170.107 111.385 170.871 111.385H184.093C184.857 111.385 185.477 112.004 185.477 112.765V113.67C185.477 114.431 184.857 115.05 184.093 115.05Z" fill="#EBEFF5"/>
<path d="M184.093 120.572H170.871C170.107 120.572 169.486 119.953 169.486 119.191V118.287C169.486 117.525 170.107 116.906 170.871 116.906H184.093C184.857 116.906 185.477 117.525 185.477 118.287V119.239C185.477 120 184.857 120.572 184.093 120.572Z" fill="#EBEFF5"/>
<path d="M184.093 126.141H170.871C170.107 126.141 169.486 125.522 169.486 124.76V123.856C169.486 123.094 170.107 122.476 170.871 122.476H184.093C184.857 122.476 185.477 123.094 185.477 123.856V124.76C185.477 125.522 184.857 126.141 184.093 126.141Z" fill="#80BED9"/>
<path d="M209.154 209.01H205.431C205.192 209.01 205.049 208.867 205.049 208.725C205.049 208.582 205.24 208.439 205.431 208.439H209.154C209.393 208.439 209.536 208.582 209.536 208.725C209.536 208.867 209.345 209.01 209.154 209.01Z" fill="#80BED9"/>
<path d="M209.154 210.057H205.431C205.192 210.057 205.049 209.914 205.049 209.772C205.049 209.629 205.24 209.486 205.431 209.486H209.154C209.393 209.486 209.536 209.629 209.536 209.772C209.536 209.914 209.345 210.057 209.154 210.057Z" fill="#80BED9"/>
<path d="M165.955 131.091H248.392" stroke="#EBEFF5" stroke-miterlimit="10"/>
<path d="M241.805 151.701H194.214C192.638 151.701 191.35 150.416 191.35 148.845V137.517C191.35 135.946 192.638 134.661 194.214 134.661H241.805C243.38 134.661 244.669 135.946 244.669 137.517V148.845C244.669 150.416 243.38 151.701 241.805 151.701Z" fill="#EBEFF5"/>
<path d="M184.093 139.135H170.871C170.107 139.135 169.486 138.516 169.486 137.755V136.85C169.486 136.089 170.107 135.47 170.871 135.47H184.093C184.857 135.47 185.477 136.089 185.477 136.85V137.755C185.477 138.564 184.857 139.135 184.093 139.135Z" fill="#EBEFF5"/>
<path d="M184.093 144.704H170.871C170.107 144.704 169.486 144.085 169.486 143.324V142.419C169.486 141.658 170.107 141.039 170.871 141.039H184.093C184.857 141.039 185.477 141.658 185.477 142.419V143.324C185.477 144.085 184.857 144.704 184.093 144.704Z" fill="#EBEFF5"/>
<path d="M184.093 150.273H170.871C170.107 150.273 169.486 149.654 169.486 148.893V147.989C169.486 147.227 170.107 146.608 170.871 146.608H184.093C184.857 146.608 185.477 147.227 185.477 147.989V148.893C185.477 149.654 184.857 150.273 184.093 150.273Z" fill="#80BED9"/>
<path d="M165.955 155.223H248.392" stroke="#EBEFF5" stroke-miterlimit="10"/>
<path d="M241.805 175.834H194.214C192.638 175.834 191.35 174.549 191.35 172.978V161.649C191.35 160.079 192.638 158.793 194.214 158.793H241.805C243.38 158.793 244.669 160.079 244.669 161.649V172.978C244.669 174.549 243.38 175.834 241.805 175.834Z" fill="#EBEFF5"/>
<path d="M184.093 163.268H170.871C170.107 163.268 169.486 162.649 169.486 161.887V160.983C169.486 160.221 170.107 159.603 170.871 159.603H184.093C184.857 159.603 185.477 160.221 185.477 160.983V161.887C185.477 162.649 184.857 163.268 184.093 163.268Z" fill="#EBEFF5"/>
<path d="M184.093 168.837H170.871C170.107 168.837 169.486 168.218 169.486 167.456V166.552C169.486 165.79 170.107 165.172 170.871 165.172H184.093C184.857 165.172 185.477 165.79 185.477 166.552V167.456C185.477 168.218 184.857 168.837 184.093 168.837Z" fill="#EBEFF5"/>
<path d="M184.093 174.406H170.871C170.107 174.406 169.486 173.787 169.486 173.025V172.121C169.486 171.36 170.107 170.741 170.871 170.741H184.093C184.857 170.741 185.477 171.36 185.477 172.121V173.025C185.477 173.787 184.857 174.406 184.093 174.406Z" fill="#80BED9"/>
<path d="M165.955 179.308H248.392" stroke="#EBEFF5" stroke-miterlimit="10"/>
<path d="M241.805 199.919H194.214C192.638 199.919 191.35 198.634 191.35 197.063V185.734C191.35 184.164 192.638 182.878 194.214 182.878H241.805C243.38 182.878 244.669 184.164 244.669 185.734V197.063C244.669 198.634 243.38 199.919 241.805 199.919Z" fill="#EBEFF5"/>
<path d="M184.093 187.4H170.871C170.107 187.4 169.486 186.781 169.486 186.02V185.115C169.486 184.354 170.107 183.735 170.871 183.735H184.093C184.857 183.735 185.477 184.354 185.477 185.115V186.02C185.477 186.781 184.857 187.4 184.093 187.4Z" fill="#EBEFF5"/>
<path d="M184.093 192.969H170.871C170.107 192.969 169.486 192.351 169.486 191.589V190.685C169.486 189.923 170.107 189.304 170.871 189.304H184.093C184.857 189.304 185.477 189.923 185.477 190.685V191.589C185.477 192.351 184.857 192.969 184.093 192.969Z" fill="#EBEFF5"/>
<path d="M184.093 198.491H170.871C170.107 198.491 169.486 197.872 169.486 197.11V196.206C169.486 195.444 170.107 194.826 170.871 194.826H184.093C184.857 194.826 185.477 195.444 185.477 196.206V197.11C185.477 197.92 184.857 198.491 184.093 198.491Z" fill="#80BED9"/>
<path d="M165.955 203.441H248.392" stroke="#EBEFF5" stroke-miterlimit="10"/>
<path d="M241.803 224.051H194.212C192.636 224.051 191.348 222.766 191.348 221.195V209.867C191.348 208.296 192.636 207.011 194.212 207.011H241.803C243.378 207.011 244.667 208.296 244.667 209.867V221.195C244.667 222.766 243.378 224.051 241.803 224.051Z" fill="#EBEFF5"/>
<path d="M184.093 211.533H170.871C170.107 211.533 169.486 210.914 169.486 210.152V209.248C169.486 208.486 170.107 207.868 170.871 207.868H184.093C184.857 207.868 185.477 208.486 185.477 209.248V210.152C185.477 210.914 184.857 211.533 184.093 211.533Z" fill="#EBEFF5"/>
<path d="M184.093 217.054H170.871C170.107 217.054 169.486 216.435 169.486 215.674V214.77C169.486 214.008 170.107 213.389 170.871 213.389H184.093C184.857 213.389 185.477 214.008 185.477 214.77V215.674C185.477 216.483 184.857 217.054 184.093 217.054Z" fill="#EBEFF5"/>
<path d="M184.093 222.623H170.871C170.107 222.623 169.486 222.005 169.486 221.243V220.339C169.486 219.577 170.107 218.958 170.871 218.958H184.093C184.857 218.958 185.477 219.577 185.477 220.339V221.243C185.477 222.005 184.857 222.623 184.093 222.623Z" fill="#80BED9"/>
<g clip-path="url(#clip2_391_28223)">
<path d="M132.145 224.078L132.109 228.574L132.11 228.844C131.198 230.924 131.794 231.5 131.917 234.277C131.922 234.374 131.956 234.471 132.016 234.565L132.159 238.208C132.115 238.343 132.106 238.64 132.431 238.747C132.755 238.854 132.925 238.611 132.97 238.476L133.134 235.353C133.224 235.392 133.097 235.289 133.195 235.323L133.378 239.959C133.423 240.049 133.649 240.498 133.918 240.362C134.223 240.209 134.322 240.047 134.322 239.822L134.399 235.598C134.469 235.605 134.387 235.564 134.458 235.568L134.685 240.913C134.66 241.087 134.859 241.426 135.135 241.439C135.412 241.452 135.764 241.045 135.629 240.775L135.778 235.374C135.949 235.342 135.821 235.336 135.886 235.32L135.937 238.334L136.043 239.631L136.043 239.631C136.134 239.811 136.275 240.092 136.481 240.086C136.907 240.074 136.84 239.681 136.884 239.546L136.991 234.444C137.018 234.262 137.022 234.034 137.005 233.743C137.367 234.462 137.685 235.766 138.225 236.169C138.419 236.314 138.9 236.168 139.169 236.032L138.627 234.954C138.533 234.507 138.129 233.207 137.812 232.662C137.496 232.117 137.042 231.518 136.787 231.152C136.581 230.44 136.303 229.91 136.186 229.428C136.186 229.428 136.04 225.226 136.498 224.928L132.145 224.078Z" fill="#7C5957"/>
<path d="M140.483 191.096L137.171 210.325L136.698 228.997C136.698 228.997 135.483 230.039 133.878 229.733C132.272 229.427 131.576 228.597 131.576 228.597L130.137 210.681L133.524 189.932C133.829 188.327 135.144 187.093 136.769 187.034C139.105 186.836 140.902 188.873 140.483 191.096Z" fill="#CC8304"/>
</g>
<g clip-path="url(#clip3_391_28223)">
<path d="M122.431 270.832C122.431 270.832 120.38 277.66 123.698 288.053L125.267 300.199L130.214 301.287L132.205 274.578L122.431 270.832Z" fill="#FADFDC"/>
<path d="M125.086 299.595C125.086 299.595 126.353 300.38 128.525 300.501C130.697 300.683 130.637 298.809 130.637 298.809L140.049 302.314C140.049 302.314 140.773 304.489 138.239 305.154C135.765 305.819 129.129 304.973 129.129 304.973L124.483 304.852C124.543 304.912 124 301.952 125.086 299.595Z" fill="#42403C"/>
<path d="M122.011 272.584C123.459 273.068 125.691 273.793 128.526 274.397C129.793 274.699 131.241 274.941 132.75 275.183C133.051 275.243 133.353 275.303 133.655 275.303L140.352 229.561C131.603 229.44 124.364 229.561 124.364 229.561C124.424 232.703 124.122 236.026 124.545 240.498C124.967 244.969 122.252 270.953 122.011 272.584Z" fill="#968C7B"/>
<path d="M138.602 275.364C138.602 275.364 138.361 275.968 138.421 279.896C138.481 283.884 142.101 301.891 142.101 301.891L146.928 302.677L148.014 274.88L138.602 275.364Z" fill="#FADFDC"/>
<path d="M128.767 229.561C132.689 244.667 133.232 248.232 133.715 250.649L136.188 275.666C138.058 275.847 140.11 275.968 142.161 275.908C143.187 275.908 144.273 275.847 145.298 275.726C146.927 275.606 147.893 275.183 148.496 275.062C149.763 264.548 149.039 238.564 148.074 229.561H128.767Z" fill="#C9BEAB"/>
<path d="M141.557 300.139C141.557 300.139 142.824 300.924 144.996 301.045C147.168 301.226 147.108 299.353 147.108 299.353L156.58 302.858C156.58 302.858 157.304 305.033 154.77 305.698C152.296 306.363 145.66 305.517 145.66 305.517L141.014 305.396C141.014 305.396 140.471 302.435 141.557 300.139Z" fill="#42403C"/>
</g>
<g clip-path="url(#clip4_391_28223)">
<path d="M132.812 188.206C135.369 189.669 138.367 190.001 141.142 189.202L142.027 188.94C141.923 188.464 141.387 186.574 140.867 184.865C140.856 184.744 140.791 184.69 140.78 184.57C140.342 183.095 139.987 181.855 139.987 181.855L134.726 179.972L132.781 179.24C132.786 179.301 133.049 180.852 133.131 181.087C133.996 185.25 132.812 188.206 132.812 188.206Z" fill="#FADFDC"/>
<path d="M133.081 181.213C134.48 183.266 139.162 184.778 141.145 185.263C141.134 185.143 141.063 185.028 141.052 184.908C140.603 183.313 140.237 181.953 140.237 181.953L134.473 179.874C133.211 179.989 132.518 180.355 133.081 181.213Z" fill="#664646" fill-opacity="0.6"/>
<path d="M142.652 183.187C142.652 183.187 136.245 185.347 132.562 180.836C129.092 176.669 126.872 169.6 132.289 167.227C137.762 164.788 140.237 168.016 141.341 170.157C142.735 172.817 142.652 183.187 142.652 183.187Z" fill="#FADFDC"/>
</g>
<g clip-path="url(#clip5_391_28223)">
<path d="M122.371 232.96C123.577 238.21 143.909 240.563 149.158 235.736C149.762 235.193 149.038 227.348 148.796 223.969C148.374 217.271 146.926 207.193 146.866 202.064C146.866 199.59 146.504 197.056 146.021 194.702C145.478 192.047 144.754 189.694 144.211 188.125C143.728 186.737 142.642 185.711 141.255 185.289C138.238 184.444 132.205 183.418 132.205 183.418C132.205 183.418 121.948 230.969 122.371 232.96Z" fill="#4A5AA8"/>
<path opacity="0.1" d="M137.454 198.082C136.121 198.082 135.041 197.001 135.041 195.668C135.041 194.335 136.121 193.254 137.454 193.254C138.787 193.254 139.867 194.335 139.867 195.668C139.867 197.001 138.787 198.082 137.454 198.082Z" fill="#EBEFF5"/>
</g>
<g clip-path="url(#clip6_391_28223)">
<path d="M133.553 195.138C133.889 198.142 139.293 213.936 140.191 216.126L156.039 222.379L156.286 222.487C157.822 224.161 158.589 223.847 161.18 224.853C161.271 224.888 161.373 224.895 161.484 224.878L164.875 226.214C164.981 226.31 165.249 226.437 165.478 226.183C165.706 225.93 165.552 225.676 165.447 225.581L162.656 224.172C162.727 224.105 162.582 224.18 162.652 224.104L166.968 225.805C167.069 225.799 167.571 225.774 167.555 225.472C167.538 225.131 167.429 224.975 167.223 224.885L163.389 223.113C163.424 223.052 163.353 223.11 163.385 223.047L168.368 224.993C168.517 225.086 168.908 225.04 169.031 224.792C169.154 224.544 168.924 224.058 168.622 224.073L163.74 221.76C163.78 221.591 163.723 221.706 163.734 221.64L166.512 222.807L167.742 223.233C167.943 223.222 168.258 223.206 168.335 223.015C168.496 222.62 168.109 222.523 168.003 222.428L163.377 220.275C163.221 220.178 163.014 220.082 162.742 219.98C163.545 219.939 164.866 220.173 165.453 219.84C165.663 219.721 165.724 219.222 165.708 218.921L164.503 218.983C164.056 218.89 162.704 218.736 162.077 218.806C161.451 218.875 160.72 219.05 160.282 219.136C159.548 219.037 158.952 219.078 158.462 218.992C158.462 218.992 145.298 212.056 145.21 211.517C145.034 210.438 142.512 200.175 141.114 194.144C139.808 188.713 133.849 189.141 133.592 194.713C133.538 194.837 133.547 195.017 133.553 195.138Z" fill="#FADFDC"/>
<path d="M132.851 196.745C133.071 198.667 135.553 204.642 137.098 210.001C137.098 210.001 138.863 210.272 140.779 209.932C142.695 209.592 144.627 208.405 144.627 208.405C143.814 204.338 142.276 199.1 141.329 194.798C139.949 187.92 133.029 188.458 132.789 195.54C132.738 195.724 132.851 196.745 132.851 196.745Z" fill="#42403C"/>
</g>
<g clip-path="url(#clip7_391_28223)">
<path d="M126.58 174.953C126.189 175.588 125.994 176.307 126.115 177.092C126.357 178.663 127.74 179.713 129.333 179.755C129.3 179.933 129.326 180.101 129.36 180.325C129.524 181.391 130.557 182.151 131.758 182.023C131.981 182.678 132.715 183.082 133.43 182.972C134.265 182.843 134.281 182.152 134.16 181.366C134.151 181.31 134.151 181.31 134.143 181.254C134.134 181.198 134.125 181.142 134.117 181.086C134.108 181.03 133.749 180.224 134.099 180.974C133.303 178.971 129.945 174.607 132.364 174.062C134.484 173.563 135.487 176.108 135.487 176.108L134.913 170.798L133.857 171.075L137.358 170.421C137.358 170.421 139.275 170.183 141.096 169.328C142.74 168.903 143.793 167.42 143.552 165.849C143.292 164.166 141.654 163.04 139.865 163.315C139.328 163.398 138.869 163.584 138.426 163.882C137.572 163.094 136.488 161.998 134.282 162.338C132.493 162.613 130.833 163.329 130.331 164.038C129.76 163.896 129.138 163.819 128.542 163.911C126.335 164.251 124.806 166.21 125.125 168.285C125.212 168.846 125.417 169.389 125.725 169.801C124.908 170.444 124.399 171.499 124.564 172.564C124.796 173.677 125.539 174.539 126.58 174.953Z" fill="#C9BEAB"/>
</g>
<g clip-path="url(#clip8_391_28223)">
<path d="M350.601 188.082L347.238 182.5L345.07 177.199L340.405 175.001C340.405 175.001 339.581 175.434 339.386 176.063C339.191 176.692 339.721 177.173 339.721 177.173L343.191 180.273L342.934 181.974C342.934 181.974 341.583 180.8 340.674 180.618C339.879 180.488 339.564 180.953 339.468 181.296C339.417 181.411 339.481 181.576 339.596 181.627C339.826 181.729 340.174 181.937 340.468 182.205C340.763 182.472 340.95 182.857 341.244 183.125C341.597 183.446 341.95 183.767 342.068 183.874C342.418 184.138 343.018 184.898 343.7 185.034C344.326 185.173 344.895 185.315 344.895 185.315L346.841 189.501C346.841 189.501 348.82 189.688 349.371 189.436C349.922 189.184 350.601 188.082 350.601 188.082Z" fill="#7C5957"/>
<path d="M374.372 198.993C379.526 199.648 379.683 205.271 374.54 206.023C374.427 206.029 374.259 206.037 374.146 206.042C369.265 206.388 353.98 203.404 351.773 201.989L343.716 186.554C343.716 186.554 344.318 185.005 346.155 184.579C347.992 184.153 349.046 185.004 349.046 185.004L356.353 196.534C356.353 196.534 368.651 198.254 374.372 198.993Z" fill="#4288A6"/>
<path d="M345.146 189.357L352.49 201.673C352.49 201.673 359.893 203.445 363.015 203.985C366.137 204.525 375.198 205.654 375.198 205.654C373.54 206.296 369.863 205.909 364.192 205.055C359.474 204.344 351.675 202.276 351.648 201.714L345.146 189.357Z" fill="#003261" fill-opacity="0.2"/>
</g>
<g clip-path="url(#clip9_391_28223)">
<path d="M378.148 300.061C378.148 300.061 376.863 300.789 374.572 300.901C372.282 301.013 372.45 299.108 372.45 299.108L362.674 302.414C362.674 302.414 361.892 304.599 364.405 305.384C366.919 306.168 373.735 305.496 373.735 305.496H378.483C378.483 305.496 379.153 302.47 378.148 300.061Z" fill="#303C78"/>
<path d="M394.293 300.677C394.293 300.677 392.003 301.125 390.774 301.125C388.818 301.125 386.975 300.845 386.975 300.845C386.975 300.845 386.305 294.85 382.059 281.29C381.221 278.657 380.271 275.743 379.154 272.55C372.283 252.827 370.439 241.677 370.439 241.677L381.556 235.682H387.422C387.701 242.685 388.707 261.232 391.221 269.188C394.349 279.105 394.293 300.677 394.293 300.677Z" fill="#303C78"/>
<path d="M382.17 269.972C382.561 273.11 382.393 277.2 382.058 281.346C381.164 290.872 379.042 300.901 379.042 300.901C379.042 300.901 376.081 301.181 375.131 301.125C374.237 301.125 371.724 300.677 371.724 300.677C371.724 300.677 372.785 291.936 369.712 271.373C367.31 255.18 367.869 240.892 368.26 235.682H383.567C383.008 241.341 381.109 261.232 382.17 269.972Z" fill="#4A5AA8"/>
<path d="M394.459 300.061C394.459 300.061 393.174 300.789 390.884 300.901C388.649 301.013 388.761 299.108 388.761 299.108L379.041 302.414C379.041 302.414 378.259 304.599 380.773 305.384C383.286 306.112 390.102 305.496 390.102 305.496H394.85C394.85 305.496 395.52 302.47 394.459 300.061Z" fill="#303C78"/>
</g>
<g clip-path="url(#clip10_391_28223)">
<path d="M382.233 195.995C379.984 197.57 377.228 198.132 374.586 197.626L373.742 197.457C373.798 197.007 374.136 195.207 374.473 193.577C374.473 193.464 374.529 193.408 374.529 193.295C374.811 191.889 375.035 190.708 375.035 190.708L379.759 188.515L381.502 187.671C381.502 187.728 381.389 189.19 381.333 189.415C380.883 193.352 382.233 195.995 382.233 195.995Z" fill="#7C5957"/>
<path d="M381.391 189.527C380.267 191.552 376.049 193.352 374.25 193.97C374.25 193.858 374.306 193.745 374.306 193.633C374.587 192.114 374.812 190.821 374.812 190.821L379.985 188.403C381.166 188.403 381.841 188.684 381.391 189.527Z" fill="#664646" fill-opacity="0.6"/>
<path d="M372.675 192.171C372.675 192.171 378.804 193.633 381.84 189.134C384.708 184.972 386.17 178.223 380.94 176.48C375.655 174.68 373.631 177.886 372.787 179.967C371.719 182.554 372.675 192.171 372.675 192.171Z" fill="#7C5957"/>
</g>
<g clip-path="url(#clip11_391_28223)">
<path d="M391.116 238.175C389.991 243.067 371.042 245.261 366.15 240.762C365.588 240.255 366.263 232.944 366.487 229.795C366.881 223.552 368.231 214.16 368.287 209.38C368.287 207.074 368.624 204.712 369.074 202.519C369.58 200.044 370.255 197.851 370.761 196.389C371.211 195.095 372.223 194.139 373.516 193.745C376.328 192.958 381.95 192.002 381.95 192.002C381.95 192.002 391.509 236.319 391.116 238.175Z" fill="#80BED9"/>
<path opacity="0.1" d="M377.06 205.668C378.302 205.668 379.309 204.661 379.309 203.419C379.309 202.176 378.302 201.169 377.06 201.169C375.818 201.169 374.811 202.176 374.811 203.419C374.811 204.661 375.818 205.668 377.06 205.668Z" fill="#EBEFF5"/>
</g>
<g clip-path="url(#clip12_391_28223)">
<path d="M376.641 233.25L376.062 237.399L376.025 237.648C376.583 239.69 375.955 240.14 375.463 242.684C375.446 242.773 375.401 242.857 375.333 242.936L374.705 246.275C374.728 246.406 374.695 246.681 374.382 246.735C374.069 246.79 373.945 246.543 373.922 246.412L374.195 243.511C374.107 243.534 374.238 243.457 374.143 243.474L373.344 247.724C373.29 247.801 373.02 248.184 372.79 248.022C372.53 247.84 372.461 247.676 372.492 247.469L372.996 243.564C372.93 243.561 373.011 243.534 372.945 243.529L372.009 248.425C372.008 248.59 371.779 248.875 371.522 248.849C371.265 248.824 370.996 248.401 371.157 248.171L371.754 243.17C371.601 243.117 371.72 243.13 371.662 243.105L371.205 245.877L370.931 247.059L370.931 247.059C370.823 247.212 370.654 247.453 370.465 247.419C370.074 247.35 370.19 246.996 370.167 246.866L370.763 242.147C370.763 241.976 370.79 241.765 370.845 241.5C370.414 242.113 369.943 243.272 369.39 243.57C369.192 243.677 368.768 243.477 368.538 243.315L369.185 242.395C369.333 241.996 369.882 240.853 370.248 240.393C370.614 239.933 371.114 239.442 371.399 239.14C371.685 238.511 372.013 238.061 372.187 237.632C372.187 237.632 372.893 233.777 372.511 233.44L376.641 233.25Z" fill="#7C5957"/>
<path d="M373.441 201.705L373.879 219.885L371.775 237.165C371.775 237.165 372.753 238.291 374.275 238.227C375.797 238.164 376.552 237.494 376.552 237.494L380.315 221.17L380.016 201.579C379.952 200.057 378.908 198.741 377.417 198.465C375.291 197.964 373.357 199.599 373.441 201.705Z" fill="#D5EBF5"/>
</g>
<g clip-path="url(#clip13_391_28223)">
<path d="M380.856 181.274C380.744 183.863 380.632 183.708 380.632 183.708L380.296 185.779L379.736 181.43C379.736 181.43 376.375 180.187 374.975 180.032C372.566 179.773 371.334 179.928 371.334 179.928C371.334 179.928 371.166 176.149 373.07 176.149C373.294 176.149 374.863 175.321 375.087 175.321C376.991 175.321 378.896 175.839 380.52 176.822C380.576 176.822 381.024 178.893 380.856 181.274Z" fill="#003261"/>
<path d="M375.984 172.836C374.919 172.991 371.222 174.907 371.335 178.893C374.079 178.168 378.728 182.672 378.728 185.52C378.728 188.367 377.888 191.784 374.527 191.784C374.247 191.784 373.967 191.784 373.743 191.732C374.639 192.716 376.04 193.233 377.44 193.13C379.12 192.975 380.969 192.923 383.041 191.163C384.721 189.713 386.682 186.193 386.626 183.293C386.458 177.858 383.657 171.541 375.984 172.836Z" fill="#0D736A"/>
<path d="M380.856 182.62C380.856 182.62 380.968 180.239 379.008 178.634C379.008 178.634 380.688 181.119 380.856 182.62Z" fill="#19470A"/>
<path d="M375.367 192.767C375.367 192.767 377.44 192.25 378.392 190.438C378.392 190.438 376.655 192.301 375.367 192.767Z" fill="#19470A"/>
<path d="M373.574 191.37C373.574 191.37 373.742 192.25 374.75 192.146C375.983 192.043 377.159 190.904 377.159 190.904C377.159 190.904 374.863 192.25 373.574 191.37Z" fill="#19470A"/>
</g>
<g clip-path="url(#clip14_391_28223)">
<path d="M375.243 182.364H371.405C371.405 182.364 371.18 182.364 371.18 182.562C371.18 182.76 371.405 182.859 371.405 182.859H371.631L371.97 184.942C372.196 185.934 373.099 186.727 374.114 186.727H375.13C375.807 186.727 376.372 186.231 376.372 185.537V183.554C376.485 182.859 375.92 182.364 375.243 182.364ZM375.92 185.438C375.92 185.835 375.582 186.132 375.243 186.132H374.227C373.437 186.132 372.76 185.537 372.534 184.843L372.196 182.859H375.243C375.695 182.859 375.92 183.157 375.92 183.554V185.438Z" fill="#003261"/>
</g>
<defs>
<clipPath id="clip0_391_28223">
<rect width="169.196" height="221.773" fill="white" transform="matrix(-1 0 0 1 169.195 74.9546)"/>
</clipPath>
<clipPath id="clip1_391_28223">
<rect width="142.156" height="186.227" fill="white" transform="translate(353.844 110.5)"/>
</clipPath>
<clipPath id="clip2_391_28223">
<rect width="62.2629" height="54.5499" fill="white" transform="matrix(-0.989283 -0.146011 -0.145959 0.989291 167.393 191.254)"/>
</clipPath>
<clipPath id="clip3_391_28223">
<rect width="83.4392" height="76.5" fill="white" transform="matrix(-1 0 0 1 177.695 229.5)"/>
</clipPath>
<clipPath id="clip4_391_28223">
<rect width="24.1329" height="24.1372" fill="white" transform="matrix(-0.995857 0.0909308 0.0908977 0.99586 146.992 165.036)"/>
</clipPath>
<clipPath id="clip5_391_28223">
<rect width="42.5944" height="56.0587" fill="white" transform="matrix(-1 0 0 1 157.182 183.418)"/>
</clipPath>
<clipPath id="clip6_391_28223">
<rect width="62.2627" height="54.5501" fill="white" transform="matrix(-0.998678 0.051405 0.0513862 0.998679 168.842 188.246)"/>
</clipPath>
<clipPath id="clip7_391_28223">
<rect width="24.1329" height="22.8182" fill="white" transform="matrix(-0.988341 0.152259 0.152205 0.988349 145.551 160.602)"/>
</clipPath>
<clipPath id="clip8_391_28223">
<rect width="58.0392" height="50.5501" fill="white" transform="matrix(0.0477914 0.998857 -0.998856 0.0478089 377.295 173.01)"/>
</clipPath>
<clipPath id="clip9_391_28223">
<rect width="77.2586" height="70.3182" fill="white" transform="translate(339.938 235.682)"/>
</clipPath>
<clipPath id="clip10_391_28223">
<rect width="22.4917" height="22.4958" fill="white" transform="translate(367.107 175.692)"/>
</clipPath>
<clipPath id="clip11_391_28223">
<rect width="39.6978" height="52.2465" fill="white" transform="translate(358.672 192.002)"/>
</clipPath>
<clipPath id="clip12_391_28223">
<rect width="58.0285" height="50.8405" fill="white" transform="translate(348.607 198.188)"/>
</clipPath>
<clipPath id="clip13_391_28223">
<rect width="22.405" height="20.8636" fill="white" transform="translate(367.75 172.318)"/>
</clipPath>
<clipPath id="clip14_391_28223">
<rect width="23.9501" height="18.5455" fill="white" transform="translate(360.023 182.364)"/>
</clipPath>
</defs>
</svg>
