<svg width="30" height="31" viewBox="0 0 30 31" fill="none" xmlns="http://www.w3.org/2000/svg">
<g clip-path="url(#clip0_1383_7599)">
<path d="M0 21.3688C0.082282 21.015 0.148108 20.653 0.246846 20.2992C0.995612 17.6497 3.4147 15.7819 6.17115 15.7737C9.94789 15.7572 13.7246 15.7654 17.5014 15.7737C18.2419 15.7737 18.966 15.9218 19.6572 16.2098C19.6407 16.4648 19.5255 16.5224 19.2951 16.5142C17.9046 16.4484 16.8678 17.049 16.1684 18.2421C15.8557 18.7852 15.5431 19.32 15.2304 19.8631C14.531 21.0891 14.5557 22.2986 15.3127 23.4917C15.3538 23.5575 15.3867 23.6974 15.3456 23.755C14.5228 24.9975 14.531 26.2482 15.2633 27.5235C15.2633 27.5318 15.2633 27.54 15.2633 27.5976C15.1563 27.5976 15.0329 27.5976 14.9177 27.5976C10.3758 27.5976 5.82556 27.5893 1.2836 27.6058C0.674712 27.6058 0.255074 27.4166 0.0164564 26.857C0 25.0304 0 23.1955 0 21.3688Z" fill="white"/>
<path d="M11.8322 13.1322C8.2118 13.1322 5.26611 10.2112 5.25788 6.59078C5.24142 2.96215 8.19535 0 11.824 0C15.4526 0 18.4065 2.95392 18.3983 6.58256C18.3901 10.203 15.4526 13.1322 11.8322 13.1322Z" fill="white"/>
<path d="M29.9998 21.6895C29.8928 21.8376 29.8023 22.0351 29.646 22.1667C29.3498 22.4218 29.0371 22.6522 28.7162 22.8743C28.5681 22.9813 28.5105 23.0883 28.5352 23.2857C28.5681 23.5244 28.5681 23.7794 28.5352 24.018C28.5023 24.2155 28.5681 24.3225 28.7162 24.4295C29.0289 24.6516 29.3251 24.882 29.6213 25.1124C29.9751 25.3922 30.0409 25.6884 29.8188 26.0833C29.4979 26.6511 29.1687 27.227 28.8396 27.7866C28.6092 28.1733 28.3212 28.272 27.9016 28.0992C27.5396 27.9511 27.1858 27.7866 26.8237 27.6549C26.7167 27.6138 26.5522 27.6385 26.4452 27.696C26.2231 27.803 26.0338 27.9758 25.8116 28.0663C25.5813 28.1568 25.5154 28.3132 25.499 28.5353C25.4661 28.8891 25.4167 29.2512 25.3673 29.605C25.318 29.9917 25.0793 30.2139 24.6844 30.2221C23.9932 30.2386 23.3103 30.2386 22.6191 30.2221C22.2159 30.2139 21.9773 29.9835 21.9197 29.5803C21.9033 29.4816 21.895 29.3746 21.8786 29.2759C21.8292 28.922 21.8786 28.5024 21.6975 28.2309C21.5165 27.9594 21.1216 27.8359 20.8089 27.6631C20.7266 27.622 20.595 27.6055 20.5045 27.6385C20.1342 27.7783 19.7639 27.9429 19.3937 28.091C18.9576 28.2638 18.6778 28.1733 18.4392 27.7619C18.1183 27.2106 17.7974 26.6593 17.4847 26.108C17.2379 25.6719 17.3037 25.3757 17.7069 25.0713C17.9949 24.8573 18.2746 24.6269 18.5708 24.4295C18.7354 24.3143 18.8012 24.1991 18.7519 23.9934C18.7107 23.8041 18.686 23.5902 18.7354 23.4174C18.8259 23.0965 18.686 22.9319 18.4392 22.7674C18.1677 22.5863 17.9126 22.3806 17.6493 22.1749C17.3037 21.9034 17.2379 21.599 17.4518 21.2287C17.7809 20.6363 18.1183 20.0521 18.4721 19.4679C18.6778 19.1305 18.974 19.0318 19.3443 19.1716C19.7146 19.3197 20.0848 19.4761 20.4469 19.6406C20.6032 19.7147 20.7266 19.7229 20.8665 19.5995C20.9652 19.509 21.0804 19.4267 21.2039 19.3856C21.6811 19.2292 21.8539 18.8919 21.8457 18.4146C21.8457 18.1843 21.895 17.9456 21.9279 17.7152C21.9773 17.3285 22.2077 17.0899 22.5944 17.0817C23.302 17.0652 24.0097 17.0652 24.7173 17.0817C25.0876 17.0899 25.318 17.3285 25.3673 17.6988C25.4167 18.0608 25.4661 18.4311 25.499 18.8014C25.5154 18.9988 25.5648 19.1552 25.787 19.221C25.9186 19.2621 26.0585 19.3362 26.1572 19.4267C26.4781 19.7476 26.8073 19.7147 27.1775 19.5172C27.4161 19.3856 27.6794 19.2868 27.9427 19.1881C28.3295 19.04 28.6175 19.1305 28.8314 19.4925C29.177 20.0767 29.5143 20.6609 29.8435 21.2534C29.9093 21.3603 29.934 21.5002 29.9998 21.6895ZM26.2807 23.6478C26.2807 22.2078 25.0958 21.023 23.6559 21.0148C22.2159 21.0065 21.0311 22.1832 21.0146 23.6313C20.9981 25.0713 22.2077 26.2808 23.6559 26.2726C25.104 26.2726 26.2807 25.0877 26.2807 23.6478Z" fill="white"/>
</g>
<defs>
<clipPath id="clip0_1383_7599">
<rect width="30" height="30.2304" fill="white"/>
</clipPath>
</defs>
</svg>
