<svg width="16" height="9" viewBox="0 0 16 9" fill="none" xmlns="http://www.w3.org/2000/svg">
<path d="M9.80587 0.085279C9.90106 0.0889803 9.99313 0.120046 10.0715 0.174556L15.7771 4.08343C15.9141 4.17708 15.9961 4.33264 15.9961 4.49909C15.9961 4.66555 15.9141 4.82122 15.7771 4.91476L10.0715 8.82737C9.97081 8.89657 9.84839 8.92629 9.72741 8.91115C9.60644 8.89601 9.49506 8.8369 9.41437 8.74504C9.33369 8.65319 9.28916 8.53475 9.28927 8.41227V6.42395H0.497801C0.365889 6.42339 0.239445 6.37056 0.146135 6.2768C0.0529499 6.18304 0.000272751 6.05608 -0.000284195 5.9235V3.07841C-0.000730515 2.94517 0.0513859 2.8172 0.144794 2.72264C0.238203 2.62798 0.365206 2.57459 0.497775 2.57403H9.28924V0.589648C9.28869 0.453153 9.34337 0.322266 9.4408 0.227157C9.53823 0.131936 9.67002 0.0807913 9.80583 0.085279H9.80587Z" fill="#0098C7"/>
</svg>
