<svg width="32" height="32" viewBox="0 0 32 32" fill="none" xmlns="http://www.w3.org/2000/svg">
<g clip-path="url(#clip0_1107_2008)">
<path d="M20.8756 31.9999C20.4514 31.8054 20.2853 31.4505 20.1759 31.0121C19.0964 26.7185 18.0018 22.4299 16.9105 18.1396C16.7344 17.4457 16.9907 16.9439 17.5918 16.8529C17.7496 16.8287 17.925 16.8545 18.0828 16.8946C22.4244 17.9935 26.7634 19.1007 31.1059 20.1937C31.5191 20.2973 31.8189 20.4943 32.0009 20.8751C32.0009 21.0421 32.0009 21.2083 32.0009 21.3753C31.8681 21.6859 31.626 21.8813 31.3388 22.0449C30.8779 22.3071 30.4279 22.5894 29.9745 22.8633C29.4344 23.1897 28.8942 23.5179 28.3339 23.8577C28.4091 23.9638 28.465 24.049 28.5276 24.1291C29.0461 24.7946 29.5638 25.4593 30.0848 26.1223C30.5406 26.7026 30.7769 27.3581 30.7176 28.0954C30.6283 29.206 30.0747 30.0285 29.0578 30.4785C28.0308 30.9336 27.0448 30.7816 26.1489 30.1003C25.7348 29.7855 25.329 29.4598 24.9183 29.1392C24.5759 28.872 24.2328 28.6064 23.8729 28.3267C23.7978 28.4411 23.7394 28.5238 23.6868 28.6106C23.1324 29.5275 22.5913 30.4526 22.0152 31.3561C21.8558 31.6058 21.5919 31.7878 21.3765 32.0016C21.2095 31.9999 21.0426 31.9999 20.8756 31.9999Z" fill="white"/>
<path d="M3.93335 15.7356C3.96424 14.3111 4.40424 13.1479 5.31932 12.1852C5.95052 11.5213 6.6051 10.8792 7.25884 10.2371C7.66044 9.84214 8.22985 9.83797 8.60306 10.2062C8.98211 10.5803 8.97543 11.1606 8.56883 11.5748C7.95683 12.1994 7.32062 12.8014 6.71864 13.4352C4.98702 15.2563 5.86118 18.2047 8.30583 18.7734C9.45969 19.0423 10.4683 18.7149 11.3132 17.895C11.926 17.3004 12.5222 16.6884 13.1267 16.0855C13.3938 15.8191 13.717 15.7381 14.0743 15.8408C14.4375 15.9452 14.6512 16.2032 14.7239 16.5698C14.7848 16.8771 14.6963 17.156 14.4801 17.3739C13.7687 18.0912 13.0883 18.846 12.3218 19.499C10.8206 20.7791 9.08314 21.0972 7.24047 20.4025C5.38862 19.7036 4.30656 18.3166 3.9943 16.3502C3.95589 16.1156 3.94671 15.8751 3.93335 15.7356Z" fill="white"/>
<path d="M15.825 3.92871C17.8205 4.04227 19.4486 5.0042 20.3077 7.00488C21.1635 8.99804 20.8103 10.8626 19.3601 12.4817C18.7497 13.1631 18.0759 13.7893 17.4239 14.4323C17.0181 14.8322 16.4587 14.8414 16.0805 14.4724C15.7006 14.1024 15.7089 13.5113 16.1089 13.1054C16.7518 12.4525 17.4272 11.8296 18.04 11.149C19.6606 9.35042 18.7873 6.50721 16.4395 5.91603C15.3424 5.63964 14.3447 5.89014 13.5131 6.65418C12.8385 7.27375 12.2156 7.94844 11.5569 8.58471C11.0042 9.11828 10.1634 8.89283 9.97137 8.17222C9.88036 7.83154 9.97304 7.52676 10.2152 7.28127C10.8965 6.59322 11.5686 5.89432 12.2783 5.23717C13.2276 4.35874 14.3781 3.95877 15.825 3.92871Z" fill="white"/>
<path d="M15.8667 9.88645C15.8049 9.99834 15.7264 10.2614 15.5553 10.4342C13.8579 12.1535 12.1488 13.8594 10.4356 15.5637C10.0331 15.9636 9.46704 15.9628 9.09216 15.5912C8.7106 15.213 8.71895 14.6368 9.1289 14.2251C10.8263 12.5217 12.5279 10.8217 14.2303 9.12158C14.5308 8.82097 14.8865 8.72912 15.2881 8.88778C15.6313 9.02388 15.8634 9.37709 15.8667 9.88645Z" fill="white"/>
<path d="M6.87882 5.79751C6.8329 6.30353 6.63669 6.6033 6.26598 6.77614C5.91866 6.93813 5.58302 6.8872 5.31334 6.62501C4.59781 5.92861 3.88813 5.22637 3.19598 4.50743C2.84364 4.14169 2.87203 3.58975 3.21184 3.23655C3.56251 2.87165 4.12692 2.82823 4.5043 3.18979C5.22567 3.87867 5.92784 4.58842 6.61999 5.3082C6.76109 5.45516 6.81954 5.68145 6.87882 5.79751Z" fill="white"/>
<path d="M9.69921 4.63423C9.29761 4.63005 8.98619 4.438 8.87347 4.04555C8.59294 3.06692 8.3266 2.08411 8.0828 1.0963C7.96925 0.635376 8.28485 0.175287 8.7474 0.0375109C9.18406 -0.0919153 9.72008 0.123517 9.85117 0.563566C10.1534 1.5781 10.4306 2.60265 10.6686 3.63389C10.7921 4.16829 10.2937 4.64007 9.69921 4.63423Z" fill="white"/>
<path d="M1.05046 8.0646C1.49715 8.17983 2.03066 8.31594 2.56251 8.45622C3.00418 8.57229 3.44585 8.69169 3.88586 8.8136C4.46446 8.97309 4.76419 9.45656 4.62226 9.99514C4.4895 10.4995 3.97102 10.7717 3.40912 10.6247C2.5049 10.3876 1.59984 10.153 0.699798 9.90078C0.218049 9.76551 -0.0633191 9.3121 0.0118238 8.85285C0.0861317 8.39777 0.496913 8.05625 1.05046 8.0646Z" fill="white"/>
</g>
<defs>
<clipPath id="clip0_1107_2008">
<rect width="32" height="32" fill="white"/>
</clipPath>
</defs>
</svg>
