<svg width="32" height="24" viewBox="0 0 32 24" fill="none" xmlns="http://www.w3.org/2000/svg">
<path opacity="0.8" d="M5.33337 23.3488C5.33337 22.155 6.2885 21.1871 7.46671 21.1871H16C17.1782 21.1871 18.1334 22.155 18.1334 23.3488H5.33337Z" fill="#CE0930"/>
<path fill-rule="evenodd" clip-rule="evenodd" d="M21.6543 16.9988H22.9633H23.4667L23.4667 19.0254C23.4667 20.2193 22.5115 21.1871 21.3333 21.1871H19.6959C18.9581 19.8948 17.5793 19.0254 16 19.0254H7.46667C5.8874 19.0254 4.50853 19.8948 3.7708 21.1871H2.13333C0.955126 21.1871 0 20.2193 0 19.0254V7.13617C0 5.94231 0.955126 4.97449 2.13333 4.97449H20.2388V5.29096C19.8579 5.45346 19.5004 5.66009 19.1726 5.90441L18.5067 5.58979C17.8626 5.23932 17.0652 5.47907 16.703 6.11474L16.0485 7.26349C15.6854 7.90067 15.881 8.72266 16.5061 9.11158L17.0973 9.52159C17.0759 9.71447 17.0649 9.91031 17.0649 10.1085C17.0649 10.3265 17.0782 10.5417 17.1041 10.7532L16.5311 11.1598C15.9095 11.5498 15.7157 12.3694 16.0779 13.0051L16.7324 14.1539C17.0954 14.791 17.8958 15.0304 18.5407 14.6763L19.219 14.3468C19.5341 14.5762 19.8758 14.7712 20.2388 14.926L20.3037 15.6785C20.3263 16.419 20.9299 16.9988 21.6543 16.9988ZM23.4666 7.12319C23.462 6.33225 23.0382 5.64197 22.409 5.26897C22.1016 5.08432 21.7381 4.97449 21.3333 4.97449H20.2388V4.97449H21.3333C21.7256 4.97449 22.0932 5.08178 22.409 5.26897C23.062 5.66126 23.4619 6.39123 23.4666 7.12319ZM6.82052 15.7829C6.74282 15.7828 6.66636 15.7629 6.59802 15.725C6.52969 15.687 6.47164 15.6321 6.4291 15.5653C6.38656 15.4985 6.36088 15.4219 6.35436 15.3424C6.34785 15.2629 6.36071 15.1829 6.39179 15.1098L8.7545 9.5728C8.80658 9.45988 8.89941 9.37222 9.01333 9.32839C9.12725 9.28457 9.2533 9.28803 9.36478 9.33804C9.47626 9.38804 9.56441 9.48067 9.61055 9.59629C9.65669 9.71192 9.6572 9.84145 9.61197 9.95745L7.25674 15.4867C7.22097 15.5751 7.16036 15.6504 7.08265 15.7032C7.00494 15.756 6.91366 15.7837 6.82052 15.7829ZM11.3906 15.1559C11.2995 15.1558 11.2105 15.1284 11.1344 15.0771C11.0583 15.0259 10.9984 14.9529 10.962 14.8672C10.9257 14.7814 10.9144 14.6867 10.9297 14.5945C10.945 14.5023 10.986 14.4167 11.0479 14.3482L12.746 12.4653L11.061 10.7344C10.9732 10.6441 10.9238 10.5217 10.9238 10.394C10.9238 10.2663 10.9732 10.1439 11.061 10.0536C11.1489 9.96333 11.2681 9.91261 11.3924 9.91261C11.5167 9.91261 11.6359 9.96333 11.7238 10.0536L13.7289 12.1134C13.8148 12.2012 13.8641 12.3199 13.8666 12.4443C13.869 12.5688 13.8244 12.6894 13.742 12.7807L11.7369 15.0021C11.6926 15.0507 11.639 15.0894 11.5793 15.1156C11.5197 15.1417 11.4554 15.1548 11.3906 15.154V15.1559ZM4.60758 15.1559C4.54606 15.1561 4.48511 15.1438 4.42823 15.1197C4.37136 15.0956 4.31969 15.0602 4.27621 15.0155L2.27108 12.9557C2.18522 12.8679 2.13588 12.7493 2.13343 12.6248C2.13099 12.5003 2.17563 12.3797 2.25797 12.2884L4.26123 10.0651C4.34564 9.97155 4.46279 9.91623 4.58691 9.91136C4.71102 9.90649 4.83193 9.95247 4.92304 10.0392C5.01416 10.1259 5.06801 10.2462 5.07275 10.3737C5.07749 10.5012 5.03273 10.6254 4.94832 10.719L3.25211 12.6019L4.93709 14.3328C5.0026 14.3999 5.04728 14.4855 5.06547 14.5787C5.08366 14.6719 5.07454 14.7685 5.03928 14.8564C5.00402 14.9443 4.94419 15.0195 4.86735 15.0724C4.79051 15.1254 4.70011 15.1538 4.60758 15.154V15.1559Z" fill="#CE0930"/>
<path opacity="0.6" fill-rule="evenodd" clip-rule="evenodd" d="M23.3333 2.83787L23.6693 2.47272C23.8296 2.29855 24.0984 2.28862 24.2698 2.45054L25.0521 3.07065C25.4939 2.81432 25.9931 2.65733 26.5147 2.62183L26.8226 1.6597C26.8753 1.42837 27.1036 1.28427 27.3326 1.33784L28.3174 1.56821C28.5464 1.62178 28.6893 1.85274 28.6366 2.08407L28.4847 3.09672C28.9218 3.35887 29.2896 3.71403 29.5677 4.12953L30.5447 3.91845C30.7687 3.84904 31.0061 3.97739 31.0748 4.20513L31.3703 5.18448C31.439 5.41222 31.313 5.65311 31.089 5.72253L30.1537 6.09305C30.1511 6.33655 30.1227 6.58347 30.0665 6.83044C30.0073 7.09022 29.9204 7.33624 29.8097 7.56608L30.4752 8.31408C30.6466 8.476 30.6555 8.74845 30.4953 8.92262L29.806 9.6716C29.6457 9.84577 29.3769 9.8557 29.2055 9.69379L28.8568 9.41124C29.4186 8.81386 29.548 7.89004 29.1209 7.14044L28.4664 5.99169C27.96 5.10308 26.8535 4.77827 25.9628 5.2531L25.581 5.4335C25.4033 5.31573 25.2191 5.20793 25.0294 5.11066L24.9954 4.66191C24.9631 3.71384 24.2461 2.94587 23.3333 2.83787Z" fill="#CE0930"/>
<path fill-rule="evenodd" clip-rule="evenodd" d="M17.8649 10.1085C17.8649 10.4568 17.9051 10.7957 17.981 11.1207L16.9675 11.8398C16.7067 11.9924 16.6186 12.3327 16.7708 12.5998L17.4253 13.7486C17.5775 14.0157 17.9124 14.1085 18.1733 13.9559L19.3257 13.3961C19.7994 13.8236 20.3659 14.1496 20.9913 14.34L21.1032 15.6356C21.1032 15.9408 21.3499 16.1883 21.6544 16.1883H22.9634C23.2678 16.1883 23.5146 15.9408 23.5146 15.6356L23.614 14.3224C24.2186 14.1293 24.7666 13.809 25.2267 13.3929L26.3857 13.9559C26.6466 14.1085 26.9815 14.0157 27.1337 13.7486L27.7882 12.5998C27.9404 12.3327 27.8523 11.9924 27.5914 11.8398L26.5693 11.1146C26.6443 10.7914 26.6839 10.4546 26.6839 10.1085C26.6839 9.77958 26.6481 9.45902 26.5802 9.15056L27.6208 8.42889C27.8817 8.27627 27.9698 7.93599 27.8176 7.66886L27.1631 6.52011C27.0109 6.25297 26.676 6.16015 26.4151 6.31277L25.2628 6.85721C24.7954 6.42497 24.2345 6.09282 23.614 5.89465L23.5146 4.58151C23.5146 4.27626 23.2678 4.02881 22.9634 4.02881H21.6544C21.3499 4.02881 21.1032 4.27626 21.1032 4.58151L20.9913 5.87704C20.3499 6.07236 19.7704 6.4103 19.2894 6.85406L18.1439 6.31277C17.883 6.16015 17.5481 6.25297 17.3959 6.52011L16.7414 7.66886C16.5891 7.93599 16.6773 8.27627 16.9381 8.42889L17.9701 9.1445C17.9012 9.45482 17.8649 9.77743 17.8649 10.1085ZM24.269 10.1129C24.269 11.215 23.3779 12.1085 22.2787 12.1085C21.1796 12.1085 20.2885 11.215 20.2885 10.1129C20.2885 9.01067 21.1796 8.11717 22.2787 8.11717C23.3779 8.11717 24.269 9.01067 24.269 10.1129Z" fill="#CE0930"/>
</svg>
