<svg width="20" height="20" viewBox="0 0 20 20" fill="none" xmlns="http://www.w3.org/2000/svg">
<path fill-rule="evenodd" clip-rule="evenodd" d="M20 10C20 4.48 15.52 0 10 0C4.48 0 0 4.48 0 10C0 15.52 4.48 20 10 20C15.52 20 20 15.52 20 10ZM8.30579 14.5683L8.27677 14.5393L8.27161 14.5444L3.62113 9.89396C3.23648 9.5093 3.23648 8.88565 3.62113 8.50099C4.00579 8.11633 4.62944 8.11633 5.0141 8.50099L8.30062 11.7875L14.2049 5.88322C14.5896 5.49856 15.2132 5.49856 15.5979 5.88322C15.9825 6.26788 15.9825 6.89153 15.5979 7.27619L8.30579 14.5683Z" fill="#2A854E"/>
</svg>
