<svg width="32" height="37" viewBox="0 0 32 37" fill="none" xmlns="http://www.w3.org/2000/svg">
<g clip-path="url(#clip0_1107_2029)">
<path d="M17.0069 0.139648C17.7757 0.255022 18.5606 0.310507 19.3125 0.494576C25.9655 2.12742 30.0755 6.27117 31.6701 12.8677C31.791 13.3671 31.847 13.8832 31.9012 14.3949C31.9536 14.8942 31.9661 15.3989 32.0007 15.9854C31.8016 15.8577 31.6692 15.7494 31.5181 15.6816C31.0461 15.472 30.5733 15.2588 30.0862 15.088C29.8773 15.0149 29.7893 14.9391 29.768 14.7128C29.5386 12.2838 28.7254 10.0618 27.2997 8.07134C25.6695 5.79382 23.5372 4.14601 20.9009 3.1464C18.8779 2.3793 16.782 2.10716 14.6328 2.32558C11.8952 2.603 9.44554 3.60349 7.30877 5.33145C5.03334 7.17214 3.49743 9.50338 2.70547 12.2996C2.47971 13.0949 2.40238 13.9316 2.24594 14.7471C2.2255 14.8537 2.15795 14.9999 2.07262 15.0369C1.40777 15.3214 0.733136 15.5829 0.000732422 15.8762C0.0896164 15.0351 0.118059 14.1456 0.28605 13.2834C1.36688 7.74812 4.51515 3.79813 9.68197 1.44663C11.2721 0.72268 12.9609 0.329002 14.7092 0.199537C14.8132 0.19161 14.9163 0.159905 15.0195 0.139648C15.6825 0.139648 16.3447 0.139648 17.0069 0.139648Z" fill="white"/>
<path d="M19.0115 31.9096C20.2301 31.9096 21.438 31.9545 22.6406 31.8972C23.9552 31.8347 25.0938 30.8879 25.3783 29.7862C24.845 29.7615 24.2797 29.8214 23.7597 29.6946C22.2949 29.3388 21.358 28.1586 21.3447 26.6543C21.3189 23.7956 21.3038 20.935 21.3474 18.0771C21.3856 15.5512 24.0112 14.1112 26.196 15.3936C27.211 15.9889 27.7106 16.9322 27.7159 18.0885C27.7319 21.6977 27.7515 25.3077 27.7088 28.916C27.6759 31.6973 25.3605 33.9563 22.5518 34.0259C21.4647 34.0523 20.3759 34.0382 19.2879 34.0294C19.0791 34.0277 18.9822 34.0964 18.8951 34.2822C18.248 35.6632 16.7983 36.3827 15.329 36.0665C13.9113 35.7618 12.8758 34.5103 12.8243 33.0404C12.7736 31.5987 13.8082 30.2776 15.2784 29.9051C16.6667 29.5537 18.2115 30.2706 18.8488 31.5626C18.9057 31.6779 18.9582 31.7951 19.0115 31.9096Z" fill="white"/>
<path d="M10.691 22.3969C10.691 23.7797 10.6981 25.1624 10.6892 26.5442C10.6803 27.9815 9.83061 29.2075 8.58001 29.6126C6.43435 30.3084 4.35091 28.9028 4.31625 26.6649C4.2718 23.7955 4.26647 20.9235 4.31713 18.0541C4.36158 15.5459 6.97388 14.1209 9.15064 15.3865C10.2066 16.0003 10.6794 16.9806 10.6874 18.1783C10.699 19.5848 10.691 20.9904 10.691 22.3969Z" fill="white"/>
<path d="M2.20788 17.2368C2.20788 20.6593 2.20788 24.0623 2.20788 27.5024C1.36526 27.2215 0.727076 26.6904 0.378651 25.8889C0.187551 25.4495 0.0737794 24.9466 0.0604468 24.4675C0.0195602 23.0636 0.0382259 21.6571 0.0480031 20.2524C0.0577803 18.8177 0.942176 17.5917 2.20788 17.2368Z" fill="white"/>
<path d="M29.8188 27.4858C29.8188 24.0642 29.8188 20.6612 29.8188 17.2202C30.489 17.4289 31.0072 17.8385 31.4099 18.4021C31.7974 18.9438 31.9778 19.555 31.9796 20.2164C31.9832 21.6449 31.9912 23.0734 31.9778 24.5019C31.9645 25.9137 31.081 27.1229 29.8188 27.4858Z" fill="white"/>
</g>
<defs>
<clipPath id="clip0_1107_2029">
<rect width="32" height="36" fill="white" transform="translate(0 0.139648)"/>
</clipPath>
</defs>
</svg>
