<svg width="60" height="60" viewBox="0 0 60 60" fill="none" xmlns="http://www.w3.org/2000/svg">
<g clip-path="url(#clip0_1115_2175)">
<path d="M28.125 0C29.3754 0 30.6246 0 31.875 0C32.025 0.0328125 32.1738 0.084375 32.3262 0.0960937C36.9973 0.445312 41.3707 1.78594 45.3551 4.23867C53.0988 9.00703 57.8695 15.8637 59.5406 24.8297C59.7434 25.9184 59.85 27.0258 60.0012 28.1238C60.0012 29.3742 60.0012 30.6234 60.0012 31.8738C59.9531 32.2582 59.8992 32.6426 59.8582 33.0281C59.216 38.9613 57.0656 44.2851 53.2781 48.9C48.5684 54.6387 42.5438 58.2035 35.2254 59.5348C34.1168 59.7363 32.993 59.8465 31.8762 59.9988C30.6258 59.9988 29.3766 59.9988 28.1262 59.9988C27.3937 59.9086 26.6602 59.8301 25.9301 59.727C20.3953 58.9395 15.4242 56.8312 11.1035 53.2781C5.36719 48.5637 1.79531 42.5473 0.466406 35.2277C0.264844 34.118 0.153516 32.993 0 31.875C0 30.6246 0 29.3754 0 28.125C0.046875 27.7406 0.0996094 27.3562 0.141797 26.9719C0.835547 20.6168 3.23906 14.9977 7.47773 10.207C12.1395 4.93945 17.9449 1.66289 24.8895 0.452344C25.9617 0.266016 27.0469 0.148828 28.125 0Z" fill="#CC092F"/>
<path d="M42 29.9987C34.5536 34.0611 27.3536 37.9879 20 42C20 33.9356 20 26.0744 20 18C27.3351 21.9996 34.5377 25.9289 42 29.9987Z" fill="white"/>
</g>
<defs>
<clipPath id="clip0_1115_2175">
<rect width="60" height="60" fill="white"/>
</clipPath>
</defs>
</svg>
