<svg width="164" height="164" viewBox="0 0 164 164" fill="none" xmlns="http://www.w3.org/2000/svg">
<g opacity="0.4">
<path opacity="0.6" fill-rule="evenodd" clip-rule="evenodd" d="M75.166 22.1201L78.6104 18.4264C80.2534 16.6646 83.0091 16.5642 84.7655 18.202L92.7839 24.4749C97.3122 21.8819 102.429 20.2939 107.776 19.9347L110.931 10.2023C111.472 7.86225 113.812 6.40457 116.16 6.94647L126.254 9.27682C128.601 9.81873 130.066 12.155 129.525 14.4951L127.968 24.7386C132.449 27.3904 136.219 30.9831 139.069 35.186L149.083 33.0509C151.38 32.3487 153.812 33.647 154.517 35.9508L157.545 45.8575C158.25 48.1612 156.959 50.598 154.662 51.3001L145.076 55.0482C145.049 57.5113 144.758 60.009 144.181 62.5073C143.575 65.1351 142.684 67.6238 141.55 69.9487L148.371 77.5152C150.128 79.1531 150.22 81.9091 148.577 83.6709L141.512 91.2473C139.869 93.0091 137.113 93.1096 135.356 91.4717L131.782 88.6136C137.541 82.5707 138.867 73.2258 134.489 65.6431L127.78 54.0229C122.591 45.034 111.249 41.7484 102.118 46.5516L98.2051 48.3764C96.3837 47.1852 94.4962 46.0947 92.5512 45.1107L92.203 40.5714C91.8724 30.9811 84.5227 23.2126 75.166 22.1201Z" fill="#58606E"/>
<path fill-rule="evenodd" clip-rule="evenodd" d="M19.1155 95.6666C19.1155 99.1895 19.5271 102.617 20.3052 105.905L9.91718 113.179C7.24309 114.723 6.34003 118.165 7.90014 120.868L14.6091 132.488C16.1692 135.19 19.6017 136.129 22.2758 134.585L34.0882 128.922C38.9433 133.246 44.7505 136.544 51.1606 138.471L52.3073 151.576C52.3073 154.663 54.8367 157.167 57.9569 157.167H71.3749C74.4951 157.167 77.0246 154.663 77.0246 151.576L78.0435 138.293C84.2405 136.339 89.8574 133.099 94.5736 128.89L106.453 134.585C109.127 136.129 112.56 135.19 114.12 132.488L120.829 120.868C122.389 118.165 121.486 114.723 118.812 113.179L108.335 105.843C109.104 102.574 109.51 99.1674 109.51 95.6666C109.51 92.3391 109.143 89.0964 108.446 85.9761L119.113 78.676C121.787 77.1322 122.69 73.69 121.13 70.9878L114.421 59.3676C112.861 56.6654 109.429 55.7264 106.755 57.2703L94.944 62.7775C90.1526 58.4052 84.4036 55.0453 78.0435 53.0407L77.0246 39.7575C77.0246 36.6698 74.4951 34.1666 71.3749 34.1666H57.9569C54.8367 34.1666 52.3073 36.6698 52.3073 39.7575L51.1606 52.8626C44.5861 54.8383 38.646 58.2568 33.7166 62.7456L21.9744 57.2703C19.3003 55.7264 15.8678 56.6654 14.3077 59.3676L7.59868 70.9878C6.03857 73.69 6.94163 77.1322 9.61572 78.676L20.1929 85.9148C19.4875 89.0539 19.1155 92.3173 19.1155 95.6666ZM84.7567 95.7103C84.7567 106.86 75.6234 115.898 64.357 115.898C53.0905 115.898 43.9572 106.86 43.9572 95.7103C43.9572 84.561 53.0905 75.5227 64.357 75.5227C75.6234 75.5227 84.7567 84.561 84.7567 95.7103Z" fill="#58606E"/>
</g>
</svg>
