<svg width="164" height="164" viewBox="0 0 164 164" fill="none" xmlns="http://www.w3.org/2000/svg">
<g opacity="0.4">
<path d="M50.3178 35.0692C56.7742 24.2371 68.4711 17 81.83 17C95.187 17 106.884 24.2373 113.34 35.0692H133.369C138.437 35.0692 142.484 39.3824 142.484 44.6274V118.634C142.484 119.853 141.489 120.841 140.261 120.841H22.0112C20.7832 120.841 19.7884 119.853 19.7884 118.634V44.6274C19.7884 39.3822 23.8351 35.0692 28.9035 35.0692H50.3178ZM2.00246 126.632C2.00246 125.413 2.99725 124.424 4.22523 124.424H159.777C161.005 124.424 162 125.413 162 126.632V136.72C162 142.816 158.024 148 152.818 148H11.1817C5.97633 148 2 142.816 2 136.72L2.00246 126.632ZM70.9185 135.462C67.9544 135.462 67.9544 139.876 70.9185 139.876H94.1058C97.0699 139.876 97.0699 135.462 94.1058 135.462H70.9185ZM81.8269 88.5611C100.318 88.5611 115.308 73.3035 115.308 54.4845C115.308 35.6641 100.318 20.4079 81.8269 20.4079C63.3349 20.4079 48.3437 35.6646 48.3437 54.4845C48.3437 73.304 63.3339 88.5611 81.8269 88.5611ZM71.9596 40.7154L61.5075 53.6108L71.9596 67.218H65.0609L54.6087 53.6821L65.0609 40.7154H71.9596ZM89.554 40.7154L81.5412 67.2173H75.6872L83.701 40.7154H89.554ZM92.6901 67.2173L103.142 54.3219L92.6901 40.7147H99.5879L110.04 54.2506L99.5879 67.2173H92.6901Z" fill="#333840"/>
</g>
</svg>
