<svg width="165" height="164" viewBox="0 0 165 164" fill="none" xmlns="http://www.w3.org/2000/svg">
<g opacity="0.5">
<path d="M141.074 17.0834C144.848 17.0834 147.908 20.1428 147.908 23.9167V125.48C147.908 126.476 147.69 127.46 147.269 128.364C145.676 131.785 141.612 133.267 138.19 131.675L48.8242 90.0732V59.3232L138.19 17.7217C139.094 17.3012 140.078 17.0834 141.074 17.0834Z" fill="#58606E"/>
<path opacity="0.6" d="M50.2346 104.418L68.5214 113.745L52.5679 141.377C49.7375 146.28 43.4687 147.959 38.5662 145.129C33.6637 142.298 31.9839 136.03 34.8144 131.127L50.2346 104.418Z" fill="#58606E"/>
<path opacity="0.8" d="M35.1576 58.0834V92.25H18.0742V58.0834H35.1576Z" fill="#58606E"/>
</g>
</svg>
