<svg width="164" height="164" viewBox="0 0 164 164" fill="none" xmlns="http://www.w3.org/2000/svg">
<g opacity="0.5">
<path fill-rule="evenodd" clip-rule="evenodd" d="M154.889 29.2896L82.0002 0L9.11133 29.2896V51.8861C9.11133 100.918 38.1481 144.69 82.0002 164C125.852 144.69 154.889 100.918 154.889 51.8861V29.2896ZM66.815 72.8889V63.7778C66.815 55.3912 73.6137 48.5926 82.0002 48.5926C90.3868 48.5926 97.1854 55.3912 97.1854 63.7778V72.8889H100.222C103.577 72.8889 106.297 75.6083 106.297 78.963V109.333C106.297 112.688 103.577 115.407 100.222 115.407H63.778C60.4234 115.407 57.7039 112.688 57.7039 109.333V78.963C57.7039 75.6083 60.4234 72.8889 63.778 72.8889H66.815ZM89.5008 72.8889V63.7318C89.5008 59.5639 86.1221 56.1852 81.9542 56.1852C77.7863 56.1852 74.4076 59.5639 74.4076 63.7318V72.8889H89.5008ZM71.3706 104.778V97.1852H92.6299V104.778H71.3706ZM71.3706 83.5185V91.1111H92.6299V83.5185H71.3706Z" fill="#58606E"/>
</g>
</svg>
