<svg width="165" height="164" viewBox="0 0 165 164" fill="none" xmlns="http://www.w3.org/2000/svg">
<g opacity="0.5">
<g opacity="0.8">
<path d="M82.9902 20.4999C99.9729 20.4999 113.74 34.169 113.74 51.0308C113.74 63.6303 106.053 74.4472 95.0819 79.1107C91.692 76.6307 87.5121 75.1667 82.9902 75.1667H64.1562C56.9062 69.5815 52.2402 60.8471 52.2402 51.0308C52.2402 34.169 66.0075 20.4999 82.9902 20.4999Z" fill="#58606E"/>
<path d="M127.167 150.333H144.49L144.49 123.691C144.49 111.105 139.683 97.6761 115.379 91.6469C111.223 90.6159 107.063 92.1472 103.458 94.5135C103.479 94.8952 103.49 95.2797 103.49 95.6667V123H130.824V136.667C130.824 141.645 129.493 146.313 127.167 150.333Z" fill="#58606E"/>
</g>
<path d="M89.8229 136.667H117.156C117.156 144.215 111.037 150.333 103.49 150.333H28.3229C20.775 150.333 14.6562 144.215 14.6562 136.667V95.6667C14.6562 91.8928 17.7156 88.8334 21.4896 88.8334H82.9896C86.7635 88.8334 89.8229 91.8928 89.8229 95.6667V136.667ZM52.2396 129.833C57.9005 129.833 62.4896 125.244 62.4896 119.583C62.4896 113.922 57.9005 109.333 52.2396 109.333C46.5787 109.333 41.9896 113.922 41.9896 119.583C41.9896 125.244 46.5787 129.833 52.2396 129.833Z" fill="#58606E"/>
</g>
</svg>
