<svg width="164" height="164" viewBox="0 0 164 164" fill="none" xmlns="http://www.w3.org/2000/svg">
<g opacity="0.4">
<path d="M157.436 81.3107L134.854 36.9092C134.059 35.323 132.628 34.3717 130.879 34.2136L100.346 34.3717C98.9155 30.0899 95.8938 26.4429 91.7598 24.2228V18.3558C91.7598 13.2807 87.6255 9 82.3777 9C77.13 9 72.9957 13.1227 72.9957 18.3558V24.2228C69.0201 26.4428 65.9984 30.0899 64.5675 34.3717L34.0352 34.2136C32.4445 34.3717 30.855 35.3241 30.0596 36.9092L7.63606 81.3107C7.00045 82.5795 6.84072 84.1646 7.15908 85.5926C10.9759 99.3885 21.6304 108.269 34.3525 108.269C47.0746 108.269 57.7288 99.3885 61.5459 85.5926C61.8642 84.1657 61.7045 82.7388 61.0689 81.3107L43.5759 46.741L64.5674 46.8992C66.1581 51.181 69.02 54.6697 72.9956 56.8898V116.356C72.9956 127.456 64.5674 136.812 53.4361 137.923L36.4201 139.825C34.5122 139.983 33.0801 141.728 33.0801 143.631V152.194C33.0801 154.256 34.8294 156 36.8969 156H128.494C130.561 156 132.311 154.256 132.311 152.194V143.631C132.311 141.729 130.88 140.143 128.971 139.825L111.319 137.923C100.188 136.654 91.7597 127.456 91.7597 116.356V56.8898C95.7352 54.6698 98.5971 51.181 100.188 46.8992L121.179 46.741L103.686 81.3107C103.051 82.5795 102.891 84.1646 103.209 85.5926C107.026 99.3885 117.681 108.269 130.403 108.269C143.125 108.269 153.779 99.3885 157.596 85.5926C158.231 84.1657 158.072 82.7388 157.436 81.3107H157.436ZM48.983 75.2857H19.8819L34.512 46.5833L48.983 75.2857ZM116.091 75.2857L130.721 46.5833L145.351 75.2857H116.091Z" fill="#333840"/>
</g>
</svg>
