<svg width="164" height="164" viewBox="0 0 164 164" fill="none" xmlns="http://www.w3.org/2000/svg">
<g opacity="0.5">
<g opacity="0.8">
<path d="M82 20.5C98.9827 20.5 112.75 34.1691 112.75 51.0309C112.75 67.8927 98.9827 81.5618 82 81.5618C65.0172 81.5618 51.25 67.8927 51.25 51.0309C51.25 34.1691 65.0172 20.5 82 20.5Z" fill="#58606E"/>
<path d="M63.3266 95.7897C59.3436 92.7627 54.4802 90.4827 49.6294 91.706C25.7177 97.7359 20.5002 111.039 20.5002 123.691L20.5 150.333H82.4153L81.9277 149.641L77.6398 142.236C73.4896 135.069 75.1135 126.034 81.3336 120.758L81.4062 120.696C75.7714 116.117 73.7565 108.458 76.1795 101.754L76.2603 101.531C71.4621 100.631 67.0577 98.6252 63.3266 95.7897Z" fill="#58606E"/>
</g>
<path d="M127.164 84.0499C128.811 84.0499 130.181 85.221 130.465 86.7654L130.519 87.3604L131.124 95.2257C134.362 96.2431 137.333 97.8501 139.908 99.9188L141.161 100.991L148.176 97.7301C149.587 96.9175 151.355 97.2665 152.381 98.4779L152.729 98.972L156.713 105.853C157.537 107.275 157.205 109.043 156.005 110.061L155.515 110.405L149.18 114.727C149.594 116.575 149.812 118.495 149.812 120.465C149.812 122.02 149.676 123.543 149.416 125.025L149.114 126.491L155.336 130.835C156.748 131.648 157.329 133.348 156.789 134.84L156.534 135.387L152.55 142.268C151.726 143.69 150.024 144.288 148.541 143.761L147.997 143.51L140.942 140.138C138.541 142.274 135.747 143.989 132.68 145.163L131.124 145.705L130.519 153.57C130.519 155.196 129.332 156.547 127.767 156.828L127.164 156.881H119.195C117.548 156.881 116.178 155.71 115.894 154.166L115.84 153.57L115.159 145.811C111.896 144.833 108.896 143.259 106.29 141.216L105.02 140.157L98.0047 143.51C96.593 144.323 94.8255 143.974 93.7994 142.762L93.4515 142.268L89.4672 135.387C88.6436 133.965 88.9758 132.197 90.1752 131.179L90.6651 130.835L96.8344 126.528C96.3723 124.581 96.1278 122.551 96.1278 120.465C96.1278 118.978 96.2521 117.519 96.491 116.099L96.7677 114.691L90.486 110.405C89.0744 109.592 88.4938 107.892 89.0329 106.4L89.2881 105.853L93.2725 98.972C94.0961 97.5497 95.7983 96.9524 97.2818 97.4792L97.8257 97.7301L104.799 100.972C107.309 98.694 110.259 96.8814 113.509 95.6732L115.159 95.1202L115.84 87.3604C115.84 85.7352 117.027 84.3836 118.592 84.1033L119.195 84.0499H127.164ZM122.996 108.538C116.305 108.538 110.881 113.89 110.881 120.491C110.881 127.093 116.305 132.445 122.996 132.445C129.687 132.445 135.111 127.093 135.111 120.491C135.111 113.89 129.687 108.538 122.996 108.538Z" fill="#58606E"/>
</g>
</svg>
