<svg width="37" height="31" viewBox="0 0 37 31" fill="none" xmlns="http://www.w3.org/2000/svg">
<g clip-path="url(#clip0_1505_3081)">
<path d="M36.9999 7.5004C36.8175 7.9779 36.4535 8.2186 35.9825 8.3865C30.3865 10.3771 24.7953 12.3783 19.206 14.3864C18.7562 14.5475 18.3421 14.5776 17.8787 14.4106C12.2103 12.3715 6.5371 10.348 0.865807 8.31953C0.155327 8.06525 -0.161301 7.47419 0.0800311 6.85499C0.222899 6.48909 0.507671 6.29693 0.868703 6.16882C5.14124 4.65769 9.41184 3.13976 13.6834 1.62378C15.1111 1.11716 16.5398 0.614419 17.9646 0.100033C18.3218 -0.0290487 18.6626 -0.0348719 19.0197 0.0922688C24.7181 2.11681 30.4164 4.14136 36.1176 6.1562C36.5501 6.30857 36.829 6.58227 36.9989 6.9928C36.9999 7.16168 36.9999 7.33055 36.9999 7.5004Z" fill="white"/>
<path d="M7.62035 13.0508C8.96408 13.5293 10.2316 13.9796 11.4981 14.4328C13.4229 15.1209 15.3487 15.8061 17.2707 16.504C18.1376 16.8194 18.9803 16.7796 19.8423 16.468C22.8725 15.3723 25.9104 14.295 28.9454 13.2119C29.068 13.1682 29.1915 13.1265 29.3605 13.0683C29.3701 13.2148 29.3836 13.3284 29.3836 13.4419C29.3856 14.8337 29.372 16.2264 29.3894 17.6181C29.3991 18.3402 29.122 18.906 28.5892 19.3641C27.7571 20.0794 26.7628 20.4754 25.7386 20.7996C23.0115 21.6643 20.2092 21.9409 17.3634 21.8206C14.8728 21.7148 12.4296 21.3402 10.1186 20.357C9.51721 20.1017 8.95153 19.7339 8.4206 19.3486C7.85299 18.9361 7.60683 18.3334 7.61648 17.6113C7.63482 16.2312 7.62228 14.8511 7.62228 13.472C7.62034 13.3546 7.62035 13.2371 7.62035 13.0508Z" fill="white"/>
<path d="M32.2303 12.0367C32.9466 11.7805 33.6445 11.531 34.3984 11.2612C34.3984 11.4272 34.3984 11.5524 34.3984 11.6776C34.3984 14.596 34.4004 17.5134 34.3936 20.4319C34.3926 20.657 34.4544 20.7958 34.6378 20.9404C35.7895 21.8498 35.7644 23.5056 34.6147 24.4217C34.4988 24.5139 34.4081 24.7129 34.4071 24.8624C34.3926 26.521 34.4023 28.1797 34.3955 29.8383C34.3926 30.6157 33.7748 31.1311 33.0634 30.9671C32.5605 30.8516 32.2322 30.4158 32.2313 29.8403C32.2284 28.2059 32.2255 26.5715 32.2351 24.9361C32.2371 24.6857 32.1763 24.5256 31.9677 24.3625C30.8634 23.5026 30.8567 21.8391 31.9581 20.9647C32.1772 20.791 32.2342 20.6192 32.2332 20.362C32.2265 17.7221 32.2293 15.0832 32.2293 12.4433C32.2303 12.3143 32.2303 12.1823 32.2303 12.0367Z" fill="white"/>
</g>
<defs>
<clipPath id="clip0_1505_3081">
<rect width="37" height="31" fill="white"/>
</clipPath>
</defs>
</svg>
