<svg width="35" height="37" viewBox="0 0 35 37" fill="none" xmlns="http://www.w3.org/2000/svg">
<path d="M0 25.7864C0.0628739 22.8917 0.958401 20.5281 2.82083 18.5718C4.10549 17.2229 5.43774 15.9181 6.76829 14.6133C7.58565 13.8107 8.74457 13.8022 9.50415 14.5505C10.2756 15.3106 10.262 16.4899 9.43448 17.3315C8.1889 18.6006 6.89404 19.824 5.66884 21.1118C2.14451 24.8125 3.92367 30.8037 8.8992 31.9592C11.2476 32.5055 13.3004 31.8404 15.0201 30.1742C16.2673 28.9661 17.4806 27.7224 18.7109 26.4973C19.2547 25.9561 19.9123 25.7915 20.6396 26.0002C21.3788 26.2123 21.8138 26.7366 21.9617 27.4814C22.0857 28.1059 21.9056 28.6726 21.4655 29.1154C20.0177 30.5729 18.6328 32.1068 17.0728 33.4337C14.0175 36.0348 10.4812 36.6813 6.7309 35.2696C2.96187 33.8494 0.759584 31.0311 0.124048 27.0352C0.0458809 26.5584 0.0271887 26.0697 0 25.7864Z" fill="white"/>
<path d="M23.9607 2C28.0142 2.23107 31.3215 4.18832 33.0667 8.25915C34.8052 12.3147 34.0877 16.1086 31.1417 19.4029C29.9019 20.7893 28.5332 22.0636 27.2086 23.3718C26.3843 24.1857 25.248 24.2043 24.4797 23.4534C23.708 22.7007 23.725 21.4978 24.5374 20.6721C25.8433 19.3435 27.2154 18.076 28.4603 16.6913C31.7523 13.0317 29.9782 7.24654 25.209 6.04364C22.9804 5.48127 20.9536 5.99097 19.2644 7.54556C17.894 8.80623 16.6287 10.179 15.2906 11.4737C14.1678 12.5593 12.4599 12.1006 12.0698 10.6344C11.8849 9.94117 12.0732 9.32103 12.565 8.82152C13.949 7.42154 15.3143 5.99947 16.7559 4.66235C18.6843 2.87499 21.0215 2.06116 23.9607 2Z" fill="white"/>
<path d="M24 14.1338C23.8774 14.3558 23.7216 14.8777 23.3819 15.2207C20.0127 18.632 16.6203 22.0169 13.2197 25.3984C12.4209 26.192 11.2973 26.1904 10.5532 25.4531C9.79581 24.7026 9.81238 23.5594 10.6261 22.7426C13.9953 19.3627 17.3727 15.9894 20.7518 12.6162C21.3484 12.0197 22.0544 11.8375 22.8515 12.1523C23.5327 12.4223 23.9934 13.1232 24 14.1338Z" fill="white"/>
</svg>
