<svg width="20" height="23" viewBox="0 0 20 23" fill="none" xmlns="http://www.w3.org/2000/svg">
<g clip-path="url(#clip0_1505_3047)">
<path d="M10.6293 0C11.1099 0.0732529 11.6004 0.108481 12.0704 0.225351C16.2285 1.26207 18.7972 3.89303 19.7938 8.08131C19.8694 8.39836 19.9044 8.72604 19.9383 9.05093C19.971 9.36798 19.9788 9.6884 20.0005 10.0608C19.8761 9.97973 19.7933 9.91095 19.6988 9.86789C19.4039 9.73481 19.1083 9.59949 18.8039 9.491C18.6733 9.44459 18.6183 9.3965 18.605 9.25279C18.4617 7.71057 17.9534 6.29975 17.0623 5.036C16.0435 3.58995 14.7108 2.54372 13.0631 1.90905C11.7987 1.422 10.4888 1.24921 9.14554 1.38789C7.43452 1.56403 5.90349 2.19926 4.56801 3.29638C3.14587 4.46507 2.18592 5.94523 1.69095 7.72063C1.54985 8.22557 1.50152 8.7568 1.40374 9.2746C1.39097 9.34226 1.34875 9.43509 1.29542 9.45857C0.879884 9.63919 0.458241 9.80526 0.000488281 9.99147C0.0560408 9.45745 0.0738175 8.89268 0.178812 8.34524C0.85433 4.83078 2.822 2.32284 6.05126 0.829827C7.0451 0.370179 8.10059 0.120224 9.19331 0.0380244C9.25831 0.0329918 9.32275 0.0128612 9.38719 0C9.80161 0 10.2155 0 10.6293 0Z" fill="#CC092F"/>
<path d="M11.8823 20.1716C12.6439 20.1716 13.3989 20.2001 14.1505 20.1637C14.9721 20.124 15.6837 19.5229 15.8615 18.8234C15.5282 18.8077 15.1749 18.8457 14.8499 18.7652C13.9344 18.5393 13.3489 17.79 13.3405 16.8349C13.3244 15.0198 13.315 13.2036 13.3422 11.389C13.3661 9.78531 15.0071 8.87105 16.3726 9.68522C17.007 10.0632 17.3192 10.6621 17.3225 11.3963C17.3325 13.6878 17.3448 15.9799 17.3181 18.2709C17.2975 20.0368 15.8504 21.4711 14.0949 21.5153C13.4155 21.5321 12.735 21.5231 12.055 21.5175C11.9245 21.5164 11.8639 21.56 11.8095 21.678C11.4051 22.5548 10.499 23.0117 9.58074 22.8109C8.69468 22.6174 8.04749 21.8228 8.01527 20.8896C7.98361 19.9742 8.63024 19.1354 9.54908 18.8989C10.4168 18.6758 11.3823 19.1309 11.7806 19.9513C11.8162 20.0245 11.849 20.0989 11.8823 20.1716Z" fill="#CC092F"/>
<path d="M6.68203 14.1318C6.68203 15.0097 6.68647 15.8876 6.68092 16.765C6.67536 17.6776 6.14428 18.456 5.36266 18.7132C4.02162 19.1549 2.71947 18.2625 2.69781 16.8416C2.67003 15.0198 2.6667 13.1963 2.69836 11.3745C2.72614 9.78192 4.35882 8.87717 5.7193 9.68071C6.37927 10.0705 6.67481 10.6928 6.67981 11.4533C6.68703 12.3463 6.68203 13.2388 6.68203 14.1318Z" fill="#CC092F"/>
<path d="M1.37993 10.8555C1.37993 13.0285 1.37993 15.1891 1.37993 17.3733C0.85329 17.1949 0.454423 16.8577 0.236657 16.3489C0.117219 16.0698 0.0461121 15.7506 0.0377793 15.4464C0.0122251 14.555 0.0238912 13.662 0.0300019 12.7701C0.0361127 11.8592 0.58886 11.0808 1.37993 10.8555Z" fill="#CC092F"/>
<path d="M18.6367 17.3626C18.6367 15.1901 18.6367 13.0295 18.6367 10.8447C19.0556 10.9773 19.3795 11.2373 19.6311 11.5951C19.8733 11.939 19.9861 12.3271 19.9872 12.7471C19.9894 13.6541 19.9944 14.5611 19.9861 15.468C19.9778 16.3644 19.4256 17.1322 18.6367 17.3626Z" fill="#CC092F"/>
</g>
<defs>
<clipPath id="clip0_1505_3047">
<rect width="20" height="22.8571" fill="white"/>
</clipPath>
</defs>
</svg>
