<svg width="31" height="31" viewBox="0 0 31 31" fill="none" xmlns="http://www.w3.org/2000/svg">
<g clip-path="url(#clip0_1510_3389)">
<path d="M31.0001 4.30624C31.0001 12.6377 31.0001 20.9692 31.0001 29.3008C30.6031 30.6632 29.733 31.0025 28.5188 31.0001C19.782 30.9814 11.0453 30.9903 2.30938 30.9871C2.03883 30.9871 1.75948 30.983 1.50014 30.9146C0.530015 30.6599 0.000928503 29.8892 0.000128069 28.7742C0.000128069 20.7837 0.000128069 12.7932 0.000128069 4.80188C0.000128069 4.73026 -0.000672364 4.65783 0.00172894 4.58621C0.0441519 3.45169 0.857393 2.62236 1.974 2.58574C2.37742 2.5719 2.78083 2.58248 3.18425 2.58248C3.89904 2.58248 4.61303 2.58248 5.36544 2.58248C5.36544 2.71677 5.36544 2.82745 5.36544 2.93733C5.36544 3.90175 5.34543 4.86618 5.37584 5.82979C5.38785 6.21068 5.44068 6.62005 5.59596 6.95943C6.01219 7.87014 6.7694 8.25754 7.74753 8.25428C9.32838 8.2494 10.2313 7.3452 10.2313 5.74515C10.2313 4.80107 10.2313 3.8578 10.2313 2.91372C10.2313 2.80629 10.2313 2.69886 10.2313 2.59794C13.8484 2.59794 17.416 2.59794 21.0123 2.59794C21.0123 2.72328 21.0123 2.83315 21.0123 2.94384C21.0123 3.91803 21.0059 4.89304 21.0139 5.86723C21.0227 6.85933 21.4477 7.60889 22.3442 8.0264C22.9518 8.30963 23.6089 8.28277 24.2469 8.15825C25.3411 7.94502 25.8741 7.27033 25.8806 6.1358C25.887 5.06883 25.8822 4.00186 25.8822 2.9357C25.8822 2.82501 25.8822 2.71514 25.8822 2.6012C27.0268 2.6012 28.1346 2.58981 29.2424 2.61015C29.4641 2.61422 29.6946 2.7127 29.9011 2.81036C30.5263 3.10742 30.8344 3.65515 31.0001 4.30624ZM2.00682 28.9581C11.0197 28.9581 20.0046 28.9581 28.995 28.9581C28.995 22.8257 28.995 16.7152 28.995 10.5884C19.9934 10.5884 11.0085 10.5884 2.00682 10.5884C2.00682 16.7144 2.00682 22.8249 2.00682 28.9581Z" fill="white"/>
<path d="M6.35636 3.66085C6.35636 2.91209 6.35395 2.16415 6.35716 1.4154C6.36116 0.566543 6.85823 0.0652042 7.69868 0.0603211C7.86998 0.0595072 8.04367 0.0529963 8.21176 0.0806676C8.81689 0.1824 9.22831 0.660137 9.23632 1.3389C9.25313 2.87628 9.25553 4.4153 9.23712 5.95268C9.22751 6.75759 8.72004 7.2337 7.92601 7.24916C7.76512 7.25242 7.60183 7.25242 7.44334 7.23044C6.79659 7.14011 6.36996 6.66155 6.36116 5.99826C6.34995 5.21939 6.35876 4.43971 6.35876 3.66085C6.35716 3.66085 6.35716 3.66085 6.35636 3.66085Z" fill="white"/>
<path d="M24.8886 3.62736C24.8894 4.36553 24.891 5.10371 24.8886 5.84188C24.8853 6.71922 24.4059 7.20347 23.5366 7.20917C23.3957 7.20998 23.2541 7.2108 23.1132 7.20022C22.5633 7.1579 22.1006 6.72655 22.0366 6.16905C22.0014 5.86467 22.007 5.5554 22.0062 5.24857C22.003 3.99767 22.0102 2.74676 22.003 1.49586C21.9998 0.948129 22.1255 0.454928 22.6385 0.199376C23.1796 -0.0708265 23.7591 -0.0683849 24.2962 0.218908C24.7005 0.435396 24.8861 0.822794 24.8878 1.28914C24.8894 2.06882 24.8878 2.84768 24.8886 3.62736Z" fill="white"/>
<path d="M6.67972 27.0153C6.13543 27.0153 5.59033 27.0096 5.04604 27.0177C4.76909 27.0218 4.64022 26.916 4.64342 26.6205C4.65142 25.6675 4.65222 24.7137 4.64262 23.7598C4.64022 23.4741 4.74587 23.3456 5.03083 23.3472C6.12982 23.3521 7.22882 23.3521 8.32782 23.348C8.60957 23.3472 8.72243 23.4725 8.72003 23.7598C8.71122 24.7031 8.71763 25.6463 8.71603 26.5896C8.71523 26.9428 8.64239 27.0128 8.28299 27.0144C7.7491 27.0169 7.21441 27.0153 6.67972 27.0153Z" fill="white"/>
<path d="M12.4931 27.0156C11.9488 27.0156 11.4037 27.0099 10.8594 27.018C10.5824 27.0221 10.4544 26.9179 10.4576 26.6217C10.4664 25.6581 10.4664 24.6944 10.4576 23.7308C10.4552 23.4468 10.584 23.3483 10.8434 23.3491C11.9424 23.3524 13.0414 23.3532 14.1404 23.3491C14.4213 23.3483 14.5358 23.4736 14.5334 23.7609C14.5246 24.7042 14.5318 25.6475 14.5294 26.5907C14.5286 26.9431 14.4549 27.0139 14.0964 27.0156C13.5617 27.0172 13.0278 27.0156 12.4931 27.0156Z" fill="white"/>
<path d="M18.2867 27.0154C17.7424 27.0154 17.1973 27.0113 16.653 27.017C16.388 27.0203 16.2688 26.9096 16.2704 26.6313C16.2776 25.6677 16.2784 24.704 16.2696 23.7404C16.2672 23.4645 16.3808 23.3473 16.6466 23.3481C17.756 23.3514 18.8646 23.3506 19.974 23.349C20.2429 23.3481 20.3478 23.4784 20.3454 23.7494C20.3374 24.7024 20.3374 25.6563 20.3454 26.6101C20.3478 26.899 20.2317 27.0211 19.95 27.0179C19.3961 27.0105 18.8414 27.0154 18.2867 27.0154Z" fill="white"/>
<path d="M24.1035 27.0156C23.5592 27.0156 23.0141 27.0115 22.4698 27.0172C22.2073 27.0205 22.0832 26.9163 22.0848 26.6355C22.0928 25.6719 22.0928 24.7083 22.084 23.7447C22.0816 23.4704 22.1881 23.3483 22.4562 23.3491C23.5656 23.3524 24.6742 23.3516 25.7836 23.3499C26.0502 23.3491 26.1606 23.4736 26.1582 23.7471C26.151 24.7001 26.1566 25.654 26.1542 26.6078C26.1534 26.9391 26.0758 27.0139 25.7356 27.0156C25.1921 27.018 24.6478 27.0156 24.1035 27.0156Z" fill="white"/>
<path d="M18.3068 16.7421C17.7625 16.7421 17.2183 16.734 16.674 16.7454C16.3954 16.7511 16.2681 16.6485 16.2705 16.3523C16.2785 15.3887 16.2769 14.4251 16.2713 13.4623C16.2697 13.2043 16.3714 13.0871 16.6283 13.0879C17.7473 13.092 18.8663 13.0912 19.9854 13.0879C20.2407 13.0871 20.3471 13.2026 20.3455 13.4623C20.3399 14.4259 20.3383 15.3895 20.3463 16.3523C20.3488 16.6494 20.2175 16.7503 19.9405 16.7446C19.3954 16.7348 18.8511 16.7421 18.3068 16.7421Z" fill="white"/>
<path d="M24.1018 16.7412C23.5575 16.7412 23.0132 16.7346 22.4689 16.7436C22.2023 16.7477 22.0831 16.6427 22.0855 16.3635C22.0927 15.3901 22.0911 14.416 22.0863 13.4426C22.0847 13.196 22.1895 13.0869 22.4297 13.0869C23.5591 13.0894 24.6877 13.0894 25.8171 13.0877C26.0588 13.0877 26.1597 13.2057 26.1589 13.4483C26.1549 14.4216 26.1549 15.3958 26.1589 16.3692C26.1605 16.6272 26.0524 16.7444 25.7963 16.742C25.2304 16.7379 24.6661 16.7412 24.1018 16.7412Z" fill="white"/>
<path d="M6.69059 21.8719C6.13589 21.8719 5.58199 21.8662 5.02729 21.8743C4.76235 21.8784 4.64148 21.7734 4.64308 21.4942C4.65029 20.5306 4.64949 19.567 4.64388 18.6042C4.64228 18.3324 4.74954 18.2152 5.02169 18.2168C6.13029 18.2233 7.23969 18.2225 8.34829 18.2176C8.60043 18.2168 8.71889 18.3218 8.71809 18.5831C8.71409 19.5564 8.71329 20.5306 8.71889 21.504C8.72049 21.7661 8.60603 21.8759 8.35389 21.8735C7.79919 21.8686 7.24449 21.8719 6.69059 21.8719Z" fill="white"/>
<path d="M12.5036 18.2193C13.0479 18.2193 13.5922 18.2266 14.1365 18.216C14.4207 18.2103 14.5359 18.33 14.5335 18.6189C14.5263 19.5719 14.5263 20.5249 14.5335 21.4788C14.5351 21.7482 14.4359 21.8751 14.1621 21.8743C13.0535 21.8694 11.9441 21.8686 10.8355 21.8751C10.5666 21.8768 10.4561 21.7661 10.4585 21.4894C10.4665 20.5258 10.4657 19.5621 10.4593 18.5993C10.4577 18.3226 10.5722 18.2128 10.8411 18.2168C11.3942 18.2258 11.9489 18.2193 12.5036 18.2193Z" fill="white"/>
<path d="M18.3036 18.2193C18.8583 18.2193 19.4122 18.225 19.9669 18.2169C20.2383 18.2128 20.3471 18.3333 20.3447 18.6059C20.3383 19.5695 20.3391 20.5331 20.3447 21.4959C20.3463 21.7531 20.2447 21.8736 19.9877 21.8728C18.8687 21.8695 17.7497 21.8695 16.6307 21.8736C16.3754 21.8744 16.2689 21.7621 16.2705 21.5016C16.2769 20.5283 16.2761 19.5541 16.2713 18.5807C16.2697 18.3178 16.3874 18.2136 16.6403 18.2169C17.195 18.2242 17.7497 18.2193 18.3036 18.2193Z" fill="white"/>
<path d="M24.1211 18.2192C24.6654 18.2192 25.2097 18.2266 25.754 18.216C26.0318 18.2111 26.1614 18.3136 26.159 18.6099C26.151 19.5735 26.1526 20.5371 26.1582 21.4999C26.1598 21.7604 26.051 21.8735 25.7973 21.8727C24.6782 21.8694 23.5592 21.8694 22.4402 21.8727C22.2065 21.8735 22.0848 21.7823 22.0864 21.5284C22.0912 20.5444 22.0912 19.5605 22.0864 18.5765C22.0848 18.3096 22.2089 18.2135 22.4578 18.2168C23.0117 18.2241 23.5664 18.2192 24.1211 18.2192Z" fill="white"/>
</g>
<defs>
<clipPath id="clip0_1510_3389">
<rect width="31" height="31" fill="white"/>
</clipPath>
</defs>
</svg>
