<svg width="20" height="20" viewBox="0 0 20 20" fill="none" xmlns="http://www.w3.org/2000/svg">
<g clip-path="url(#clip0_1505_3056)">
<path d="M0.31154 19.9998C0.148192 19.9173 0.0151125 19.8103 0.00102174 19.6095C-0.0146347 19.3856 0.151323 19.191 0.383038 19.1753C0.523945 19.1654 0.665897 19.1738 0.829245 19.1738C0.829245 19.071 0.829245 18.9943 0.829245 18.9181C0.829245 17.5249 0.829245 16.1318 0.829245 14.7391C0.829245 14.2977 0.957106 14.1704 1.39966 14.1704C2.13551 14.1699 2.87084 14.1699 3.60669 14.1704C4.0362 14.1704 4.16928 14.3019 4.16928 14.7271C4.1698 16.1203 4.16928 17.5135 4.16928 18.9061C4.16928 18.9833 4.16928 19.0611 4.16928 19.1539C4.7256 19.1539 5.26731 19.1539 5.82938 19.1539C5.82938 19.0626 5.82938 18.9791 5.82938 18.8962C5.82938 16.1297 5.82938 13.3632 5.82938 10.5962C5.82938 10.1203 5.95202 9.99923 6.43267 9.99923C7.16173 9.99923 7.8908 9.99923 8.61987 9.99923C9.02745 9.99923 9.16941 10.1412 9.16941 10.5523C9.16993 13.3319 9.16941 16.1114 9.16941 18.891C9.16941 18.975 9.16941 19.0585 9.16941 19.1555C9.72312 19.1555 10.2601 19.1555 10.8191 19.1555C10.8227 19.0731 10.8295 18.9917 10.8295 18.9103C10.83 16.6906 10.83 14.4709 10.83 12.2507C10.83 11.7926 10.9521 11.6689 11.4067 11.6689C12.1551 11.6684 12.904 11.6679 13.6524 11.6695C14.0255 11.67 14.169 11.8145 14.169 12.1933C14.1701 14.4261 14.1695 16.6588 14.1695 18.892C14.1695 18.9755 14.1695 19.0595 14.1695 19.156C14.7238 19.156 15.2608 19.156 15.8302 19.156C15.8302 19.072 15.8302 18.9911 15.8302 18.9097C15.8302 15.0365 15.8302 11.1633 15.8302 7.29013C15.8302 7.21186 15.8265 7.13307 15.8359 7.05637C15.8641 6.82157 16.0133 6.67442 16.2508 6.67286C17.0842 6.66764 17.9172 6.66764 18.7506 6.67286C18.9875 6.67442 19.1357 6.82105 19.1644 7.05741C19.1738 7.13464 19.1702 7.21343 19.1702 7.29117C19.1702 11.1581 19.1702 15.0245 19.1702 18.8915C19.1702 18.975 19.1702 19.059 19.1702 19.1628C19.4828 19.1816 19.8267 19.0955 20.0005 19.4529C20.0005 19.5312 20.0005 19.6089 20.0005 19.6872C19.8961 19.7916 19.7923 19.8954 19.6879 19.9998C13.2286 19.9998 6.7698 19.9998 0.31154 19.9998Z" fill="#CC092F"/>
<path d="M10.8485 6.38945C10.24 6.21465 9.63563 6.03881 9.0292 5.87184C8.98536 5.85984 8.90499 5.89584 8.87316 5.93549C8.21559 6.75 7.42807 6.88775 6.496 6.33362C5.65368 7.00515 4.80667 7.68086 3.9534 8.36127C4.1585 8.76461 4.22165 9.17108 4.10527 9.59999C3.8532 10.5267 2.87259 11.0547 1.97287 10.7458C1.04966 10.4286 0.589362 9.42258 0.959897 8.53242C1.32991 7.64382 2.35853 7.24778 3.21859 7.67356C3.34541 7.73617 3.41899 7.72626 3.52494 7.64121C4.33489 6.98793 5.15059 6.34092 5.97516 5.68347C5.82799 5.3104 5.78728 4.93054 5.89792 4.54076C6.10615 3.8087 6.83313 3.28431 7.57316 3.33596C8.40399 3.39388 9.0553 3.98245 9.14088 4.78183C9.16333 4.99159 9.24056 5.07403 9.4394 5.12516C9.98685 5.265 10.5275 5.43302 11.0729 5.58172C11.1334 5.59842 11.2315 5.5859 11.2738 5.54572C11.9162 4.94567 12.5174 4.84757 13.3405 5.22743C13.3822 5.18882 13.4302 5.1476 13.4746 5.10273C14.2944 4.28352 15.1122 3.46328 15.9347 2.64669C16.0287 2.55329 16.0584 2.48859 15.9932 2.35188C15.6456 1.62086 15.8888 0.757304 16.5558 0.295525C17.2185 -0.163124 18.1141 -0.0785946 18.6835 0.496412C19.2466 1.06464 19.3254 1.95167 18.8719 2.61016C18.4116 3.27805 17.5505 3.51807 16.8156 3.17369C16.6982 3.1189 16.6299 3.11942 16.5328 3.21752C15.7087 4.05029 14.8795 4.87836 14.0476 5.7033C13.9604 5.78992 13.9464 5.85253 14.0012 5.96784C14.3085 6.61642 14.1718 7.35736 13.6651 7.85462C13.1609 8.34875 12.4079 8.47085 11.7685 8.16143C11.1418 7.85827 10.7785 7.19926 10.8485 6.49537C10.8511 6.46458 10.8485 6.43275 10.8485 6.38945Z" fill="#CC092F"/>
</g>
<defs>
<clipPath id="clip0_1505_3056">
<rect width="20" height="20" fill="white"/>
</clipPath>
</defs>
</svg>
