<svg width="35" height="37" viewBox="0 0 35 37" fill="none" xmlns="http://www.w3.org/2000/svg">
<g clip-path="url(#clip0_1510_3368)">
<path d="M1.86504 37.0001C0.852648 36.5812 0.599079 36.1941 0.599079 35.0638C0.599079 34.3167 0.595322 33.5705 0.600018 32.8234C0.606592 31.804 1.23864 31.1457 2.22661 31.1457C9.86749 31.1428 17.5084 31.1428 25.1492 31.1457C26.1278 31.1457 26.7561 31.7876 26.7683 32.7896C26.7777 33.5242 26.7702 34.2587 26.7702 34.9933C26.7702 36.1777 26.5307 36.5532 25.492 37.0001C17.6173 37.0001 9.74164 37.0001 1.86504 37.0001Z" fill="white"/>
<path d="M13.2829 27.3695C6.02798 27.3801 0.0296698 21.2216 -0.000382813 13.732C-0.0294963 6.22605 5.97257 0.0115996 13.2641 1.62955e-05C20.6082 -0.011567 26.614 6.15365 26.6225 13.7127C26.63 21.1994 20.6138 27.3588 13.2829 27.3695ZM13.3467 17.7206C15.5255 17.7225 17.263 15.9406 17.2545 13.7127C17.246 11.5428 15.5274 9.71745 13.481 9.70683C11.2055 9.69525 9.46337 11.426 9.45585 13.704C9.44834 15.9483 11.1651 17.7186 13.3467 17.7206ZM12.817 3.93062C9.45679 4.22696 6.80841 5.83608 5.08226 8.94233C4.29338 10.3613 3.9459 11.9106 3.97501 13.5467C3.98346 14.0235 4.29808 14.3884 4.7066 14.4039C5.13767 14.4203 5.44008 14.1027 5.46919 13.5998C5.47295 13.5274 5.47388 13.455 5.4767 13.3836C5.65608 9.42883 8.20679 6.36022 11.9559 5.60924C12.3897 5.52236 12.8396 5.51753 13.2819 5.48085C13.7571 5.44128 14.1168 5.08316 14.0962 4.6594C14.0755 4.22406 13.7374 3.93352 13.25 3.93062C13.1345 3.93062 13.0171 3.93062 12.817 3.93062Z" fill="white"/>
<path d="M28.3844 33.8184C28.361 33.3097 28.4004 32.857 28.3046 32.4371C28.1985 31.9748 28.3384 31.7074 28.653 31.3908C31.7428 28.2739 33.3093 24.4842 33.3797 20.0295C33.4135 17.9194 33.2426 15.8479 32.4923 13.8536C32.9684 13.5949 33.4276 13.3459 33.9357 13.0698C35.2167 16.8817 35.3332 20.7476 34.333 24.6261C33.375 28.3424 31.3427 31.3666 28.3844 33.8184Z" fill="white"/>
<path d="M27.751 9.23959C27.7566 7.46348 29.1851 6.00301 30.9131 6.00881C32.6411 6.0146 34.0658 7.48664 34.0573 9.25889C34.0489 11.0379 32.6186 12.4984 30.8943 12.4906C29.1635 12.4819 27.7454 11.0147 27.751 9.23959Z" fill="white"/>
<path d="M13.2333 11.337C14.5801 11.3506 15.6056 12.3998 15.5925 13.7512C15.5793 15.0611 14.519 16.1267 13.2446 16.1113C11.9805 16.0959 10.9306 14.9887 10.9475 13.6885C10.9653 12.3332 11.9467 11.3235 13.2333 11.337Z" fill="white"/>
</g>
<defs>
<clipPath id="clip0_1510_3368">
<rect width="35" height="37" fill="white"/>
</clipPath>
</defs>
</svg>
