<svg width="20" height="20" viewBox="0 0 20 20" fill="none" xmlns="http://www.w3.org/2000/svg">
<g clip-path="url(#clip0_1505_3064)">
<path d="M5.58593 15.1741C5.24325 15.5209 4.96584 15.8038 4.68571 16.0847C3.8528 16.9191 3.02058 17.7536 2.18291 18.5839C2.08908 18.6771 1.97621 18.7723 1.85382 18.8111C1.62605 18.8832 1.41731 18.8172 1.26841 18.6166C1.12834 18.4282 1.12902 18.1698 1.27317 17.9773C1.32892 17.9032 1.39691 17.8379 1.46219 17.7719C2.49295 16.7396 3.5244 15.708 4.55721 14.6777C4.62316 14.6124 4.70543 14.5641 4.79858 14.4947C4.69727 14.3879 4.63608 14.3206 4.57149 14.256C3.14432 12.8286 1.71716 11.4011 0.289997 9.97366C-0.0996005 9.58398 -0.10436 9.32011 0.310394 8.94948C2.51675 6.97729 5.04131 6.38972 7.8902 7.22144C7.97995 7.24796 8.12749 7.25272 8.18189 7.19967C9.22149 6.17686 10.2502 5.14384 11.3238 4.07138C11.1838 3.94625 11.0451 3.83744 10.924 3.71231C10.0768 2.83638 10.0653 1.52114 10.8934 0.66494C11.7202 -0.190581 13.044 -0.229344 13.9381 0.599654C14.4787 1.10086 14.9879 1.63675 15.5094 2.15836C16.7755 3.42328 18.0449 4.6848 19.3041 5.95652C20.2614 6.92289 20.2234 8.34966 19.2341 9.19838C18.4154 9.90089 17.1977 9.89477 16.3947 9.17322C16.2322 9.02701 16.1017 8.84407 15.9174 8.63325C15.7141 8.85903 15.5625 9.04129 15.3966 9.20858C14.5596 10.0512 13.7226 10.8931 12.8761 11.7255C12.7408 11.8588 12.7272 11.9669 12.7782 12.1444C13.5955 14.9714 13.0107 17.485 11.062 19.6823C10.6867 20.1059 10.4148 20.0998 10.017 19.702C8.6014 18.2868 7.1858 16.8715 5.77359 15.4536C5.70356 15.3822 5.65937 15.285 5.58593 15.1741Z" fill="#CC092F"/>
</g>
<defs>
<clipPath id="clip0_1505_3064">
<rect width="20" height="20" fill="white"/>
</clipPath>
</defs>
</svg>
