<svg width="20" height="20" viewBox="0 0 20 20" fill="none" xmlns="http://www.w3.org/2000/svg">
<g clip-path="url(#clip0_1505_3071)">
<path d="M5.87914 3.43723C6.52139 3.16835 7.12131 2.8935 7.73852 2.66576C8.26568 2.4708 8.27165 2.49405 8.31339 1.93184C8.34857 1.45011 8.38674 0.967788 8.43266 0.486658C8.46248 0.174847 8.65032 0.00612331 8.96519 0.00373852C9.65694 -0.000434851 10.3493 -0.00222344 11.041 0.00433472C11.4913 0.00850809 11.6934 0.384708 11.4722 0.771639C10.561 2.36468 10.4739 4.0066 11.1883 5.69384C11.2086 5.74153 11.2313 5.78863 11.2498 5.83692C11.2539 5.84765 11.245 5.86256 11.239 5.89237C10.0607 5.56863 8.92881 5.67953 7.86256 6.29122C7.02828 6.76997 6.423 7.45917 6.04969 8.34393C5.30009 10.1194 5.83799 12.1673 7.3515 13.3663C8.82922 14.5372 11.1007 14.6886 12.842 13.2166C12.8491 13.2846 12.8605 13.3383 12.8605 13.3919C12.8617 14.5748 12.8575 15.7576 12.8658 16.9399C12.867 17.0961 12.8163 17.1641 12.6732 17.2046C12.4162 17.2773 12.1669 17.3787 11.9075 17.4413C11.7704 17.4747 11.7286 17.5379 11.7191 17.6661C11.6755 18.2742 11.6302 18.8823 11.576 19.4898C11.5455 19.8314 11.3613 19.9966 11.0208 19.9984C10.3433 20.0014 9.66648 20.0014 8.98904 19.9984C8.64436 19.9972 8.46009 19.835 8.43027 19.4946C8.37779 18.902 8.33307 18.3088 8.29371 17.7155C8.28298 17.554 8.23348 17.4735 8.05995 17.4312C7.31095 17.2487 6.61323 16.9375 5.93579 16.5196C5.69785 16.7223 5.45574 16.9274 5.21422 17.1337C4.94825 17.3608 4.68586 17.5921 4.41691 17.8151C4.142 18.0434 3.8987 18.0333 3.64704 17.7841C3.17653 17.3179 2.709 16.8493 2.24147 16.3801C1.96 16.0981 1.94807 15.862 2.20271 15.5615C2.58794 15.1078 2.97318 14.6547 3.36617 14.2075C3.45323 14.1086 3.46814 14.0382 3.39658 13.9213C3.01373 13.2959 2.73584 12.6246 2.55872 11.914C2.52235 11.7685 2.45675 11.7232 2.32019 11.7136C1.71908 11.6707 1.11857 11.6266 0.518054 11.5735C0.160847 11.5419 0.00102857 11.3613 -0.00016411 11.0053C-0.00254946 10.3358 -0.00254946 9.66629 -0.00016411 8.99676C0.00102857 8.63905 0.159655 8.4584 0.515669 8.4268C1.10843 8.37433 1.70179 8.33022 2.29574 8.28908C2.44661 8.27835 2.52414 8.23363 2.56469 8.06729C2.73703 7.36319 3.01612 6.69962 3.39479 6.08077C3.46456 5.96689 3.458 5.89595 3.36855 5.794C2.97974 5.35341 2.60047 4.90447 2.21881 4.45733C1.9445 4.13538 1.95404 3.90763 2.25519 3.60536C2.71198 3.14689 3.16937 2.68901 3.62856 2.23292C3.89989 1.96344 4.13962 1.95092 4.43182 2.19774C4.93275 2.62164 5.42711 3.04971 5.87914 3.43723Z" fill="#CC092F"/>
<path d="M14.2899 12.7296C14.2899 10.8927 14.2875 9.05582 14.294 7.21894C14.2946 7.05796 14.2517 6.96854 14.1098 6.88686C11.5527 5.4226 11.4883 1.73095 13.9911 0.176667C14.0662 0.130164 14.1617 0.115259 14.2481 0.0854492C14.2624 0.170109 14.2881 0.254769 14.2887 0.338833C14.2911 1.58846 14.2934 2.83749 14.2869 4.08712C14.2863 4.23736 14.328 4.3095 14.47 4.36375C14.9631 4.55036 15.4486 4.75605 15.9417 4.94385C16.0216 4.97426 16.1326 4.97426 16.2125 4.94385C16.705 4.75665 17.1911 4.55096 17.6842 4.36375C17.8268 4.3101 17.8679 4.23676 17.8673 4.08712C17.8607 2.83034 17.8625 1.57356 17.8655 0.316773C17.8655 0.239864 17.8918 0.162955 17.9061 0.0854492C17.986 0.111682 18.0742 0.12301 18.144 0.16534C20.6462 1.69101 20.614 5.37133 18.0808 6.8642C17.9049 6.96794 17.8596 7.07525 17.8601 7.26425C17.8649 10.8933 17.8649 14.5229 17.8631 18.152C17.8625 19.0612 17.2841 19.7897 16.4421 19.9579C15.3233 20.1808 14.3 19.3605 14.2946 18.2176C14.2839 16.3884 14.2905 14.5587 14.2899 12.7296Z" fill="#CC092F"/>
</g>
<defs>
<clipPath id="clip0_1505_3071">
<rect width="20" height="20" fill="white"/>
</clipPath>
</defs>
</svg>
