<svg width="35" height="20" viewBox="0 0 35 20" fill="none" xmlns="http://www.w3.org/2000/svg">
<g clip-path="url(#clip0_1505_3096)">
<path d="M22.6404 14.8284C21.9165 17.5149 20.3743 19.282 17.688 19.8899C17.4212 19.951 17.141 19.9778 16.8683 19.9778C13.1337 19.9823 9.39914 20.0359 5.66752 19.9614C2.58904 19.9003 0.13422 17.3852 0.0383866 14.2786C-0.00584441 12.8348 -0.0544985 11.3597 0.178451 9.94576C0.619287 7.26826 2.95911 5.31043 5.64983 5.22848C7.70804 5.1659 9.76921 5.19272 11.8304 5.20762C12.2344 5.2106 12.3877 5.08693 12.4983 4.6906C13.2885 1.82387 15.6608 0.0135484 18.6066 0.0075885C22.0094 0.00162858 25.4122 -0.00433134 28.8166 0.00907848C31.9216 0.0209983 34.4 1.96691 34.8305 4.97369C35.059 6.57244 35.059 8.25761 34.8334 9.85636C34.4206 12.7871 31.9805 14.7807 29.051 14.8225C27.1196 14.8493 25.1881 14.8284 23.2567 14.8299C23.0533 14.8284 22.8527 14.8284 22.6404 14.8284ZM22.6316 11.2316C22.7893 11.242 22.9161 11.2569 23.0415 11.2569C24.9906 11.2584 26.9397 11.2644 28.8888 11.2554C30.4162 11.248 31.3982 10.2646 31.4291 8.71205C31.4468 7.85829 31.4454 7.00304 31.4291 6.1478C31.4011 4.56991 30.4207 3.58205 28.8549 3.57758C25.3975 3.56715 21.9401 3.57311 18.4842 3.57609C17.8428 3.57609 17.2236 3.69976 16.7518 4.16314C16.4864 4.42389 16.3066 4.77254 16.022 5.17335C19.6268 5.02137 22.4856 7.52454 22.6316 11.2316ZM18.8749 14.8821C14.9457 14.7226 12.7489 12.732 12.3095 8.81039C12.2358 8.79698 12.1651 8.77165 12.0943 8.77165C10.0346 8.77016 7.97343 8.74781 5.91374 8.78208C4.52194 8.80592 3.59309 9.78186 3.54738 11.1988C3.52232 12.0153 3.53559 12.8348 3.53853 13.6513C3.54443 15.4959 4.46149 16.4227 6.29118 16.4257C9.6203 16.4301 12.9494 16.4272 16.28 16.4257C16.4997 16.4257 16.7238 16.4287 16.9405 16.3944C17.8414 16.2499 18.4577 15.7358 18.8749 14.8821ZM19.0297 11.2197C19.0562 9.56134 17.6232 8.4662 15.9527 8.84317C15.879 10.4017 17.1455 11.3955 19.0297 11.2197Z" fill="white"/>
</g>
<defs>
<clipPath id="clip0_1505_3096">
<rect width="35" height="20" fill="white"/>
</clipPath>
</defs>
</svg>
