<svg width="917" height="683" viewBox="0 0 917 683" fill="none" xmlns="http://www.w3.org/2000/svg">
<g clip-path="url(#clip0_2065_6219)">
<path d="M916.879 600.221H0V600.679H916.879V600.221Z" fill="#EBEBEB"/>
<path d="M825.007 629.714H785.251V630.172H825.007V629.714Z" fill="#EBEBEB"/>
<path d="M632.041 620.201H569.492V620.659H632.041V620.201Z" fill="#EBEBEB"/>
<path d="M808.907 612.704H727.25V613.162H808.907V612.704Z" fill="#EBEBEB"/>
<path d="M317.277 621.942H296.849V622.401H317.277V621.942Z" fill="#EBEBEB"/>
<path d="M280.51 621.942H210.112V622.401H280.51V621.942Z" fill="#EBEBEB"/>
<path d="M172.392 614.207H121.596V614.665H172.392V614.207Z" fill="#EBEBEB"/>
<path d="M434.619 518.468H80.5386C74.7623 518.468 70.0679 513.776 70.0679 508.002V10.4665C70.0679 4.69252 74.7623 0 80.5386 0H434.637C440.414 0 445.108 4.69252 445.108 10.4665V508.002C445.09 513.776 440.395 518.468 434.619 518.468ZM80.5386 0.458254C75.019 0.458254 70.5263 4.94914 70.5263 10.4665V508.002C70.5263 513.519 75.019 518.01 80.5386 518.01H434.637C440.157 518.01 444.649 513.519 444.649 508.002V10.4665C444.649 4.94914 440.157 0.458254 434.637 0.458254H80.5386Z" fill="#EBEBEB"/>
<path d="M831.261 518.468H477.162C471.386 518.468 466.691 513.776 466.691 508.002V10.4665C466.691 4.69252 471.386 0 477.162 0H831.261C837.037 0 841.731 4.69252 841.731 10.4665V508.002C841.731 513.776 837.037 518.468 831.261 518.468ZM477.162 0.458254C471.643 0.458254 467.15 4.94914 467.15 10.4665V508.002C467.15 513.519 471.643 518.01 477.162 518.01H831.261C836.78 518.01 841.273 513.519 841.273 508.002V10.4665C841.273 4.94914 836.78 0.458254 831.261 0.458254H477.162Z" fill="#EBEBEB"/>
<path d="M396.22 267.492L397.045 243.406L382.247 238.567C381.642 230.337 380.266 222.217 378.304 214.371L390.847 205.133L382.32 182.513L366.807 183.76C363.102 176.446 358.756 169.481 353.897 162.955L361.929 149.556L345.407 131.94L331.543 139.034C325.29 133.737 318.707 128.916 311.665 124.682L313.903 109.303L291.898 99.3128L281.812 111.117C274.128 108.625 266.17 106.755 257.936 105.527L254.195 90.441L230.027 89.6161L225.259 104.409C216.952 105.087 208.902 106.388 201.053 108.35L191.738 95.8851L169.109 104.335L170.356 119.843C163.039 123.6 156.071 127.945 149.543 132.802L136.193 124.773L118.497 141.216L125.594 155.146C120.295 161.324 115.472 167.978 111.291 175.016L95.9055 172.707L85.8566 194.703L97.7393 204.785C95.2454 212.465 93.3199 220.475 92.1463 228.65L76.9995 232.463L76.1743 256.549L91.0277 261.388C91.6329 269.673 93.0082 277.739 94.9703 285.566L82.4274 294.804L90.9544 317.423L106.468 316.177C110.172 323.491 114.518 330.456 119.378 336.982L111.346 350.381L127.868 367.996L141.731 360.902C147.911 366.2 154.567 371.021 161.609 375.273L159.299 390.652L181.304 400.642L191.444 388.838C199.128 391.331 207.086 393.2 215.32 394.428L219.061 409.514L243.23 410.339L247.997 395.546C256.286 394.868 264.354 393.567 272.185 391.605L281.427 404.07L304.055 395.62L302.863 380.112C310.18 376.355 317.075 372.011 323.677 367.135L337.026 375.163L354.722 358.721L347.625 344.79C352.925 338.613 357.748 331.959 361.929 324.92L377.314 327.23L387.363 305.234L375.48 295.152C377.974 287.472 379.9 279.517 381.073 271.286L396.22 267.492ZM233.401 345.523C180.625 343.709 139.311 299.478 141.108 246.724C142.923 193.915 187.172 152.599 239.947 154.413C292.723 156.228 334.037 200.459 332.24 253.268C330.425 306.022 286.158 347.32 233.401 345.523Z" fill="#EBEBEB"/>
<path d="M808.614 187.829L814.684 182.165L812.263 177.381C814.115 175.218 815.766 172.908 817.196 170.525L822.514 171.332L825.961 163.743L821.872 160.261C822.752 157.584 823.394 154.817 823.797 152.049L829.024 150.747L829.299 142.425L824.183 140.776C823.963 137.953 823.522 135.185 822.844 132.435L827.153 129.228L824.219 121.437L818.883 121.859C817.618 119.384 816.132 116.983 814.427 114.673L817.196 110.091L811.511 104.005L806.744 106.443C804.561 104.592 802.269 102.942 799.885 101.512L800.655 96.1967L793.082 92.7323L789.598 96.8199C786.902 95.9584 784.133 95.3168 781.364 94.9136L780.062 89.7078L771.737 89.4145L770.068 94.547C767.263 94.7669 764.475 95.2069 761.725 95.9034L758.534 91.5958L750.722 94.5103L751.162 99.8627C748.687 101.127 746.248 102.612 743.974 104.317L739.353 101.549L733.283 107.213L735.722 112.016C733.852 114.179 732.22 116.488 730.789 118.871L725.471 118.065L722.024 125.653L726.113 129.136C725.233 131.812 724.591 134.58 724.188 137.348L718.962 138.649L718.687 146.971L723.803 148.621C724.023 151.425 724.463 154.212 725.141 156.961L720.832 160.151L723.766 167.941L729.121 167.538C730.386 170.012 731.871 172.413 733.577 174.723L730.808 179.306L736.492 185.391L741.26 182.953C743.442 184.805 745.734 186.454 748.118 187.884L747.33 193.182L754.903 196.646L758.387 192.577C761.083 193.438 763.834 194.061 766.621 194.483L767.923 199.689L776.248 199.982L777.917 194.85C780.723 194.63 783.51 194.19 786.26 193.493L789.451 197.801L797.263 194.886L796.823 189.534C799.298 188.269 801.719 186.803 804.011 185.08L808.614 187.829ZM765.301 152.764C760.826 147.979 761.083 140.464 765.869 136.01C770.655 131.537 778.174 131.794 782.648 136.578C787.122 141.362 786.866 148.878 782.061 153.35C777.275 157.804 769.775 157.548 765.301 152.764Z" fill="#EBEBEB"/>
<path d="M586.784 435.121L567.823 422.034C567.823 422.015 567.823 421.997 567.805 421.997C565.934 415.105 563.349 408.488 560.176 402.255L565.036 383.192L537.529 353.754L518.165 357.291C512.169 353.717 505.732 350.674 499.002 348.346C498.984 348.346 498.965 348.346 498.947 348.328L487.174 328.513L446.905 327.138L433.812 346.092C433.794 346.092 433.757 346.11 433.739 346.11C426.862 347.98 420.224 350.564 414.007 353.717L394.955 348.86L365.505 376.355L369.044 395.675C369.044 395.675 369.044 395.693 369.025 395.693C365.376 401.76 362.406 408.194 360.077 414.921L340.254 426.689L338.878 466.961L357.858 480.067C359.728 486.996 362.24 493.613 365.468 499.9L360.627 518.908L388.133 548.347L407.369 544.827C413.439 548.42 419.894 551.444 426.715 553.791H426.734L438.488 573.569L478.757 574.944L491.85 556.009C498.819 554.139 505.457 551.554 511.747 548.383L530.726 553.223L560.176 525.727L556.637 506.407C560.286 500.34 563.257 493.906 565.586 487.161L585.409 475.393L586.784 435.121ZM461.263 496.326C436.233 495.464 416.666 474.458 417.528 449.492C418.39 424.471 439.332 404.913 464.381 405.775C489.412 406.636 508.978 427.569 508.116 452.608C507.254 477.556 486.294 497.187 461.263 496.326Z" fill="#EBEBEB"/>
<path d="M629.987 320.778C629.951 320.778 629.896 320.778 629.859 320.778L598.098 319.696C596.778 319.66 595.568 318.945 594.908 317.808L586.362 303.419C581.815 301.769 577.34 299.698 573.013 297.223L559.241 299.735C557.939 299.973 556.619 299.533 555.72 298.562L534.027 275.356C533.128 274.384 532.78 273.028 533.11 271.763L536.576 258.18C534.467 253.873 532.707 249.29 531.331 244.488L517.523 234.956C516.441 234.204 515.799 232.958 515.854 231.638L516.936 199.89C516.973 198.571 517.688 197.361 518.825 196.701L533.257 188.141C534.962 183.467 537.034 178.994 539.436 174.851L536.906 161.049C536.668 159.747 537.108 158.428 538.079 157.529L561.313 135.845C562.285 134.947 563.642 134.598 564.907 134.928L578.532 138.411C582.952 136.266 587.518 134.507 592.194 133.15L601.729 119.348C602.481 118.266 603.71 117.588 605.048 117.68L636.809 118.761C638.129 118.798 639.34 119.513 640 120.649L648.563 135.075C653.111 136.743 657.567 138.814 661.821 141.252L675.666 138.723C676.968 138.484 678.289 138.924 679.187 139.896L700.88 163.12C701.779 164.092 702.127 165.448 701.797 166.713L698.313 180.35C700.459 184.768 702.219 189.332 703.576 194.006L717.366 203.538C718.448 204.29 719.071 205.536 719.035 206.856L717.953 238.604C717.916 239.923 717.201 241.133 716.064 241.793L701.632 250.353C699.927 255.027 697.855 259.482 695.453 263.624L697.983 277.445C698.222 278.747 697.781 280.066 696.81 280.965L673.594 302.631C672.622 303.529 671.284 303.877 670 303.547L656.43 300.083C651.956 302.246 647.353 304.006 642.695 305.344L633.178 319.128C632.445 320.155 631.253 320.778 629.987 320.778ZM600.482 312.034L628.007 312.969L637.121 299.771C637.634 299.02 638.423 298.47 639.303 298.232C644.364 296.875 649.407 294.951 654.248 292.494C654.248 292.494 654.266 292.494 654.266 292.476C655.073 292.073 656.027 291.963 656.944 292.201L669.853 295.482L689.988 276.694L687.586 263.551C687.421 262.616 687.586 261.663 688.081 260.856C690.74 256.457 692.995 251.618 694.774 246.504C695.067 245.587 695.691 244.836 696.498 244.359L710.288 236.166L711.223 208.652L698.02 199.542C697.323 199.066 696.81 198.369 696.553 197.581C696.516 197.489 696.498 197.379 696.461 197.269C695.086 192.21 693.16 187.243 690.758 182.513C690.336 181.67 690.226 180.717 690.465 179.8L693.765 166.823L674.969 146.696L661.785 149.116C660.868 149.281 659.914 149.116 659.107 148.639C654.523 145.908 649.682 143.653 644.712 141.912C644.437 141.82 644.144 141.692 643.906 141.527C643.374 141.197 642.934 140.739 642.604 140.207L634.407 126.405L606.882 125.47L597.768 138.668C597.218 139.456 596.411 140.006 595.494 140.226C590.397 141.619 585.445 143.525 580.733 145.926C579.889 146.348 578.936 146.458 578.019 146.22L565.036 142.92L544.901 161.709L547.303 174.851C547.45 175.676 547.34 176.538 546.955 177.271C546.9 177.381 546.845 177.473 546.772 177.583C544.113 182 541.857 186.858 540.078 191.99C539.785 192.852 539.18 193.585 538.391 194.043L524.583 202.237L523.648 229.75L536.869 238.879C537.621 239.392 538.171 240.162 538.41 241.06C539.84 246.339 541.747 251.343 544.113 255.944C544.241 256.201 544.351 256.494 544.424 256.769C544.571 257.392 544.571 258.034 544.424 258.657L541.124 271.58L559.92 291.706L573.013 289.305C573.929 289.14 574.883 289.305 575.672 289.781C580.329 292.531 585.207 294.804 590.14 296.509C591.038 296.784 591.809 297.388 592.285 298.213L600.482 312.034ZM617.481 277.262C616.803 277.262 616.124 277.244 615.446 277.225C583.447 276.126 558.324 249.217 559.406 217.249C560.506 185.263 587.463 160.151 619.407 161.232C651.406 162.332 676.528 189.241 675.446 221.208C674.914 236.679 668.386 251.032 657.054 261.608C646.216 271.745 632.225 277.262 617.481 277.262ZM617.408 168.949C590.452 168.949 568.08 190.395 567.145 217.524C566.191 245.239 587.976 268.555 615.702 269.508C629.144 269.967 641.944 265.164 651.772 255.981C661.583 246.816 667.249 234.369 667.708 220.97C668.661 193.255 646.876 169.939 619.15 168.986C618.563 168.949 617.995 168.949 617.408 168.949Z" fill="#EBEBEB"/>
<path d="M703.136 92.329L689.988 88.7913L686.449 75.6485L691.602 70.4978L697.029 81.7525L708.289 87.1782L703.136 92.329Z" fill="#E0E0E0"/>
<path d="M703.943 83.5305C706.345 81.1293 706.345 77.225 703.943 74.842C701.541 72.4408 697.653 72.4591 695.269 74.8604L701.816 65.0537L710.599 69.4896L712.525 78.7097L703.943 83.5305Z" fill="#E0E0E0"/>
<path d="M690.556 71.5426L700.202 61.9009L713.35 65.4387L716.889 78.5814L707.243 88.223L694.095 84.6853L690.556 71.5426ZM708.069 79.4246C710.471 77.0233 710.471 73.119 708.069 70.7361C705.666 68.3348 701.779 68.3532 699.395 70.7544C696.993 73.1557 696.993 77.0233 699.395 79.4062C701.779 81.7892 705.666 81.8075 708.069 79.4246Z" fill="#F0F0F0"/>
<path d="M165.441 443.15L172.501 441.244L174.39 434.186L171.639 431.437L168.724 437.468L162.672 440.382L165.441 443.15Z" fill="#E0E0E0"/>
<path d="M165.001 438.421C163.718 437.138 163.718 435.048 165.001 433.747C166.285 432.463 168.375 432.463 169.659 433.765L166.157 428.504L161.444 430.887L160.417 435.836L165.001 438.421Z" fill="#E0E0E0"/>
<path d="M172.19 431.987L167.019 426.818L159.959 428.706L158.07 435.763L163.241 440.932L170.301 439.044L172.19 431.987ZM162.801 436.221C161.517 434.938 161.517 432.848 162.801 431.547C164.085 430.264 166.175 430.264 167.459 431.565C168.742 432.848 168.742 434.92 167.459 436.221C166.175 437.486 164.085 437.504 162.801 436.221Z" fill="#F0F0F0"/>
<path d="M140.026 56.2919L145.876 62.1393C147.398 63.6607 149.892 63.6607 151.432 62.1393C152.954 60.6179 152.954 58.1249 151.432 56.6035L145.582 50.7562C144.06 49.2348 141.566 49.2348 140.044 50.7562C138.504 52.2776 138.504 54.7705 140.026 56.2919Z" fill="#F0F0F0"/>
<path d="M135.9 41.7011C140.411 40.0881 145.307 42.196 146.829 46.4303C148.351 50.6646 145.93 55.4121 141.419 57.0435C136.908 58.6565 132.012 56.5485 130.49 52.3143C128.968 48.08 131.389 43.3325 135.9 41.7011Z" fill="#E0E0E0"/>
<path d="M129.529 51.3273L130.378 53.6906L147.808 47.4331L146.959 45.0697L129.529 51.3273Z" fill="#F0F0F0"/>
<path d="M458.439 683C654.803 683 813.987 673.71 813.987 662.25C813.987 650.791 654.803 641.501 458.439 641.501C262.076 641.501 102.892 650.791 102.892 662.25C102.892 673.71 262.076 683 458.439 683Z" fill="#F5F5F5"/>
<path d="M159.023 120.411C157.19 112.346 158.015 105.545 161.481 100.028C164.965 94.5103 170.705 90.8443 178.736 89.0113C186.97 87.1416 193.81 87.9115 199.274 91.3209C204.739 94.7303 208.37 100.413 210.185 108.368C211.506 114.142 211.597 119.109 210.497 123.252C209.397 127.395 207.233 130.914 204.024 133.81C200.815 136.706 196.469 138.778 190.968 140.024C185.393 141.289 180.57 141.454 176.518 140.501C172.465 139.548 168.852 137.421 165.717 134.085C162.563 130.749 160.325 126.203 159.023 120.411ZM174.317 117.02C175.454 122.006 177.196 125.397 179.543 127.138C181.89 128.898 184.659 129.411 187.868 128.678C191.151 127.926 193.443 126.295 194.763 123.747C196.084 121.199 196.102 117.166 194.855 111.631C193.792 106.975 192.086 103.785 189.721 102.062C187.355 100.339 184.568 99.8444 181.34 100.578C178.26 101.274 176.022 102.924 174.665 105.527C173.29 108.148 173.162 111.979 174.317 117.02Z" fill="#333840"/>
<path d="M217.465 114.362C216.218 108.899 217.043 103.969 219.922 99.5877C222.801 95.2068 227.386 92.3107 233.657 90.8809C240.827 89.2495 246.732 90.0927 251.335 93.4288C255.039 96.105 257.459 99.8994 258.578 104.812C259.825 110.329 259.036 115.26 256.176 119.604C253.315 123.949 248.657 126.863 242.203 128.329C236.445 129.631 231.457 129.246 227.239 127.12C222.068 124.498 218.804 120.246 217.465 114.362ZM231.237 111.209C231.97 114.399 233.144 116.616 234.794 117.845C236.426 119.073 238.242 119.476 240.185 119.036C242.166 118.578 243.615 117.46 244.55 115.663C245.485 113.867 245.558 111.301 244.806 107.983C244.091 104.885 242.936 102.704 241.304 101.494C239.672 100.266 237.912 99.8627 236.023 100.303C234.024 100.761 232.539 101.897 231.585 103.749C230.632 105.563 230.521 108.056 231.237 111.209Z" fill="#333840"/>
<path d="M272.46 134.928L261.219 85.4735L274.073 82.559L275.284 87.8565C276.549 85.2352 277.851 83.3472 279.153 82.2291C280.913 80.726 283.004 79.6812 285.443 79.1313C290.229 78.0498 294.355 79.0396 297.802 82.1008C301.25 85.1619 303.597 89.3962 304.825 94.8036C306.182 100.761 305.779 105.637 303.652 109.413C301.506 113.207 298.261 115.59 293.896 116.58C291.787 117.056 289.77 117.13 287.863 116.818C285.956 116.488 284.159 115.773 282.454 114.673L286.341 131.776L272.46 134.928ZM279.08 100.376C279.721 103.217 280.803 105.178 282.307 106.278C283.811 107.378 285.479 107.726 287.295 107.305C288.89 106.938 290.082 105.985 290.871 104.427C291.659 102.869 291.677 100.504 290.962 97.3698C290.302 94.4736 289.257 92.4757 287.827 91.3575C286.396 90.2577 284.874 89.8911 283.242 90.2577C281.482 90.661 280.18 91.6691 279.318 93.3188C278.456 94.9319 278.383 97.2965 279.08 100.376Z" fill="#333840"/>
<path d="M310.693 101.457L324.025 97.0765C324.96 98.5613 326.005 99.5511 327.179 100.009C328.353 100.468 329.783 100.523 331.47 100.138C333.322 99.7161 334.661 99.0012 335.486 97.993C336.146 97.2232 336.366 96.4166 336.164 95.5368C335.944 94.547 335.247 93.9054 334.092 93.5938C333.267 93.3738 331.195 93.3555 327.857 93.5205C322.906 93.7771 319.404 93.7588 317.387 93.4655C315.37 93.1722 313.536 92.329 311.885 90.9359C310.235 89.5428 309.153 87.7648 308.676 85.6019C308.145 83.2373 308.365 81.056 309.355 79.0397C310.345 77.0233 311.94 75.3186 314.159 73.9255C316.378 72.5325 319.514 71.3777 323.548 70.4611C327.821 69.4896 331.048 69.1047 333.23 69.288C335.413 69.4713 337.338 70.1129 339.007 71.1577C340.675 72.2208 342.234 73.8156 343.664 75.9602L330.938 80.1945C330.333 79.113 329.581 78.4164 328.683 78.0498C327.436 77.5733 326.06 77.5183 324.52 77.8665C322.961 78.2148 321.898 78.7464 321.311 79.4613C320.724 80.1761 320.522 80.9277 320.706 81.7159C320.907 82.5957 321.513 83.1456 322.503 83.4022C323.511 83.6405 325.547 83.6039 328.646 83.2739C333.322 82.7607 336.898 82.7057 339.318 83.109C341.757 83.5306 343.756 84.4471 345.333 85.8951C346.91 87.3432 347.919 89.0846 348.377 91.1192C348.854 93.1905 348.689 95.3352 347.882 97.5715C347.075 99.8077 345.462 101.806 343.041 103.584C340.62 105.343 337.081 106.755 332.46 107.818C325.914 109.303 321.036 109.431 317.845 108.203C314.654 106.956 312.27 104.72 310.693 101.457Z" fill="#333840"/>
<path d="M355.474 56.1086L370.529 56.017L370.603 67.565L367.834 90.7893L358.518 90.8443L355.547 67.6566L355.474 56.1086ZM356.208 94.4003L370.254 94.327L370.328 106.737L356.281 106.81L356.208 94.4003Z" fill="#333840"/>
<path d="M235.968 213.785C235.858 213.785 235.748 213.766 235.638 213.73C227.386 210.54 222.453 207.406 219.886 203.666C218.016 204.033 215.944 203.795 213.963 202.86C212.038 201.943 210.186 200.349 208.865 198.057C207.618 199.011 206.096 199.267 204.409 198.754C202.539 198.167 200.613 196.609 199 194.336C197.973 195.07 196.927 195.18 196.157 195.125C190.711 194.685 183.321 183.833 182.789 172.267C182.771 171.754 183.156 171.332 183.669 171.314C184.165 171.277 184.605 171.68 184.623 172.194C185.118 183.173 192.16 192.962 196.304 193.292C196.982 193.365 197.533 193.145 198.009 192.778C195.515 188.416 194.232 182.183 196.139 175.53C197.716 170.031 199.11 167.868 200.778 168.271C203.932 169.059 203.529 181.047 201.842 188.966C201.457 190.762 200.907 192.045 200.283 192.962C201.732 195.106 203.437 196.536 204.941 197.013C206.28 197.434 207.27 197.086 208.003 196.371C206.555 192.815 206.261 187.994 208.223 181.817C210.791 173.697 211.836 173.477 212.459 173.348C212.9 173.257 213.34 173.403 213.633 173.752C215.32 175.658 213.303 188.269 211.176 194.501C210.901 195.308 210.552 196.023 210.149 196.628C211.286 198.864 212.973 200.385 214.715 201.21C216.127 201.888 217.576 202.127 218.878 201.998C218.713 201.65 218.566 201.302 218.437 200.935C216.989 196.994 217.686 192.448 220.601 187.041C222.545 183.448 224.122 181.78 225.571 181.78C226.011 181.78 226.799 181.945 227.386 182.99C228.982 185.941 227.826 195.674 224.672 200.495C223.92 201.632 222.893 202.493 221.702 203.061C224.159 206.288 228.817 209.129 236.28 212.025C236.757 212.208 236.995 212.74 236.812 213.216C236.683 213.565 236.335 213.785 235.968 213.785ZM225.607 183.595C225.607 183.595 224.562 183.595 222.252 187.902C219.593 192.815 218.933 196.866 220.18 200.294C220.326 200.715 220.51 201.118 220.73 201.522C221.702 201.1 222.545 200.422 223.15 199.505C225.717 195.583 226.946 187.518 225.993 184.365C225.809 183.705 225.607 183.595 225.607 183.595ZM212.441 175.878C211.964 176.776 211.176 178.591 209.984 182.348C208.407 187.316 208.407 191.294 209.287 194.355C209.342 194.208 209.397 194.043 209.452 193.896C211.616 187.573 212.661 178.902 212.441 175.878ZM200.375 170.104C200.063 170.397 199.183 171.552 197.899 176.006C196.212 181.89 197.258 187.261 199.238 191.129C199.623 190.34 199.88 189.424 200.063 188.562C201.952 179.544 201.402 171.405 200.375 170.104Z" fill="#333840"/>
<path d="M305.687 309.853C302.9 309.853 299.948 309.211 297.326 307.672C296.885 307.415 296.739 306.847 296.995 306.425C297.252 305.985 297.821 305.839 298.242 306.095C304.789 309.926 313.243 307.25 314.985 304.464C315.186 304.134 315.37 303.712 315.26 303.236C312.674 303.511 309.483 302.833 305.852 300.541C301.195 297.627 300.828 296.765 300.846 296.069C300.865 295.665 301.103 295.299 301.47 295.116C303.304 294.199 311.574 297.993 315.021 300.266C315.48 300.56 315.846 300.89 316.158 301.22C317.68 300.853 318.872 300.065 319.642 299.112C320.174 298.47 320.541 297.755 320.724 297.059C320.596 297.077 320.486 297.095 320.358 297.095C317.424 297.389 314.489 296.124 311.354 293.246C309.208 291.266 308.365 289.891 308.64 288.792C308.731 288.443 309.025 287.82 309.96 287.6C312.491 286.977 318.762 289.635 321.311 292.439C321.88 293.063 322.283 293.814 322.485 294.602C324.869 293.484 327.399 290.955 330.407 286.775C330.7 286.372 331.268 286.262 331.69 286.555C332.094 286.849 332.204 287.417 331.91 287.838C328.444 292.678 325.565 295.427 322.65 296.545C322.54 297.828 322.008 299.148 321.054 300.285C320.119 301.403 318.762 302.356 317.057 302.869C317.24 303.694 317.075 304.574 316.543 305.417C315.003 307.91 310.565 309.853 305.687 309.853ZM304.055 297.15C304.679 297.608 305.559 298.213 306.824 299.002C309.318 300.56 311.537 301.275 313.426 301.421C310.382 299.533 306.403 297.865 304.055 297.15ZM310.455 289.36C310.565 289.653 310.969 290.405 312.601 291.908C315.333 294.419 317.809 295.555 320.174 295.281C320.376 295.262 320.559 295.226 320.761 295.189C320.633 294.639 320.358 294.107 319.972 293.667C317.387 290.863 311.702 289.067 310.455 289.36Z" fill="#333840"/>
<path d="M329.966 307.342L301.396 312.529L275.449 171.002L220.326 181.01L130.49 340.483L140.136 393.109L255.369 372.194L263.254 415.233L318.377 405.225L310.492 362.186L339.062 356.998L329.966 307.342ZM185.375 333.609L232.979 250.078L246.255 322.556L185.375 333.609Z" fill="#CE0930"/>
<path d="M560.084 161.379C559.021 151.609 557.059 142.92 554.216 135.313C551.374 127.725 547.101 120.264 541.398 112.969C535.695 105.673 527.92 99.3311 518.11 93.9604C508.281 88.5897 495.316 84.8503 479.197 82.7607C445.658 78.3981 419.509 84.3371 400.749 100.614C381.99 116.891 369.649 148.053 363.707 194.116C361.287 212.85 360.7 230.172 361.91 246.064C363.12 261.975 366.055 274.751 370.676 284.429C377.002 298.03 385.951 308.882 397.54 317.002C409.111 325.122 424.973 330.493 445.126 333.114C481.068 337.788 507.694 330.896 525.023 312.419C542.352 293.942 553.85 262.726 559.516 218.752C562.028 199.176 562.212 180.039 560.084 161.379Z" fill="#CE0930"/>
<path d="M461.685 314.325C457.284 314.179 452.589 313.776 447.73 313.152C430.951 310.971 417.95 306.718 409.129 300.523C400.419 294.419 393.817 286.372 388.976 275.942L388.885 275.759C385.364 268.39 383.053 257.887 382.045 244.543C380.926 230.08 381.495 213.986 383.732 196.701C390.278 145.89 403.793 124.682 413.989 115.847C425.872 105.545 441.899 100.889 463.005 101.604C467.333 101.751 471.917 102.136 476.612 102.759C490.163 104.519 500.872 107.525 508.464 111.667C515.817 115.682 521.557 120.301 525.536 125.397C529.937 131.042 533.238 136.743 535.347 142.389C537.584 148.383 539.179 155.513 540.06 163.578C542.022 180.644 541.82 198.314 539.528 216.223C534.448 255.706 524.619 283.439 510.334 298.672C499.699 309.963 483.8 315.077 461.685 314.325Z" fill="#333840"/>
<path d="M497.571 161.91L497.81 154.963L493.537 153.57C493.354 151.205 492.969 148.859 492.4 146.605L496.013 143.947L493.556 137.421L489.081 137.788C488.018 135.68 486.771 133.682 485.359 131.794L487.669 127.926L482.901 122.849L478.904 124.902C477.107 123.38 475.2 121.987 473.183 120.759L473.824 116.323L467.48 113.445L464.582 116.855C462.363 116.14 460.071 115.608 457.706 115.242L456.624 110.897L449.655 110.659L448.28 114.93C445.896 115.132 443.567 115.498 441.312 116.067L438.635 112.474L432.106 114.912L432.473 119.384C430.364 120.466 428.366 121.712 426.477 123.124L422.626 120.814L417.528 125.562L419.582 129.576C418.06 131.354 416.666 133.279 415.456 135.295L411.018 134.635L408.121 140.977L411.55 143.873C410.835 146.091 410.266 148.401 409.936 150.747L405.572 151.847L405.333 158.794L409.625 160.187C409.808 162.57 410.193 164.898 410.761 167.153L407.149 169.811L409.606 176.336L414.081 175.97C415.144 178.078 416.391 180.075 417.803 181.963L415.493 185.831L420.26 190.909L424.258 188.856C426.037 190.377 427.962 191.77 429.979 192.998L429.319 197.434L435.664 200.312L438.58 196.903C440.798 197.617 443.091 198.149 445.456 198.516L446.538 202.86L453.506 203.098L454.882 198.827C457.266 198.626 459.594 198.259 461.85 197.691L464.509 201.283L471.037 198.846L470.689 194.373C472.797 193.292 474.796 192.045 476.685 190.634L480.536 192.943L485.634 188.196L483.58 184.181C485.102 182.403 486.496 180.479 487.706 178.462L492.144 179.122L495.041 172.78L491.612 169.884C492.327 167.666 492.877 165.375 493.225 163.01L497.571 161.91ZM450.627 184.42C435.407 183.907 423.506 171.149 424.019 155.935C424.533 140.702 437.296 128.806 452.516 129.319C467.736 129.833 479.637 142.59 479.124 157.823C478.592 173.018 465.848 184.933 450.627 184.42Z" fill="#CE0930"/>
<path opacity="0.3" d="M526.508 289.452L527.003 284.777L524.198 283.623C524.179 282.009 524.051 280.415 523.776 278.875L526.343 277.244L525.041 272.716L521.997 272.734C521.374 271.25 520.659 269.838 519.797 268.5L521.539 266.007L518.586 262.341L515.781 263.514C514.662 262.396 513.452 261.37 512.132 260.453L512.81 257.465L508.684 255.192L506.52 257.374C505.035 256.751 503.513 256.292 501.973 255.926L501.459 252.92L496.783 252.388L495.628 255.192C494.014 255.211 492.437 255.357 490.878 255.632L489.246 253.048L484.717 254.368L484.735 257.41C483.268 258.034 481.856 258.749 480.499 259.61L478.005 257.85L474.338 260.801L475.511 263.606C474.43 264.724 473.366 265.934 472.449 267.254L469.497 266.594L467.223 270.718L469.387 272.844C468.782 274.347 468.305 275.851 467.938 277.409L464.931 277.904L464.436 282.578L467.241 283.751C467.223 285.346 467.388 286.922 467.663 288.48L465.077 290.111L466.398 294.639H469.442C470.065 296.105 470.78 297.517 471.642 298.855L469.882 301.348L472.816 305.032L475.64 303.841C476.758 304.959 477.969 305.985 479.289 306.902L478.61 309.89L482.736 312.163L484.9 310C486.386 310.605 487.908 311.063 489.448 311.429L489.961 314.436L494.638 314.967L495.793 312.144C497.388 312.126 498.984 311.979 500.542 311.704L502.174 314.289L506.685 312.969V309.926C508.152 309.303 509.564 308.588 510.921 307.727L513.397 309.486L517.083 306.554L515.891 303.749C517.009 302.631 518.036 301.421 518.972 300.101L521.924 300.761L524.198 296.637L522.034 294.511C522.639 293.008 523.097 291.505 523.464 289.965L526.508 289.452ZM502.908 287.637C500.726 291.596 495.756 293.063 491.795 290.881C487.834 288.7 486.404 283.733 488.568 279.773C490.75 275.814 495.701 274.384 499.662 276.547C503.623 278.728 505.072 283.678 502.908 287.637Z" fill="#CE0930"/>
<path d="M552.493 210.247L547.028 206.471C547.028 206.471 547.028 206.471 547.028 206.453C546.496 204.473 545.745 202.548 544.828 200.77L546.221 195.271L538.299 186.784L532.725 187.811C531.001 186.784 529.149 185.904 527.205 185.226H527.187L523.794 179.507L512.187 179.104L508.409 184.566H508.391C506.41 185.098 504.503 185.85 502.706 186.766L497.205 185.373L488.715 193.292L489.742 198.864C488.696 200.605 487.834 202.475 487.156 204.4L481.435 207.791L481.031 219.394L486.496 223.17C487.028 225.168 487.761 227.074 488.696 228.889L487.303 234.369L495.225 242.856L500.762 241.848C502.505 242.875 504.375 243.754 506.337 244.433L509.73 250.133L521.337 250.537L525.115 245.074C527.114 244.543 529.039 243.791 530.854 242.875L536.319 244.268L544.809 236.349L543.782 230.777C544.828 229.035 545.69 227.166 546.368 225.223L552.089 221.832L552.493 210.247ZM516.313 227.881C509.088 227.642 503.458 221.575 503.696 214.39C503.935 207.167 509.986 201.54 517.193 201.778C524.418 202.017 530.048 208.066 529.809 215.269C529.571 222.473 523.519 228.137 516.313 227.881Z" fill="white"/>
<path d="M592.377 117.625L593.33 115.315C594.009 114.967 594.669 114.527 595.256 114.069L597.383 114.142L599.877 110.568L599.07 108.606C599.308 107.891 599.492 107.14 599.583 106.37L601.417 104.684L600.647 100.394L598.336 99.4411C597.988 98.7629 597.566 98.1214 597.089 97.5348L597.163 95.4085L593.587 92.9156L591.625 93.7221C590.891 93.4655 590.158 93.3005 589.388 93.2089L587.701 91.3759L583.41 92.1457L582.456 94.4553C581.759 94.8036 581.117 95.2252 580.531 95.7018L578.403 95.6284L575.909 99.2028L576.716 101.164C576.478 101.897 576.295 102.631 576.203 103.419L574.369 105.105L575.139 109.394L577.45 110.348C577.798 111.044 578.238 111.686 578.715 112.272L578.642 114.38L582.218 116.873L584.18 116.067C584.913 116.323 585.647 116.488 586.417 116.58L588.104 118.413L592.377 117.625ZM583.043 105.728C582.566 103.052 584.345 100.523 587.004 100.046C589.681 99.5694 592.212 101.347 592.688 104.005C593.165 106.682 591.386 109.211 588.727 109.688C586.087 110.183 583.52 108.405 583.043 105.728Z" fill="#CE0930"/>
<path d="M542.077 105.472L540.683 104.299C543.122 101.421 546.569 97.7731 551.704 95.0785L552.548 96.7099C547.065 99.5511 543.562 103.694 542.077 105.472Z" fill="#CE0930"/>
<path d="M556.71 95.0419L555.995 93.3555C562.927 90.386 570.17 89.2312 577.523 89.9094L577.358 91.7424C570.298 91.0642 563.367 92.1824 556.71 95.0419Z" fill="#CE0930"/>
<path d="M553.245 107.726L551.723 106.7C555.482 101.164 562.927 96.3616 569.822 94.9869L570.17 96.7832C563.734 98.0663 556.766 102.557 553.245 107.726Z" fill="#CE0930"/>
<path d="M431.556 284.117C431.318 284.117 431.079 284.026 430.896 283.843L427.045 279.883C425.083 279.7 423.157 279.333 421.269 278.802L415.272 281.441C414.979 281.57 414.649 281.533 414.392 281.368L404.343 274.714C404.086 274.549 403.921 274.256 403.94 273.944L404.031 267.419C402.803 265.897 401.721 264.248 400.786 262.506L395.633 260.508C395.339 260.398 395.119 260.142 395.064 259.83L392.662 248.025C392.607 247.714 392.699 247.402 392.919 247.182L396.88 243.333C397.063 241.39 397.43 239.447 397.943 237.559L395.303 231.583C395.174 231.29 395.211 230.96 395.376 230.703L402.033 220.658C402.198 220.402 402.454 220.237 402.803 220.255L409.331 220.347C410.871 219.119 412.522 218.037 414.245 217.121L416.244 211.97C416.354 211.677 416.611 211.457 416.923 211.402L428.732 209C429.044 208.945 429.356 209.037 429.576 209.257L433.408 213.216C435.352 213.4 437.296 213.766 439.184 214.28L445.163 211.64C445.456 211.512 445.786 211.548 446.043 211.713L456.092 218.367C456.348 218.532 456.514 218.825 456.495 219.137L456.403 225.681C457.632 227.202 458.714 228.852 459.631 230.575L464.784 232.573C465.077 232.683 465.297 232.94 465.352 233.251L467.754 245.056C467.809 245.368 467.718 245.679 467.498 245.899L463.537 249.748C463.353 251.673 462.987 253.616 462.455 255.504L465.095 261.498C465.224 261.791 465.187 262.121 465.022 262.378L458.366 272.405C458.201 272.661 457.925 272.789 457.595 272.808L451.067 272.716C449.545 273.926 447.895 275.007 446.153 275.942L444.154 281.093C444.044 281.386 443.787 281.606 443.475 281.661L431.666 284.062C431.684 284.117 431.629 284.117 431.556 284.117ZM421.232 276.914C421.324 276.914 421.397 276.932 421.489 276.95C423.451 277.519 425.486 277.904 427.558 278.087C427.779 278.105 427.98 278.197 428.145 278.362L431.886 282.211L442.705 280.012L444.649 275.007C444.722 274.806 444.887 274.622 445.089 274.531C446.923 273.578 448.665 272.441 450.26 271.14C450.425 271.011 450.609 270.92 450.847 270.938L457.21 271.03L463.317 261.828L460.749 255.999C460.658 255.797 460.658 255.577 460.713 255.376C461.3 253.378 461.666 251.325 461.85 249.308C461.868 249.089 461.96 248.887 462.125 248.722L465.976 244.983L463.775 234.168L458.769 232.225C458.549 232.151 458.384 231.987 458.274 231.785C457.32 229.952 456.183 228.229 454.881 226.634C454.735 226.469 454.661 226.249 454.68 226.029L454.771 219.669L445.566 213.565L439.735 216.131C439.533 216.223 439.313 216.223 439.111 216.168C437.131 215.581 435.077 215.214 433.023 215.031C432.803 215.013 432.601 214.921 432.436 214.756L428.714 210.907L417.895 213.106L415.951 218.111C415.877 218.312 415.712 218.496 415.511 218.587C413.677 219.54 411.953 220.677 410.34 221.978C410.174 222.107 409.954 222.217 409.734 222.18L403.371 222.088L397.265 231.29L399.832 237.119C399.942 237.376 399.942 237.651 399.814 237.907C399.3 239.74 398.915 241.775 398.75 243.828C398.732 244.048 398.64 244.249 398.475 244.414L394.624 248.154L396.825 258.969L401.831 260.911C402.051 261.003 402.234 261.168 402.326 261.388C403.28 263.203 404.416 264.926 405.7 266.502C405.847 266.667 405.92 266.887 405.92 267.107L405.828 273.468L415.034 279.572L420.865 277.005C420.975 276.95 421.104 276.914 421.232 276.914ZM430.236 270.993C425.596 270.993 420.92 269.673 416.776 266.942C411.33 263.331 407.626 257.832 406.324 251.435C405.022 245.038 406.287 238.53 409.899 233.086C417.363 221.868 432.546 218.77 443.769 226.213C454.991 233.655 458.072 248.85 450.627 260.068C445.951 267.162 438.176 270.993 430.236 270.993ZM411.44 234.094C408.102 239.117 406.929 245.148 408.139 251.068C409.349 256.989 412.778 262.066 417.803 265.402C428.2 272.276 442.247 269.435 449.123 259.06C456 248.685 453.158 234.626 442.779 227.734C432.381 220.86 418.335 223.72 411.44 234.094Z" fill="white"/>
<path d="M780.869 323.894L752.097 320.008L771.132 177.381L715.606 169.884L580.916 293.851L573.838 346.88L689.896 362.534L684.102 405.903L739.628 413.4L745.423 370.031L774.194 373.917L780.869 323.894ZM635.232 304.244L706.309 239.484L696.553 312.511L635.232 304.244Z" fill="#CE0930"/>
<path d="M722.739 412.044C722.684 412.044 722.629 412.044 722.574 412.025C722.079 411.934 721.749 411.457 721.84 410.962L764.622 176.464C764.714 175.97 765.19 175.658 765.686 175.731C766.181 175.823 766.511 176.299 766.419 176.794L723.638 411.292C723.564 411.732 723.179 412.044 722.739 412.044Z" fill="#333840"/>
<path d="M760.698 180.405C760.661 181.23 759.983 181.89 759.139 181.853C758.296 181.817 757.654 181.139 757.69 180.295C757.727 179.452 758.406 178.811 759.249 178.847C760.074 178.884 760.734 179.562 760.698 180.405Z" fill="#333840"/>
<path d="M754.591 212.117C754.555 212.941 753.876 213.601 753.033 213.565C752.207 213.528 751.547 212.85 751.584 212.007C751.621 211.182 752.299 210.522 753.143 210.559C753.968 210.595 754.61 211.292 754.591 212.117Z" fill="#333840"/>
<path d="M748.485 243.828C748.448 244.653 747.77 245.312 746.926 245.276C746.101 245.239 745.441 244.561 745.478 243.718C745.514 242.893 746.193 242.233 747.036 242.27C747.861 242.306 748.503 243.003 748.485 243.828Z" fill="#333840"/>
<path d="M736.455 276.84C736.418 277.665 735.74 278.325 734.896 278.288C734.053 278.252 733.411 277.574 733.448 276.73C733.484 275.906 734.163 275.246 735.006 275.282C735.85 275.319 736.492 276.016 736.455 276.84Z" fill="#333840"/>
<path d="M736.254 307.25C736.217 308.075 735.538 308.735 734.695 308.698C733.851 308.662 733.209 307.983 733.246 307.14C733.283 306.297 733.961 305.655 734.805 305.692C735.648 305.729 736.29 306.425 736.254 307.25Z" fill="#333840"/>
<path d="M730.147 338.961C730.11 339.786 729.432 340.446 728.588 340.409C727.745 340.373 727.103 339.695 727.14 338.851C727.176 338.026 727.855 337.367 728.698 337.403C729.542 337.44 730.165 338.136 730.147 338.961Z" fill="#333840"/>
<path d="M724.041 370.672C724.004 371.497 723.326 372.157 722.482 372.121C721.657 372.084 720.997 371.406 721.034 370.563C721.07 369.738 721.749 369.078 722.592 369.114C723.418 369.151 724.059 369.848 724.041 370.672Z" fill="#333840"/>
<path d="M717.916 402.384C717.879 403.209 717.201 403.868 716.357 403.832C715.532 403.795 714.872 403.117 714.909 402.274C714.945 401.431 715.624 400.789 716.467 400.826C717.311 400.862 717.953 401.559 717.916 402.384Z" fill="#333840"/>
<path d="M734.952 277.702C734.53 277.702 734.145 277.409 734.053 276.969C733.943 276.474 734.255 275.979 734.75 275.887L739.298 274.916C739.793 274.824 740.288 275.117 740.38 275.612C740.49 276.107 740.178 276.602 739.683 276.694L735.135 277.665C735.08 277.702 735.025 277.702 734.952 277.702Z" fill="#333840"/>
<path d="M750.154 260.82C750.154 260.82 746.046 271.506 744.671 277.977C743.296 284.447 743.204 298.91 743.204 298.91" fill="#333840"/>
<path d="M743.204 299.826C742.691 299.826 742.287 299.405 742.287 298.91C742.287 298.323 742.379 284.282 743.772 277.775C745.148 271.305 749.127 260.911 749.292 260.472C749.475 259.995 750.007 259.775 750.484 259.94C750.961 260.123 751.199 260.655 751.016 261.131C750.979 261.241 746.926 271.818 745.569 278.16C744.231 284.466 744.121 298.782 744.121 298.91C744.121 299.423 743.717 299.826 743.204 299.826Z" fill="#333840"/>
<path d="M407.919 458.052C410.468 416.993 405.774 342.334 482.993 352.214C565.769 362.809 542.077 459.555 542.077 459.555L407.919 458.052Z" fill="#333840"/>
<path d="M461.208 433.38C479.823 433.38 494.913 418.296 494.913 399.689C494.913 381.082 479.823 365.998 461.208 365.998C442.594 365.998 427.504 381.082 427.504 399.689C427.504 418.296 442.594 433.38 461.208 433.38Z" fill="white"/>
<path d="M465.646 366.053C449.692 363.322 432.62 375.09 430.933 387.005L494.216 392.815C491.978 379.233 478.299 368.216 465.646 366.053Z" fill="#333840"/>
<path d="M487.009 398.846C486.551 407.644 481.765 414.555 476.282 414.28C470.817 414.005 466.746 406.636 467.205 397.819C467.663 389.021 472.449 382.11 477.932 382.385C483.378 382.679 487.449 390.047 487.009 398.846Z" fill="#333840"/>
<path d="M461.208 435.195C441.624 435.195 425.67 419.266 425.67 399.671C425.67 380.094 441.605 364.147 461.208 364.147C480.793 364.147 496.746 380.076 496.746 399.671C496.746 419.266 480.811 435.195 461.208 435.195ZM461.208 367.831C443.641 367.831 429.337 382.11 429.337 399.689C429.337 417.268 443.622 431.547 461.208 431.547C478.776 431.547 493.079 417.268 493.079 399.689C493.079 382.11 478.776 367.831 461.208 367.831Z" fill="#CE0930"/>
<path opacity="0.3" d="M532.688 457.007C532.615 457.007 532.541 457.007 532.468 456.989C531.973 456.879 531.68 456.384 531.79 455.889C531.845 455.651 537.694 430.795 531.625 405.665C531.496 405.17 531.808 404.675 532.303 404.565C532.78 404.455 533.293 404.748 533.403 405.243C539.583 430.814 533.623 456.073 533.568 456.329C533.477 456.733 533.092 457.007 532.688 457.007Z" fill="white"/>
<path opacity="0.3" d="M527.572 391.917C527.224 391.917 526.894 391.715 526.729 391.386C524.363 386.235 521.447 381.524 518.037 377.345C517.725 376.96 517.78 376.373 518.165 376.062C518.55 375.732 519.137 375.805 519.449 376.19C522.951 380.479 525.977 385.337 528.397 390.616C528.617 391.074 528.397 391.624 527.939 391.825C527.829 391.88 527.701 391.917 527.572 391.917Z" fill="white"/>
<path d="M236.06 650.666C235.84 650.666 235.601 650.666 235.381 650.666C230.32 650.519 226.323 646.303 226.469 641.244C226.616 636.185 230.779 632.28 235.895 632.335C235.95 632.335 236.005 632.335 236.078 632.335C241.378 632.335 254.122 625.902 280.785 583.889C282.215 581.634 284.563 580.113 287.203 579.728C289.844 579.343 292.54 580.131 294.538 581.891C327.436 610.559 362.296 628.413 362.644 628.596C367.155 630.887 368.952 636.405 366.66 640.914C364.368 645.423 358.848 647.238 354.337 644.947C352.943 644.25 322.485 628.669 290.522 602.512C268.187 636.075 251.61 650.666 236.06 650.666Z" fill="#333840"/>
<path d="M292.796 580.241C292.539 580.241 292.283 580.223 292.007 580.186C289 579.765 286.91 576.978 287.331 573.972C288.633 564.844 287.02 530.658 275.467 504.079C274.422 501.66 275.229 498.837 277.411 497.334C302.533 480.232 356.042 478.179 358.298 478.105C361.323 478.032 363.872 480.378 363.982 483.403C364.092 486.446 361.709 488.975 358.683 489.085C358.188 489.104 311.409 490.9 287.368 504.116C297.6 530.585 299.929 563.579 298.224 575.512C297.839 578.261 295.492 580.241 292.796 580.241Z" fill="#333840"/>
<path d="M302.038 573.111C298.37 564.477 281.885 565.467 272.203 572.854C267.032 576.813 260.027 588.691 259.293 592.999C258.56 597.307 261.549 601.211 266.665 600.771C272.991 600.221 281.665 591.038 281.665 591.038C275.889 596.702 283.334 600.698 294.465 592.504C300.626 587.976 306.127 582.771 302.038 573.111Z" fill="#CE0930"/>
<path d="M617.444 460.472C617.353 460.472 617.279 460.454 617.188 460.435C616.693 460.289 616.418 459.794 616.564 459.299C619.003 450.794 621.68 445.606 625.183 442.71C624.651 440.877 624.706 438.787 625.458 436.734C626.191 434.736 627.622 432.757 629.786 431.235C628.722 430.081 628.337 428.577 628.704 426.873C629.126 424.966 630.501 422.895 632.628 421.08C631.803 420.127 631.601 419.082 631.583 418.313C631.528 412.85 641.687 404.51 653.148 402.952C653.643 402.86 654.12 403.227 654.175 403.74C654.248 404.235 653.9 404.712 653.386 404.767C642.494 406.251 633.362 414.133 633.398 418.294C633.398 418.972 633.655 419.504 634.058 419.944C638.184 417.066 644.272 415.215 651.076 416.535C656.705 417.616 658.997 418.807 658.722 420.512C658.227 423.72 646.234 424.398 638.203 423.427C636.387 423.207 635.049 422.785 634.077 422.235C632.078 423.867 630.794 425.7 630.464 427.239C630.171 428.614 630.611 429.567 631.381 430.245C634.792 428.486 639.578 427.753 645.904 429.164C654.23 430.997 654.541 432.005 654.725 432.61C654.853 433.05 654.743 433.49 654.431 433.82C652.671 435.671 639.926 434.791 633.527 433.233C632.701 433.032 631.95 432.757 631.326 432.408C629.199 433.747 627.842 435.543 627.163 437.376C626.632 438.842 626.503 440.29 626.742 441.592C627.072 441.39 627.402 441.207 627.75 441.06C631.546 439.264 636.131 439.557 641.778 441.977C645.519 443.59 647.335 445.001 647.463 446.449C647.5 446.871 647.426 447.696 646.418 448.356C643.631 450.207 633.82 449.932 628.722 447.219C627.512 446.578 626.577 445.625 625.898 444.488C622.909 447.219 620.489 452.132 618.27 459.812C618.196 460.215 617.83 460.472 617.444 460.472ZM627.383 443.37C627.897 444.305 628.649 445.075 629.621 445.606C633.765 447.806 641.907 448.319 644.951 447.073C645.574 446.816 645.666 446.614 645.666 446.614C645.666 446.614 645.574 445.588 641.082 443.663C635.947 441.464 631.839 441.152 628.557 442.71C628.154 442.893 627.769 443.113 627.383 443.37ZM633.508 431.327C633.673 431.382 633.82 431.419 633.985 431.455C640.458 433.032 649.205 433.307 652.194 432.812C651.259 432.427 649.37 431.785 645.519 430.942C640.44 429.824 636.461 430.172 633.508 431.327ZM635.819 421.025C636.644 421.337 637.579 421.52 638.459 421.612C647.591 422.693 655.66 421.41 656.87 420.274C656.559 419.999 655.33 419.211 650.764 418.331C644.731 417.194 639.468 418.697 635.819 421.025Z" fill="#333840"/>
<path d="M378.726 647.604C379.936 647.22 379.533 646.046 378.176 646.046H353.347C306.073 641.042 273.047 647.751 293.86 649.327C314.673 650.904 292.393 650.574 277.191 656.33C261.989 662.085 390.242 663.533 401.923 656.33C412.669 649.694 361.965 652.957 378.726 647.604Z" fill="#333840"/>
<path d="M556.491 654.918L340.474 647.751L331.507 438.384L586.601 444.085L556.491 654.918Z" fill="#CE0930"/>
<path d="M407.92 650.904C407.443 650.904 407.039 650.537 407.003 650.061L389.692 439.777C389.655 439.264 390.022 438.824 390.536 438.787C391.049 438.751 391.489 439.117 391.526 439.631L408.836 649.914C408.873 650.427 408.506 650.867 407.993 650.904C407.975 650.904 407.956 650.904 407.92 650.904Z" fill="#333840"/>
<path d="M556.49 654.918L614.547 646.083L632.83 451.398L586.601 444.085L556.49 654.918Z" fill="#CE0930"/>
<path opacity="0.2" d="M556.49 654.918L614.547 646.083L632.83 451.398L586.601 444.085L556.49 654.918Z" fill="black"/>
<path d="M358.922 607.388L353.604 483C353.054 470.022 363.579 459.262 376.581 459.555L538.061 463.166C551.539 463.46 561.735 475.484 559.828 488.829L541.93 614.189C540.317 625.553 530.396 633.875 518.917 633.49L380.67 628.908C368.897 628.523 359.435 619.138 358.922 607.388Z" fill="#333840"/>
<path d="M376.379 497.737L401.355 498.525L401.153 504.959L385.511 504.464L385.364 509.249L399.869 509.707L399.668 515.866L385.163 515.407L384.979 521.346L401.08 521.86L400.86 528.697L375.425 527.89L376.379 497.737Z" fill="white"/>
<path d="M405.994 528.862L406.948 498.709L422.48 499.204C425.359 499.295 427.559 499.607 429.063 500.157C430.566 500.707 431.777 501.66 432.657 503.016C433.556 504.391 433.959 506.022 433.904 507.947C433.849 509.615 433.446 511.045 432.694 512.236C431.942 513.428 430.933 514.381 429.65 515.096C428.843 515.554 427.743 515.921 426.331 516.177C427.431 516.581 428.219 516.984 428.714 517.369C429.044 517.625 429.521 518.175 430.163 519C430.787 519.825 431.208 520.467 431.41 520.906L435.646 529.797L425.12 529.467L420.426 520.1C419.839 518.89 419.289 518.102 418.812 517.717C418.152 517.222 417.4 516.965 416.557 516.947L415.731 516.929L415.346 529.173L405.994 528.862ZM415.933 511.228L419.857 511.356C420.279 511.375 421.104 511.265 422.333 511.026C422.956 510.917 423.47 510.623 423.873 510.128C424.277 509.633 424.497 509.065 424.515 508.405C424.552 507.434 424.258 506.682 423.653 506.132C423.048 505.582 421.893 505.289 420.206 505.234L416.116 505.106L415.933 511.228Z" fill="white"/>
<path d="M438.782 529.907L439.735 499.753L455.267 500.248C458.146 500.34 460.347 500.652 461.85 501.202C463.354 501.751 464.564 502.705 465.445 504.061C466.343 505.436 466.747 507.067 466.692 508.992C466.637 510.66 466.233 512.09 465.481 513.281C464.729 514.473 463.721 515.426 462.437 516.141C461.63 516.599 460.53 516.965 459.118 517.222C460.218 517.625 461.007 518.029 461.502 518.414C461.832 518.67 462.309 519.22 462.951 520.045C463.574 520.87 463.996 521.511 464.198 521.951L468.434 530.841L457.908 530.511L453.213 521.145C452.627 519.935 452.076 519.147 451.6 518.762C450.94 518.267 450.188 518.01 449.344 517.992L448.519 517.974L448.134 530.218L438.782 529.907ZM448.702 512.255L452.627 512.383C453.048 512.401 453.874 512.291 455.102 512.053C455.726 511.943 456.239 511.65 456.643 511.155C457.046 510.66 457.266 510.092 457.284 509.432C457.321 508.46 457.028 507.709 456.422 507.159C455.817 506.609 454.662 506.316 452.975 506.261L448.886 506.132L448.702 512.255Z" fill="white"/>
<path d="M470.029 515.829C470.194 510.898 471.679 507.122 474.503 504.464C477.327 501.806 481.197 500.56 486.093 500.707C491.117 500.872 494.931 502.338 497.572 505.124C500.194 507.91 501.441 511.723 501.295 516.581C501.185 520.1 500.488 522.978 499.241 525.196C497.976 527.414 496.215 529.118 493.923 530.291C491.631 531.483 488.825 532.014 485.469 531.905C482.058 531.795 479.271 531.171 477.071 530.017C474.87 528.862 473.128 527.084 471.808 524.701C470.506 522.3 469.901 519.348 470.029 515.829ZM479.345 516.159C479.253 519.202 479.748 521.401 480.83 522.776C481.912 524.151 483.434 524.847 485.378 524.921C487.376 524.976 488.953 524.389 490.09 523.106C491.227 521.841 491.851 519.513 491.961 516.141C492.052 513.299 491.539 511.21 490.439 509.872C489.339 508.534 487.798 507.819 485.836 507.764C483.947 507.709 482.425 508.314 481.252 509.615C480.078 510.898 479.436 513.079 479.345 516.159Z" fill="white"/>
<path d="M505.952 532.033L506.906 501.88L522.438 502.375C525.317 502.466 527.517 502.778 529.021 503.328C530.524 503.878 531.735 504.831 532.615 506.187C533.514 507.562 533.917 509.193 533.862 511.118C533.807 512.786 533.403 514.216 532.652 515.407C531.9 516.599 530.891 517.552 529.608 518.267C528.801 518.725 527.701 519.092 526.289 519.348C527.389 519.752 528.177 520.155 528.672 520.54C529.002 520.796 529.479 521.346 530.121 522.171C530.745 522.996 531.166 523.638 531.368 524.078L535.604 532.968L525.078 532.638L520.384 523.271C519.797 522.061 519.247 521.273 518.77 520.888C518.11 520.393 517.358 520.137 516.515 520.118L515.689 520.1L515.304 532.344L505.952 532.033ZM515.873 514.399L519.797 514.528C520.219 514.546 521.044 514.436 522.273 514.198C522.896 514.088 523.41 513.794 523.813 513.299C524.216 512.805 524.436 512.236 524.455 511.576C524.491 510.605 524.198 509.853 523.593 509.303C522.988 508.754 521.832 508.46 520.145 508.405L516.056 508.277L515.873 514.399Z" fill="white"/>
<path d="M520.787 583.284C520.127 583.284 519.485 583.027 519.008 582.496L503.311 565.32L486.368 580.791C485.377 581.689 483.855 581.616 482.975 580.644L467.278 563.469L450.334 578.94C449.344 579.838 447.822 579.765 446.942 578.793L431.245 561.618L414.301 577.088C413.824 577.528 413.201 577.748 412.577 577.712C411.935 577.675 411.33 577.4 410.908 576.923L395.212 559.748L378.268 575.219C377.296 576.117 375.755 576.044 374.875 575.072C373.977 574.082 374.05 572.561 375.022 571.681L393.744 554.579C394.716 553.681 396.257 553.754 397.137 554.726L412.834 571.901L429.778 556.43C430.255 555.99 430.878 555.77 431.502 555.807C432.143 555.844 432.749 556.119 433.17 556.595L448.867 573.771L465.811 558.3C466.783 557.402 468.323 557.475 469.204 558.447L484.901 575.622L501.844 560.151C502.816 559.253 504.338 559.326 505.237 560.298L522.566 579.251C523.464 580.241 523.391 581.763 522.419 582.642C521.942 583.064 521.356 583.284 520.787 583.284Z" fill="white"/>
<path d="M230.595 659.354L219.116 653.892L208.883 604.089L214.44 597.985L230.595 659.354Z" fill="#CE0930"/>
<path d="M230.595 659.354L245.815 650.464L232.777 609.441L214.439 597.985L230.595 659.354Z" fill="#CE0930"/>
<path opacity="0.2" d="M230.595 659.354L245.815 650.464L232.777 609.441L214.439 597.985L230.595 659.354Z" fill="black"/>
<path d="M480.353 668.409C479.913 668.409 479.491 668.409 479.087 668.391C474.026 668.244 470.029 664.028 470.175 658.969C470.322 653.91 474.503 649.932 479.601 650.061C493.721 650.519 523.629 641.849 540.702 625.278C541.765 624.252 543.049 623.5 544.461 623.079C573.416 614.39 584.18 631.932 584.638 632.684L568.85 642.014C568.85 642.014 568.905 642.142 569.07 642.344C568.886 642.105 564.797 636.771 551.741 640.071C530.268 659.647 497.37 668.409 480.353 668.409Z" fill="#333840"/>
<path d="M479.326 680.599L445.933 678.491L443.311 616.956L488.183 618.624L479.326 680.599Z" fill="#CE0930"/>
<path d="M479.326 680.599L487.138 672.827L491.979 634.462L488.183 618.624L479.326 680.599Z" fill="#CE0930"/>
<path opacity="0.2" d="M479.326 680.599L487.138 672.827L491.979 634.462L488.183 618.624L479.326 680.599Z" fill="black"/>
<path d="M672.824 657.283C671.668 657.283 670.495 656.916 669.505 656.165C650.452 641.684 624.669 615.967 614.785 591.166C614.639 590.799 614.528 590.433 614.473 590.048C609.651 561.398 605.048 501.073 604.846 498.525C604.608 495.501 606.882 492.861 609.907 492.623C612.933 492.403 615.574 494.658 615.812 497.682C615.867 498.305 620.507 559.216 625.219 587.628C635.085 611.751 661.821 636.515 676.161 647.403C678.582 649.236 679.058 652.682 677.206 655.102C676.124 656.55 674.492 657.283 672.824 657.283Z" fill="#333840"/>
<path d="M698.258 660.069C694.004 660.069 689.181 658.144 683.936 654.35C681.479 652.572 680.929 649.126 682.708 646.67C684.487 644.213 687.934 643.663 690.391 645.442C694.939 648.723 697.415 649.089 698.276 649.089C701.32 649.089 703.778 651.545 703.778 654.588C703.759 657.613 701.284 660.069 698.258 660.069Z" fill="#333840"/>
<path d="M685.459 654.185C691.345 636.698 715.477 640.162 723.784 642.747C732.091 645.35 739.573 648.613 744.084 651.545C748.577 654.478 748.65 659.409 742.654 662.214C735.245 665.678 716.688 662.599 716.688 662.599C726.297 666.796 716.669 673.542 699.799 666.924C694.334 664.78 683.387 660.582 685.459 654.185Z" fill="#CE0930"/>
<path d="M626.888 506.059C624.706 520.906 612.402 531.868 602.389 530.383C592.377 528.917 591.974 515.646 594.156 500.798C596.338 485.951 600.299 475.136 610.311 476.602C620.305 478.087 629.07 491.212 626.888 506.059Z" fill="#333840"/>
<path d="M384.869 446.779C385.699 446.779 386.373 446.106 386.373 445.276C386.373 444.446 385.699 443.773 384.869 443.773C384.038 443.773 383.365 444.446 383.365 445.276C383.365 446.106 384.038 446.779 384.869 446.779Z" fill="#333840"/>
<path d="M400.144 456.109C400.144 456.934 399.466 457.612 398.64 457.612C397.815 457.612 397.137 456.934 397.137 456.109C397.137 455.284 397.815 454.606 398.64 454.606C399.466 454.606 400.144 455.266 400.144 456.109Z" fill="#333840"/>
<path d="M401.813 633.729C401.813 634.553 401.135 635.232 400.309 635.232C399.484 635.232 398.806 634.553 398.806 633.729C398.806 632.904 399.484 632.226 400.309 632.226C401.153 632.226 401.813 632.904 401.813 633.729Z" fill="#333840"/>
<path d="M415.603 644.543C415.603 645.368 414.925 646.046 414.099 646.046C413.274 646.046 412.596 645.368 412.596 644.543C412.596 643.718 413.274 643.04 414.099 643.04C414.925 643.04 415.603 643.718 415.603 644.543Z" fill="#333840"/>
<path d="M151.303 662.58C146.939 662.58 141.034 659.941 137.862 655.34C137.569 654.918 137.679 654.35 138.1 654.057C138.522 653.764 139.091 653.874 139.384 654.295C142.813 659.226 150.35 661.866 153.706 660.307C154.054 660.142 154.347 659.941 154.568 659.684C151.579 658.309 148.846 655.597 148.094 651.472C147.673 649.144 147.343 646.01 149.268 645.57C151.89 644.983 155.338 651.344 156.658 656.165C156.896 657.063 156.988 657.888 156.896 658.621C158.052 658.933 159.189 659.024 160.179 658.878C160.967 658.768 162.104 658.438 162.691 657.503C160.472 656 158.969 653.342 158.473 649.823C157.758 644.818 158.29 643.939 158.859 643.517C159.225 643.242 159.684 643.187 160.124 643.37C162.086 644.214 164.47 651.307 164.91 655.34C164.965 655.78 164.965 656.201 164.91 656.605C165.662 656.898 166.487 657.063 167.385 657.081C168.981 657.173 170.54 656.66 171.805 655.927C171.548 655.762 171.291 655.578 171.071 655.377C169.164 653.745 168.394 651.161 168.724 647.44C168.981 644.562 169.623 643.004 170.778 642.509C171.181 642.326 172.007 642.161 172.997 642.949C174.977 644.525 176.829 649.548 176.169 653.14C176.022 653.892 175.711 654.588 175.252 655.248C178.608 655.835 183.358 654.882 187.428 653.874C187.924 653.745 188.419 654.057 188.547 654.552C188.675 655.047 188.364 655.542 187.869 655.67C182.899 656.898 177.545 657.888 173.767 656.806C172.08 658.144 169.714 658.951 167.349 658.933C166.267 658.914 165.258 658.713 164.341 658.364C163.626 659.593 162.269 660.417 160.454 660.692C159.244 660.876 157.795 660.766 156.346 660.344C155.925 661.041 155.319 661.591 154.494 661.975C153.577 662.379 152.495 662.58 151.303 662.58ZM149.726 647.403C149.616 647.678 149.433 648.613 149.873 651.142C150.478 654.515 152.66 656.751 155.081 657.943C155.063 657.558 154.989 657.118 154.861 656.641C153.431 651.399 150.68 647.788 149.726 647.403ZM159.94 645.808C159.922 646.505 159.995 647.66 160.271 649.584C160.637 652.205 161.609 654.203 163.058 655.487C162.618 651.802 160.986 647.55 159.94 645.808ZM171.475 644.214C171.475 644.214 170.778 644.562 170.521 647.623C170.246 650.702 170.815 652.792 172.227 654.002C172.557 654.277 172.923 654.515 173.327 654.698C173.84 654.13 174.207 653.489 174.317 652.81C174.812 650.153 173.547 646.266 172.117 644.69C171.768 644.287 171.53 644.214 171.475 644.214Z" fill="#333840"/>
<path d="M419.692 676.438L424.661 667.823L419.692 659.207H414.374L417.381 667.823L414.374 676.438H419.692Z" fill="#333840"/>
<path d="M414.723 672.314C412.247 672.314 410.23 670.297 410.23 667.823C410.23 665.348 412.247 663.35 414.723 663.35L406.269 661.664L404.032 668.483L407.809 674.238L414.723 672.314Z" fill="#333840"/>
<path d="M415.456 659.207H405.499L400.529 667.823L405.499 676.438H415.456L420.426 667.823L415.456 659.207ZM410.487 672.314C408.011 672.314 405.994 670.297 405.994 667.823C405.994 665.348 408.011 663.35 410.487 663.35C412.962 663.35 414.961 665.348 414.961 667.823C414.961 670.297 412.962 672.314 410.487 672.314Z" fill="#CE0930"/>
<path d="M766.309 658.621L762.623 652.224L766.309 645.826H770.251L768.033 652.224L770.251 658.621H766.309Z" fill="#CE0930"/>
<path d="M769.995 655.56C771.828 655.56 773.332 654.057 773.332 652.224C773.332 650.391 771.828 648.906 769.995 648.906L776.266 647.659L777.935 652.719L775.129 656.99L769.995 655.56Z" fill="#CE0930"/>
<path d="M769.463 645.826H776.853L780.539 652.224L776.853 658.621H769.463L765.777 652.224L769.463 645.826ZM773.149 655.56C774.983 655.56 776.486 654.057 776.486 652.224C776.486 650.391 774.983 648.906 773.149 648.906C771.315 648.906 769.83 650.391 769.83 652.224C769.83 654.057 771.315 655.56 773.149 655.56Z" fill="#333840"/>
<path d="M628.887 667.126H637.176C639.34 667.126 641.1 665.366 641.1 663.203C641.1 661.041 639.34 659.281 637.176 659.281H628.887C626.723 659.281 624.963 661.041 624.963 663.203C624.963 665.348 626.723 667.126 628.887 667.126Z" fill="#333840"/>
<path d="M615.647 659.721C617.701 655.377 622.652 653.415 626.723 655.34C630.794 657.264 632.444 662.324 630.391 666.668C628.337 671.012 623.386 672.973 619.315 671.049C615.244 669.124 613.593 664.065 615.647 659.721Z" fill="#CE0930"/>
<path d="M617.972 671.002L620.244 672.073L628.143 655.328L625.871 654.257L617.972 671.002Z" fill="#333840"/>
</g>
<defs>
<clipPath id="clip0_2065_6219">
<rect width="916.879" height="683" fill="white"/>
</clipPath>
</defs>
</svg>
