<?xml version="1.0" encoding="utf-8"?>
<!-- Generator: Adobe Illustrator 25.0.0, SVG Export Plug-In . SVG Version: 6.00 Build 0)  -->
<svg version="1.1" id="Layer_1" xmlns="http://www.w3.org/2000/svg" xmlns:xlink="http://www.w3.org/1999/xlink" x="0px" y="0px"
	 viewBox="0 0 600 600" style="enable-background:new 0 0 600 600;" xml:space="preserve">
<style type="text/css">
	.st0{fill-rule:evenodd;clip-rule:evenodd;fill:#CE0930;}
	.st1{fill:#CE0930;}
	.st2{font-family:'Gotham-Medium';}
	.st3{font-size:21.9px;}
	.st4{font-size:87.6px;}
	.st5{fill:none;stroke:#CE0930;stroke-width:4.38;}
</style>
<g>
	<path id="Rectangle_1_copy_4" class="st0" d="M297.8,0h4.4v54.7h-4.4V0z M297.8,545.3h4.4V600h-4.4V545.3z M545.3,297.8H600v4.4
		h-54.7V297.8z M0,297.8h54.7v4.4H0V297.8z M448.1,39.1l3.8,2.2l-27.4,47.4l-3.8-2.2L448.1,39.1z M175.5,511.3l3.8,2.2l-27.4,47.4
		l-3.8-2.2L175.5,511.3z M513.5,420.7l47.4,27.4l-2.2,3.8l-47.4-27.4L513.5,420.7z M41.3,148.1l47.4,27.4l-2.2,3.8l-47.4-27.4
		L41.3,148.1z M558.7,148.1l2.2,3.8l-47.4,27.4l-2.2-3.8L558.7,148.1z M86.5,420.7l2.2,3.8l-47.4,27.4l-2.2-3.8L86.5,420.7z
		 M424.5,511.3l27.4,47.4l-3.8,2.2l-27.4-47.4L424.5,511.3z M151.9,39.1l27.4,47.4l-3.8,2.2l-27.4-47.4L151.9,39.1z"/>
	<text transform="matrix(1 0 0 1 201.035 161.2998)" class="st1 st2 st3">Our New Site is</text>
	<g>
		<text transform="matrix(1 0 0 1 226.3835 452.542)" class="st1 st2 st3">Stay Tuned</text>
	</g>
	<g>
		<text transform="matrix(1 0 0 1 109.6033 277.3594)" class="st1 st2 st4">Coming</text>
		<text transform="matrix(1 0 0 1 162.907 382.4785)" class="st1 st2 st4">Soon</text>
	</g>
	<path id="Color_Fill_1" class="st5" d="M164.2,376.6L300,300L183.9,100.7"/>
</g>
</svg>
