<?xml version="1.0" standalone="no"?>
<!DOCTYPE svg PUBLIC "-//W3C//DTD SVG 20010904//EN"
 "http://www.w3.org/TR/2001/REC-SVG-20010904/DTD/svg10.dtd">
<svg version="1.0" xmlns="http://www.w3.org/2000/svg"
 width="544.000000pt" height="302.000000pt" viewBox="0 0 544.000000 302.000000"
 preserveAspectRatio="xMidYMid meet">

<g transform="translate(0.000000,302.000000) scale(0.100000,-0.100000)"
fill="#ffff" stroke="none">
<path d="M1035 2606 c-243 -49 -435 -194 -540 -411 -63 -132 -79 -205 -79
-360 1 -149 21 -241 78 -359 88 -182 266 -325 476 -382 100 -28 347 -25 455 4
101 28 241 96 323 156 l62 46 0 315 0 315 -320 0 -321 0 3 -112 3 -113 193 -3
192 -2 0 -140 0 -139 -46 -27 c-122 -72 -309 -103 -435 -74 -189 44 -338 197
-378 388 -15 74 -13 217 4 282 36 137 139 273 251 332 176 94 414 67 587 -66
l49 -37 33 38 c18 21 56 66 84 100 l52 62 -64 45 c-138 99 -281 144 -472 151
-79 3 -144 0 -190 -9z"/>
<path d="M4115 2605 c-71 -13 -190 -53 -182 -61 2 -3 44 -9 92 -15 78 -8 90
-8 107 8 10 9 37 18 59 19 31 1 49 9 72 33 l32 31 -55 -1 c-30 0 -86 -7 -125
-14z"/>
<path d="M4337 2556 c-64 -57 -62 -80 10 -119 44 -23 56 -26 74 -16 27 14 77
5 104 -20 16 -15 42 -19 145 -24 69 -3 134 -8 145 -13 36 -13 -56 75 -130 124
-76 51 -223 111 -270 111 -21 0 -44 -13 -78 -43z"/>
<path d="M2050 2470 l0 -120 235 0 235 0 0 -625 0 -625 135 0 135 0 0 625 0
625 235 0 235 0 0 120 0 120 -605 0 -605 0 0 -120z"/>
<path d="M3800 2453 c-14 -3 -38 -14 -53 -25 -43 -31 -133 -144 -168 -213
l-32 -61 41 -88 c23 -48 62 -117 87 -152 62 -86 80 -86 131 1 21 36 62 95 91
130 41 50 53 72 53 99 0 36 40 96 65 96 17 0 94 156 88 180 -3 10 -12 22 -21
25 -21 9 -248 15 -282 8z"/>
<path d="M4246 2375 c-11 -8 -32 -15 -46 -15 -22 0 -32 -9 -53 -49 -37 -67
-34 -76 16 -47 23 14 74 37 112 51 39 15 72 28 73 30 4 3 -73 45 -80 45 -2 0
-12 -7 -22 -15z"/>
<path d="M4577 2303 c-15 -4 -7 -17 44 -71 114 -122 196 -270 235 -427 16 -64
27 -84 46 -85 3 0 34 23 68 52 l63 52 -6 80 c-8 103 -29 182 -74 274 -39 82
-54 93 -158 110 -78 14 -195 22 -218 15z"/>
<path d="M4303 2245 c-35 -13 -82 -36 -107 -50 -36 -21 -45 -32 -50 -64 -6
-41 -26 -64 -67 -80 -24 -9 -27 -15 -33 -88 -6 -70 6 -240 19 -275 3 -8 19
-19 35 -25 18 -7 36 -25 47 -47 21 -45 51 -55 198 -63 120 -6 242 11 341 48
49 18 54 23 54 50 0 19 10 40 27 57 25 25 26 28 15 78 -27 129 -123 302 -221
398 -48 47 -53 50 -99 47 -38 -2 -52 2 -66 18 -23 25 -17 25 -93 -4z"/>
<path d="M3506 2031 c-4 -6 -12 -52 -18 -102 -22 -174 24 -362 125 -515 l52
-79 7 120 c3 66 11 142 17 169 10 42 9 51 -5 67 -11 12 -18 37 -18 67 -1 39
-9 56 -44 102 -23 30 -57 84 -76 119 -19 36 -36 59 -40 52z"/>
<path d="M3929 1965 c-20 -28 -48 -70 -63 -93 -27 -43 -27 -45 -12 -83 9 -21
13 -45 10 -53 -3 -9 15 -26 53 -50 74 -47 84 -47 71 2 -5 20 -12 102 -16 182
l-7 145 -36 -50z"/>
<path d="M4978 1678 c-21 -16 -38 -38 -38 -48 0 -9 -11 -34 -25 -54 -17 -25
-27 -59 -34 -113 -5 -43 -8 -79 -6 -81 6 -6 56 77 86 143 25 53 63 175 56 181
-1 1 -19 -11 -39 -28z"/>
<path d="M3789 1653 c-10 -2 -20 -14 -24 -26 -10 -35 -18 -269 -11 -329 7 -53
8 -55 69 -95 80 -54 126 -76 212 -103 77 -24 242 -37 318 -26 l47 7 -73 58
c-39 32 -93 82 -118 112 -50 58 -125 170 -134 199 -3 10 -19 20 -35 23 -38 8
-69 40 -77 77 -3 17 -9 30 -13 30 -4 0 -35 18 -69 40 -34 22 -65 39 -69 39 -4
-1 -14 -3 -23 -6z"/>
<path d="M4746 1543 c-47 -25 -206 -61 -301 -68 -63 -5 -122 -2 -194 9 -57 9
-106 14 -108 12 -8 -7 34 -80 80 -142 90 -119 256 -252 300 -238 40 12 171 84
204 112 27 22 37 42 53 105 11 43 23 107 26 142 6 55 4 64 -12 73 -14 7 -27 6
-48 -5z"/>
</g>
</svg>
