<?xml version="1.0" encoding="utf-8"?>
<!-- Generator: Adobe Illustrator 25.0.0, SVG Export Plug-In . SVG Version: 6.00 Build 0)  -->
<svg version="1.1" id="Layer_1" xmlns="http://www.w3.org/2000/svg" xmlns:xlink="http://www.w3.org/1999/xlink" x="0px" y="0px"
	 viewBox="0 0 55 15" style="enable-background:new 0 0 55 15;" xml:space="preserve">
<style type="text/css">
	.st0{fill:#FFFFFF;}
</style>
<path class="st0" d="M2,11c-0.2-0.2-0.5-0.3-0.8-0.3c-0.3,0-0.6,0.1-0.8,0.2c0-0.3,0.2-0.4,0.9-0.5c0.1-0.6,0.1-1.2,0.2-1.7
	c0.1-0.5,0.3-1,0.5-1.4C2.2,7,2.4,6.8,2.6,6.7c0.6-0.2,0.5-0.6,0.4-1c0,0,0,0-0.1,0C2.2,5.6,2.2,5.6,2.2,4.8c0-0.4,0-0.8,0-1.1
	c0-0.3,0.1-0.5,0.5-0.5c0-0.6,0-1.2,0-1.8c0-0.1-0.1-0.2-0.2-0.2C2.4,1,2.3,0.9,2.3,0.7s0-0.3,0-0.4c0-0.1,0.1-0.1,0.1-0.2
	c0-0.1,0.1-0.1,0.2-0.1C2.6,0,2.7,0,2.8,0C2.8,0,2.9,0,3,0c0.1,0,0.1,0.1,0.2,0.1c0.1,0.1,0.1,0.1,0.1,0.2c0,0.1,0,0.2,0,0.2
	s0,0.2-0.1,0.2C2.9,1.4,3.2,2,3.1,2.7c0.4-0.6,1-0.6,1.6-0.6c1.2,0,2.5,0,3.7,0c0.6,0,1.1,0.1,1.4,0.7c0-0.6,0-1.1,0-1.6
	c0-0.1-0.1-0.2-0.1-0.3C9.5,0.9,9.5,0.7,9.5,0.5c0-0.2,0.1-0.3,0.2-0.4c0,0,0.1-0.1,0.2-0.1C10,0,10,0,10.1,0s0.1,0,0.2,0.1
	c0.1,0,0.1,0.1,0.1,0.1c0.1,0.1,0.2,0.3,0.2,0.4c0,0.2-0.1,0.3-0.2,0.4c-0.1,0.1-0.2,0.3-0.2,0.5c0,0.6,0,1.1,0,1.7
	c0.5,0,0.5,0.3,0.5,0.7c0,0.4,0,0.8,0,1.1c0,0.5-0.1,0.6-0.6,0.6c-0.1,0-0.2,0-0.2,0c-0.1,0.5,0,0.6,0.4,1c0.2,0.2,0.5,0.4,0.6,0.7
	c0.4,0.9,0.7,2,0.7,3c0,0.1,0,0.2,0,0.3c0.4,0.1,0.8,0,1,0.5C12.3,11,12,11,11.7,11c-0.3,0-0.5,0.1-0.8,0.2l0.3-0.4
	c-0.1-0.1-0.1-0.2-0.1-0.4c0-0.9-0.2-1.7-0.5-2.5c0-0.1-0.1-0.2-0.1-0.3c0,0,0,0-0.1,0c0.5,2.5-0.1,4.6-2.4,6h0.9L8.9,14h-5L4,13.6
	H5C2.6,12.1,2,10,2.5,7.5C2,8.1,1.7,10.2,2,11z M3.3,7L3.3,7C3.3,6.9,3.3,6.9,3.3,7c-0.1,0-0.1,0-0.1,0c-0.6,1.8-0.6,3.5,0.7,5.1
	c1.4,1.8,3.9,1.7,5.2-0.1c0.4-0.5,0.7-1.2,0.8-1.8c0.2-0.7,0.2-1.3,0.1-2C9.9,7.7,9.8,7.3,9.6,6.7C9.2,7.2,8.8,7.2,8.4,7.2
	c-1.3,0-2.6,0-4,0C4,7.1,3.7,7.1,3.3,7z M6.4,2.6c-0.7,0-1.5,0-2.2,0c-0.5,0-0.7,0.2-0.7,0.7c0,0.9,0,1.8,0,2.8
	c0,0.5,0.2,0.7,0.7,0.7h4.3c0.5,0,0.7-0.2,0.7-0.7c0-0.9,0-1.8,0-2.8c0-0.5-0.2-0.7-0.7-0.7C7.9,2.6,7.2,2.6,6.4,2.6z M9.8,3.7v1.5
	h0.4V3.7H9.8z M2.6,3.6v1.6l0.4,0V3.6H2.6z M10.1,1c0.1-0.2,0.2-0.3,0.2-0.4c0-0.1-0.1-0.1-0.2-0.2C10,0.5,9.9,0.6,9.9,0.7
	C9.9,0.7,10,0.8,10.1,1z M2.5,0.6l0.3,0.3C2.9,0.7,3,0.7,3,0.6S2.8,0.4,2.8,0.4L2.5,0.6z"/>
<path class="st0" d="M4,14.5c0-0.3,0.1-0.4,0.4-0.4c1.5,0,2.9,0,4.4,0l0.1,0.4L4,14.5z"/>
<path class="st0" d="M4.2,15c0-0.3,0.1-0.4,0.4-0.4c1.2,0,2.4,0,3.6,0c0.3,0,0.4,0.1,0.4,0.4H4.2z"/>
<path class="st0" d="M3.6,7.2c0.3,0.1,0.6,0.1,1,0.2c1.2,0,2.4,0,3.7,0c0.4,0,0.8,0,1.2-0.4c0.1,0.5,0.3,0.9,0.3,1.3
	C9.8,9,9.8,9.6,9.6,10.2c-0.1,0.6-0.4,1.2-0.8,1.7c-1.2,1.6-3.5,1.7-4.8,0.1c-1.1-1.4-1.2-3-0.6-4.7C3.5,7.2,3.5,7.2,3.6,7.2
	C3.5,7.2,3.5,7.1,3.6,7.2L3.6,7.2z"/>
<path class="st0" d="M6.4,2.8h1.9C8.8,2.8,9,3,9,3.4C9,4.2,9,5,9,5.8c0,0.4-0.2,0.6-0.6,0.6c-1.3,0-2.6,0-3.8,0
	C4,6.5,3.9,6.3,3.9,5.8c0-0.8,0-1.6,0-2.4C3.9,3,4,2.8,4.5,2.8C5.1,2.8,5.8,2.8,6.4,2.8z M7.2,5.2C7,5.4,6.7,5.6,6.5,5.6
	C6.2,5.6,6,5.4,5.7,5.2c0.1,0.3,0.2,0.6,0.4,0.9c0,0.1,0.1,0.1,0.2,0.1c0.1,0,0.1,0.1,0.2,0.1s0.1,0,0.2,0s0.1-0.1,0.2-0.1
	C6.9,6,7,5.8,7.1,5.7C7.2,5.5,7.2,5.4,7.2,5.2L7.2,5.2z M5.4,3.5c-0.1,0-0.3,0.1-0.3,0.2C5,3.8,4.9,3.9,5,4c0,0.1,0,0.3,0.1,0.4
	s0.2,0.2,0.4,0.2c0.1,0,0.3-0.1,0.4-0.2C5.9,4.3,5.9,4.2,5.9,4c0-0.1,0-0.3-0.1-0.4C5.7,3.6,5.6,3.5,5.4,3.5L5.4,3.5z M6.9,4.1
	c0,0.1,0,0.3,0.1,0.4c0.1,0.1,0.2,0.2,0.4,0.2c0.1,0,0.3-0.1,0.4-0.2C7.8,4.3,7.9,4.2,7.9,4c0-0.1,0-0.3-0.1-0.4
	C7.7,3.6,7.5,3.5,7.4,3.5C7.1,3.5,6.9,3.7,6.9,4.1L6.9,4.1z"/>
<path class="st0" d="M3.4,0.8L3.8,0l0.5,0.2L4.1,0.5h0.7L4.6,0.8L5.8,1L4.3,1.2L4.6,1H3.8l0.2-0.2H3.4z"/>
<path class="st0" d="M9.5,0.8L9,0L8.5,0.3l0.2,0.2H8l0.2,0.2L7,1l1.5,0.2L8.3,1H9L8.7,0.8H9.5z"/>
<path class="st0" d="M5.2,1.6h0.2c0,0,0,0,0,0.1c0,0,0,0,0,0c0,0,0,0,0,0c0,0,0,0,0.1,0c0,0,0,0,0,0c0,0,0,0,0,0c0,0,0,0,0,0
	c0,0,0,0,0,0c0,0-0.1,0-0.1,0c-0.1,0-0.1,0-0.2-0.1c0,0,0,0,0-0.1c0,0,0,0,0-0.1c0,0,0-0.1,0-0.1c0,0,0-0.1,0.1-0.1c0,0,0.1,0,0.2,0
	c0.1,0,0.1,0,0.2,0c0,0,0,0,0.1,0.1c0,0,0,0,0,0.1H5.5c0,0,0,0,0-0.1c0,0,0,0-0.1,0c0,0,0,0,0,0c0,0,0,0,0,0c0,0,0,0,0,0
	c0,0,0,0,0,0c0,0,0,0,0,0c0,0,0,0,0.1,0c0.1,0,0.1,0,0.2,0.1c0,0,0.1,0,0.1,0.1c0,0,0,0.1,0,0.1c0,0,0,0.1,0,0.1
	c0,0-0.1,0.1-0.1,0.1c0,0-0.1,0-0.1,0c-0.1,0-0.2,0-0.2-0.1C5.2,1.7,5.2,1.7,5.2,1.6z"/>
<path class="st0" d="M5.8,1.2h0.4c0,0,0.1,0,0.1,0c0,0,0,0,0,0c0,0,0,0,0,0.1c0,0,0,0.1,0,0.1c0,0,0,0-0.1,0c0,0,0.1,0,0.1,0.1
	c0,0,0,0.1,0,0.1c0,0,0,0.1,0,0.1c0,0,0,0-0.1,0.1c0,0,0,0-0.1,0H6.1H5.8V1.2z M6,1.5L6,1.5c0.1,0,0.1,0,0.1,0c0,0,0,0,0,0
	c0,0,0,0,0,0c0,0,0,0,0,0c0,0,0,0,0,0c0,0,0,0-0.1,0H6V1.5z M6,1.7L6,1.7c0.1,0,0.1,0,0.2,0c0,0,0,0,0,0c0,0,0,0,0,0c0,0,0,0,0,0
	s0,0,0,0c0,0,0,0-0.1,0H6V1.7z"/>
<path class="st0" d="M6.5,1.5c0,0,0-0.1,0-0.1c0,0,0-0.1,0.1-0.1c0,0,0.1,0,0.1-0.1c0,0,0.1,0,0.1,0c0,0,0.1,0,0.1,0
	c0,0,0.1,0,0.1,0.1c0,0,0,0.1,0.1,0.1c0,0,0,0.1,0,0.1c0,0.1,0,0.1,0,0.2C7,1.7,7,1.8,7,1.8c-0.1,0-0.1,0-0.2,0c-0.1,0-0.1,0-0.2,0
	c0,0-0.1-0.1-0.1-0.1C6.5,1.6,6.5,1.6,6.5,1.5z M6.6,1.5c0,0,0,0.1,0,0.1c0,0,0,0,0,0c0,0,0,0,0.1,0c0,0,0,0,0.1,0c0,0,0,0,0,0
	c0,0,0-0.1,0-0.1c0,0,0-0.1,0-0.1c0,0,0,0,0,0c0,0,0,0-0.1,0c0,0,0,0-0.1,0c0,0,0,0,0,0C6.7,1.4,6.6,1.5,6.6,1.5L6.6,1.5z"/>
<path class="st0" d="M7.1,1.2h0.6v0.1H7.5v0.4H7.3V1.4H7.1V1.2z"/>
<path class="st0" d="M15.5,9.3l2-0.2c0.1,0.7,0.4,1.2,0.7,1.5c0.4,0.3,0.9,0.5,1.5,0.5c0.7,0,1.2-0.1,1.5-0.4c0.3-0.3,0.5-0.6,0.5-1
	c0-0.2-0.1-0.4-0.2-0.6c-0.1-0.2-0.4-0.3-0.7-0.4c-0.2-0.1-0.8-0.2-1.7-0.4c-1.1-0.3-1.9-0.6-2.3-1c-0.6-0.6-0.9-1.3-0.9-2.1
	c0-0.5,0.1-1,0.4-1.5c0.3-0.5,0.7-0.8,1.3-1c0.6-0.2,1.2-0.4,2-0.4c1.3,0,2.3,0.3,2.9,0.8c0.7,0.6,1,1.3,1,2.3l-2.1,0.1
	c-0.1-0.5-0.3-0.9-0.6-1.1c-0.3-0.2-0.7-0.3-1.3-0.3c-0.6,0-1.1,0.1-1.4,0.4c-0.2,0.2-0.3,0.4-0.3,0.6c0,0.2,0.1,0.5,0.3,0.6
	c0.3,0.2,0.9,0.4,1.9,0.7c1,0.2,1.8,0.5,2.2,0.7c0.5,0.3,0.9,0.6,1.1,1c0.3,0.4,0.4,1,0.4,1.6c0,0.6-0.2,1.1-0.5,1.7
	c-0.3,0.5-0.8,0.9-1.4,1.1c-0.6,0.2-1.3,0.4-2.2,0.4c-1.3,0-2.3-0.3-3-0.9C16.1,11.3,15.6,10.4,15.5,9.3z"/>
<path class="st0" d="M25.6,2.4h4.1c0.8,0,1.4,0,1.8,0.1c0.4,0.1,0.8,0.2,1.1,0.4c0.3,0.2,0.6,0.5,0.8,0.9c0.2,0.4,0.3,0.8,0.3,1.2
	c0,0.5-0.1,0.9-0.4,1.3c-0.3,0.4-0.6,0.7-1,0.9c0.6,0.2,1.1,0.5,1.4,0.9c0.3,0.4,0.5,1,0.5,1.5c0,0.5-0.1,0.9-0.3,1.4
	c-0.2,0.4-0.5,0.8-0.9,1.1c-0.4,0.3-0.8,0.4-1.4,0.5c-0.3,0-1.2,0.1-2.5,0.1h-3.5V2.4z M27.7,4.1v2.4H29c0.8,0,1.3,0,1.5,0
	c0.4,0,0.6-0.2,0.8-0.4c0.2-0.2,0.3-0.5,0.3-0.8c0-0.3-0.1-0.6-0.3-0.8c-0.2-0.2-0.4-0.3-0.8-0.4c-0.2,0-0.8,0-1.8,0H27.7z
	 M27.7,8.2v2.7h1.9c0.7,0,1.2,0,1.4-0.1c0.3-0.1,0.6-0.2,0.7-0.4c0.2-0.2,0.3-0.5,0.3-0.9C32,9.2,32,9,31.8,8.8
	c-0.1-0.2-0.4-0.4-0.7-0.5c-0.3-0.1-0.9-0.1-1.8-0.1H27.7z"/>
<path class="st0" d="M35.5,7.6c0-1,0.2-1.9,0.5-2.6c0.2-0.5,0.6-1,1-1.4c0.4-0.4,0.8-0.7,1.3-0.9c0.6-0.3,1.4-0.4,2.2-0.4
	c1.5,0,2.7,0.5,3.6,1.4c0.9,0.9,1.4,2.2,1.4,3.9c0,1.7-0.5,3-1.4,3.9c-0.9,0.9-2.1,1.4-3.6,1.4c-1.5,0-2.7-0.5-3.6-1.4
	C36,10.5,35.5,9.2,35.5,7.6z M37.6,7.5c0,1.2,0.3,2,0.8,2.6c0.5,0.6,1.2,0.9,2,0.9c0.8,0,1.5-0.3,2-0.9c0.5-0.6,0.8-1.5,0.8-2.7
	c0-1.2-0.3-2.1-0.8-2.6C42,4.3,41.3,4,40.5,4c-0.9,0-1.5,0.3-2.1,0.9C37.9,5.4,37.6,6.3,37.6,7.5z"/>
<path class="st0" d="M49.4,12.6V4.1h-3V2.4h8.1v1.7h-3v8.5H49.4z"/>
</svg>
