<svg width="9" height="20" viewBox="0 0 9 20" fill="none" xmlns="http://www.w3.org/2000/svg">
<g clip-path="url(#clip0_1138_2304)">
<path d="M4.17988 19.9999C3.85061 19.9326 3.51219 19.8944 3.19436 19.7889C1.875 19.3535 1.23476 18.2896 1.37195 16.8846C1.48171 15.7804 1.83841 14.7412 2.12652 13.6796C2.39177 12.7078 2.66387 11.7359 2.9154 10.7619C3.0343 10.2995 3.07546 9.82595 2.98399 9.35013C2.90854 8.95736 2.67988 8.71496 2.27744 8.62968C1.71265 8.50848 1.1593 8.5601 0.612805 8.73067C0.420732 8.78903 0.228659 8.85187 0 8.92594C0.09375 8.54888 0.178354 8.20548 0.269817 7.86433C0.28125 7.81944 0.338415 7.76782 0.384146 7.74986C1.29192 7.40871 2.19055 7.03165 3.1532 6.86332C4.10213 6.69723 5.04192 6.71743 5.9314 7.14387C6.85976 7.59051 7.35137 8.55112 7.31021 9.5656C7.25533 10.9347 6.77058 12.1961 6.42759 13.4956C6.20351 14.3507 5.96113 15.2013 5.75305 16.0609C5.65015 16.4829 5.5907 16.9206 5.67988 17.356C5.78277 17.861 6.02515 18.0764 6.53963 18.1617C7.22332 18.2784 7.87043 18.1415 8.50838 17.9238C8.57012 17.9036 8.62957 17.8812 8.72332 17.8475C8.62957 18.2223 8.54726 18.5724 8.45351 18.9226C8.44207 18.963 8.38719 19.0034 8.34146 19.0191C7.62347 19.2817 6.90777 19.5577 6.17835 19.7934C5.84223 19.9034 5.48094 19.9326 5.1311 19.9976C4.81783 19.9999 4.5 19.9999 4.17988 19.9999Z" fill="#333840"/>
<path d="M6.4779 4.67048C5.38034 4.62559 4.55716 4.17671 4.10442 3.20937C3.58765 2.10736 4.125 0.825795 5.29573 0.262446C6.36128 -0.251525 7.66692 0.00658245 8.44665 0.886394C9.50991 2.08716 8.97942 3.93656 7.40854 4.49991C7.27363 4.54928 7.13186 4.58744 6.9878 4.61213C6.81174 4.64355 6.63338 4.65253 6.4779 4.67048Z" fill="#333840"/>
</g>
<defs>
<clipPath id="clip0_1138_2304">
<rect width="9" height="20" fill="white"/>
</clipPath>
</defs>
</svg>
