<svg width="125" height="132" viewBox="0 0 125 132" fill="none" xmlns="http://www.w3.org/2000/svg">
<g opacity="0.1">
<path d="M0 91.9945C0.22455 81.6676 3.42286 73.2354 10.0744 66.256C14.6625 61.4436 19.4205 56.7886 24.1725 52.1336C27.0916 49.2704 31.2306 49.2402 33.9434 51.9097C36.6987 54.6215 36.6501 58.8286 33.6946 61.831C29.2461 66.3589 24.6216 70.7233 20.2459 75.3177C7.65896 88.52 14.0131 109.894 31.7829 114.016C40.1701 115.966 47.5013 113.593 53.6431 107.648C58.0976 103.338 62.4308 98.9013 66.8247 94.5309C68.7668 92.5999 71.1154 92.0127 73.7129 92.7573C76.3529 93.5139 77.9066 95.3844 78.4345 98.0418C78.8776 100.269 78.2343 102.291 76.6624 103.871C71.4917 109.071 66.5456 114.543 60.9743 119.277C50.0624 128.556 37.433 130.863 24.0389 125.826C10.5781 120.76 2.7128 110.705 0.44303 96.4498C0.16386 94.7488 0.0971025 93.0054 0 91.9945Z" fill="black"/>
<path d="M85.574 7.13525C100.051 7.95959 111.863 14.9422 118.095 29.4652C124.304 43.9336 121.742 57.4685 111.22 69.2214C106.793 74.1675 101.904 78.7135 97.1736 83.3807C94.2298 86.2841 90.1714 86.3507 87.4275 83.6716C84.6714 80.9865 84.732 76.695 87.6334 73.7492C92.2975 69.0093 97.1979 64.4875 101.644 59.5476C113.401 46.4915 107.065 25.8526 90.0321 21.5612C82.0729 19.5549 74.8344 21.3733 68.8014 26.9194C63.9071 31.4169 59.3884 36.3145 54.6092 40.9332C50.5993 44.8064 44.4996 43.1698 43.1064 37.9389C42.4462 35.4659 43.1185 33.2535 44.8752 31.4715C49.8179 26.4769 54.694 21.4036 59.8427 16.6334C66.7298 10.2568 75.0767 7.35346 85.574 7.13525Z" fill="black"/>
<path d="M85.7142 50.4235C85.2762 51.2156 84.7199 53.0775 83.5066 54.301C71.4738 66.4712 59.3582 78.5469 47.213 90.6108C44.3602 93.442 40.3473 93.4361 37.6898 90.8058C34.985 88.1282 35.0442 84.0498 37.9503 81.1358C49.983 69.0779 62.0453 57.0436 74.1136 45.0093C76.2443 42.8814 78.7657 42.2312 81.6126 43.3543C84.0452 44.3177 85.6906 46.818 85.7142 50.4235Z" fill="black"/>
</g>
</svg>
