<svg width="22" height="15" viewBox="0 0 22 15" fill="none" xmlns="http://www.w3.org/2000/svg">
<g clip-path="url(#clip0_1132_2260)">
<path d="M22 4.24054C20.6007 5.02837 19.2001 5.81445 17.802 6.60346C15.7986 7.7338 13.7933 8.8618 11.7956 10.0004C11.262 10.3047 10.7628 10.3012 10.2286 9.9992C6.90839 8.12038 3.5825 6.24978 0.258526 4.37684C0.186113 4.33571 0.112431 4.29694 0.000635147 4.23584C0.000635147 4.32984 0.000635147 4.3974 0.000635147 4.46555C0.000635147 6.93657 0 9.40758 0.000635147 11.8786C0.00127029 13.7022 1.40632 14.997 3.39322 14.9976C8.08414 14.9994 12.7744 15.0006 17.4653 14.9959C18.0872 14.9953 18.7179 15.0176 19.329 14.9318C20.6985 14.7403 21.7459 13.7192 21.9587 12.4567C21.9651 12.4197 21.986 12.385 22 12.3492C22 9.64611 22 6.94303 22 4.24054Z" fill="#333840"/>
<path d="M10.9989 0.000634498C8.45689 0.000634498 5.91547 0.000634498 3.37342 0.000634498C2.17544 0.000634498 1.22138 0.44067 0.558867 1.37009C0.388634 1.6092 0.293991 1.89414 0.161869 2.15734C0.0856457 2.30891 0.147259 2.38646 0.295895 2.47048C3.03359 4.01148 5.76747 5.55895 8.50199 7.10466C9.27693 7.54293 10.0544 7.97768 10.8262 8.42183C10.9488 8.49233 11.0307 8.48763 11.1514 8.41948C14.6729 6.42845 18.1976 4.44153 21.7249 2.45755C21.8589 2.38235 21.89 2.3142 21.8468 2.17261C21.4473 0.863082 20.1813 0.00298449 18.6245 0.001222C16.0824 -0.001128 13.5404 0.000634498 10.9989 0.000634498Z" fill="#333840"/>
</g>
<defs>
<clipPath id="clip0_1132_2260">
<rect width="22" height="15" fill="white" transform="matrix(-1 0 0 1 22 0)"/>
</clipPath>
</defs>
</svg>
