<svg width="144" height="144" viewBox="0 0 144 144" fill="none" xmlns="http://www.w3.org/2000/svg">
<g opacity="0.1">
<path d="M111.088 123.705V98.7591L117.022 98.761V123.707C120.376 124.685 123.017 127.321 123.997 130.669H141.033C142.665 130.669 144 131.972 144 133.632C144 135.261 142.665 136.594 141.033 136.594H123.997C122.721 140.859 118.744 144 114.055 144C109.365 144 105.388 140.859 104.111 136.594H39.8875C38.6118 140.859 34.6344 144 29.9454 144C25.2564 144 21.2789 140.859 20.0032 136.592H2.96744C1.33529 136.592 0 135.26 0 133.63C0 131.971 1.33529 130.668 2.96744 130.668H20.0032C20.9823 127.32 23.6241 124.684 26.9779 123.707V98.761L32.9129 98.7578V123.704C36.2667 124.682 38.9075 127.318 39.8876 130.666H104.114C105.093 127.318 107.735 124.682 111.088 123.705Z" fill="#333840"/>
<path d="M61.0095 14.5358V98.7577H0.552246V2.99999C0.552246 1.34314 1.89539 0 3.55225 0H45.8952C54.2426 0 61.0095 6.50788 61.0095 14.5358ZM14.5039 14.1082V23.5137H47.0579V14.1082H14.5039ZM14.5039 28.2165V37.622H47.0579V28.2165H14.5039Z" fill="#333840"/>
<path d="M143.451 14.5358V98.7577H82.9939V2.99999C82.9939 1.34314 84.337 0 85.9939 0H128.337C136.684 0 143.451 6.50788 143.451 14.5358ZM96.9456 14.1082V23.5137H129.5V14.1082H96.9456ZM96.9456 28.2165V37.622H129.5V28.2165H96.9456Z" fill="#333840"/>
</g>
</svg>
