<svg width="106" height="106" viewBox="0 0 106 106" fill="none" xmlns="http://www.w3.org/2000/svg">
<g opacity="0.1" clip-path="url(#clip0_1479_3570)">
<path d="M105.993 53.1259C105.993 65.9479 106.014 78.7665 105.987 91.5885C105.973 98.4504 101.63 104.002 95.0502 105.581C93.8691 105.864 92.6165 105.976 91.398 105.976C65.7983 105.997 40.1986 106.003 14.5989 105.986C6.14391 105.98 0.0103298 99.812 0.00692605 91.3298C-0.00328524 65.7743 -0.00328524 40.2155 0.00692605 14.66C0.0103298 6.18123 6.14051 0.0170188 14.5989 0.0102113C40.1986 -0.00340376 65.7983 -0.00340376 91.398 0.0102113C99.8563 0.0136151 105.98 6.17783 105.99 14.6634C106.007 27.4854 105.993 40.3074 105.993 53.1259ZM97.7936 72.6159C97.8175 72.0781 97.8413 71.7922 97.8413 71.5063C97.8413 52.4894 97.8481 33.4692 97.8379 14.4524C97.8345 10.7014 95.2681 8.16563 91.4831 8.16222C65.8425 8.15542 40.202 8.15542 14.5614 8.16222C10.7118 8.16222 8.16575 10.7014 8.16234 14.5375C8.15554 35.0009 8.15894 55.4609 8.16234 75.9243C8.16234 76.2715 8.2134 76.6187 8.25424 77.1054C8.59803 76.8263 8.79204 76.6698 8.98605 76.5098C15.5383 70.9821 22.0974 65.4578 28.6428 59.9198C33.8437 55.5188 39.7527 55.74 44.5724 60.5427C48.6025 64.5592 52.6155 68.5892 56.6421 72.6057C58.1636 74.1237 59.2596 74.2191 61.0058 72.9563C65.1345 69.9746 69.2497 66.9759 73.3785 63.9976C77.994 60.6687 82.9737 60.8082 87.4394 64.3652C90.8159 67.0643 94.1993 69.7567 97.7936 72.6159ZM52.8606 97.8446C65.7234 97.8446 78.5862 97.8514 91.4456 97.8412C95.2953 97.8378 97.8175 95.3054 97.8379 91.4591C97.8515 88.9982 97.8787 86.5339 97.8073 84.073C97.7936 83.5692 97.5077 82.9157 97.1231 82.6025C92.1876 78.5827 87.2148 74.6105 82.2453 70.6315C80.6353 69.3449 79.5903 69.3483 77.9225 70.6349C74.0286 73.6438 70.1483 76.6732 66.2476 79.6753C61.1079 83.6339 55.3453 83.2118 50.8081 78.5725C46.8019 74.4777 42.7888 70.3864 38.7758 66.2917C37.1522 64.6375 35.9371 64.5796 34.1399 66.0841C26.301 72.6533 18.5132 79.2873 10.5858 85.751C8.77162 87.2316 7.97173 88.6816 8.09086 91.0575C8.31211 95.4177 10.5552 97.8412 14.9086 97.8412C27.5604 97.8446 40.2122 97.8446 52.8606 97.8446Z" fill="#333840"/>
<path d="M84.267 36.7265C84.2875 44.8615 77.4697 51.6758 69.3347 51.6588C61.0738 51.6418 54.3173 44.8785 54.3446 36.6618C54.3718 28.4655 61.0432 21.7941 69.2735 21.7329C77.4629 21.6682 84.2466 28.4553 84.267 36.7265ZM69.3654 29.8883C65.6689 29.8372 62.534 32.9381 62.5136 36.6686C62.4932 40.3549 65.4681 43.3944 69.185 43.4863C72.8781 43.5816 76.047 40.5114 76.1116 36.7809C76.1729 33.0742 73.1061 29.9394 69.3654 29.8883Z" fill="#333840"/>
</g>
<defs>
<clipPath id="clip0_1479_3570">
<rect width="106" height="106" fill="white"/>
</clipPath>
</defs>
</svg>
