<svg width="23" height="23" viewBox="0 0 23 23" fill="none" xmlns="http://www.w3.org/2000/svg">
<g clip-path="url(#clip0_1126_2203)">
<path d="M23.0001 14.9132C22.925 15.0195 22.9274 15.1504 22.8896 15.2687C22.5798 16.2347 21.7182 16.9264 20.7011 16.9402C18.8908 16.9648 17.08 16.9528 15.2698 16.9504C14.8447 16.9498 14.4166 16.9895 13.9951 16.894C12.7792 16.6178 11.9945 15.498 12.1302 14.2312C12.2545 13.0688 13.2914 12.1333 14.4934 12.1279C16.5282 12.1183 18.5636 12.1195 20.5984 12.1273C21.7848 12.1315 22.7425 12.9511 22.961 14.1225C22.9658 14.1483 22.9869 14.1711 23.0001 14.1951C23.0001 14.4341 23.0001 14.6737 23.0001 14.9132Z" fill="#FE9700"/>
<path d="M8.12056 22.9629C7.05002 22.8554 6.08216 21.8461 6.07075 20.7473C6.04853 18.6219 6.04733 16.4964 6.07135 14.371C6.08396 13.2344 7.07524 12.2449 8.23403 12.1332C9.43726 12.0173 10.5516 12.8165 10.8248 13.9885C10.8795 14.2245 10.8855 14.4628 10.8855 14.7024C10.8861 16.6033 10.8861 18.5042 10.8855 20.4051C10.8849 21.7921 10.1896 22.659 8.83205 22.9695C8.82064 22.9719 8.81343 22.9899 8.80383 23.0007C8.65432 23.0007 8.50422 23.0007 8.35472 23.0007C8.28267 22.9472 8.19441 23.0013 8.12056 22.9629Z" fill="#E81E63"/>
<path d="M23.0001 8.75827C22.9851 8.78169 22.9623 8.8033 22.9569 8.82852C22.6921 10.1194 21.7963 10.8759 20.4886 10.8957C19.7711 10.9065 19.053 10.8945 18.3349 10.9005C18.192 10.9017 18.1434 10.8663 18.1446 10.7138C18.153 9.9585 18.1409 9.20318 18.1506 8.44786C18.1668 7.196 19.1448 6.14708 20.3583 6.06602C21.651 5.97956 22.7479 6.84175 22.9527 8.10502C22.9593 8.14645 22.9436 8.19749 22.9989 8.2191C22.9989 8.24912 22.9989 8.27914 22.9989 8.30916C22.9617 8.41423 22.9617 8.51871 22.9989 8.62378C23.0001 8.66881 23.0001 8.71384 23.0001 8.75827Z" fill="#4CAE50"/>
<path d="M14.1943 22.9998C13.8034 22.8827 13.4113 22.7722 13.0805 22.5117C12.4885 22.0451 12.1432 21.4459 12.1252 20.6882C12.1066 19.9023 12.1192 19.1163 12.1156 18.3304C12.115 18.2307 12.1204 18.1575 12.2543 18.1599C13.0847 18.1743 13.9175 18.1202 14.746 18.1851C15.9282 18.2775 16.8793 19.2538 16.9345 20.3946C16.9958 21.6639 16.1942 22.7146 14.9826 22.9536C14.9418 22.9614 14.8901 22.9446 14.8679 22.9998C14.644 22.9998 14.4194 22.9998 14.1943 22.9998Z" fill="#FE9700"/>
<path d="M23.0001 8.6237C22.9292 8.51863 22.9262 8.41415 23.0001 8.30908C23.0001 8.41415 23.0001 8.51863 23.0001 8.6237Z" fill="#96CF98"/>
<path d="M8.12061 22.9627C8.20166 22.9561 8.28512 22.932 8.35417 22.9999C8.27911 22.9999 8.20466 22.9999 8.12961 22.9999C8.12661 22.9873 8.12361 22.9747 8.12061 22.9627Z" fill="#EF6795"/>
<path d="M5.43372 10.8802C4.36319 10.8802 3.29145 10.9132 2.22332 10.8711C1.0339 10.8243 0.0678352 9.81022 0.00359109 8.622C-0.0624543 7.39836 0.789531 6.31041 1.97895 6.10447C2.11824 6.08045 2.26114 6.06364 2.40224 6.06304C4.43103 6.06064 6.45983 6.04803 8.48862 6.06664C9.53214 6.07625 10.2785 6.59861 10.6999 7.54846C11.0902 8.42927 10.8789 9.47579 10.1992 10.1675C9.69305 10.682 9.06742 10.9 8.35413 10.8982C7.38086 10.8952 6.40759 10.8976 5.43432 10.8976C5.43372 10.8922 5.43372 10.8862 5.43372 10.8802Z" fill="#00BBD3"/>
<path d="M12.1199 5.43511C12.1199 4.41681 12.1061 3.39851 12.1235 2.38081C12.147 0.993259 13.2703 -0.0526593 14.6531 0.00257862C15.8809 0.0518124 16.9232 1.08272 16.9334 2.31176C16.9515 4.4006 16.9521 6.48943 16.9334 8.57767C16.922 9.85595 15.8419 10.8772 14.542 10.8911C13.2499 10.9049 12.153 9.86976 12.1265 8.57887C12.1055 7.53115 12.1223 6.48283 12.1223 5.43451C12.1217 5.43511 12.1205 5.43511 12.1199 5.43511Z" fill="#4CAE50"/>
<path d="M10.8855 3.42947C10.8855 3.84136 10.8843 4.25324 10.8861 4.66512C10.8867 4.76359 10.8831 4.84044 10.7486 4.83804C9.90326 4.82243 9.05548 4.87887 8.2119 4.80982C7.0483 4.71436 6.09605 3.69426 6.06242 2.53786C6.0258 1.2836 6.87118 0.224473 8.0576 0.0383447C9.55803 -0.197017 10.8309 0.853105 10.8813 2.37395C10.8927 2.72519 10.8831 3.07763 10.8831 3.42947C10.8837 3.42947 10.8843 3.42947 10.8855 3.42947Z" fill="#00BBD3"/>
<path d="M3.47043 12.1249C3.87451 12.1249 4.27858 12.1315 4.68206 12.1213C4.82496 12.1177 4.85558 12.1651 4.85438 12.299C4.84777 13.0621 4.85978 13.8247 4.84837 14.5878C4.82856 15.8775 3.80306 16.9048 2.50557 16.9492C1.22609 16.993 0.142943 16.0306 0.0318662 14.7511C-0.0900175 13.3485 0.987723 12.1489 2.39329 12.1261C2.75234 12.1201 3.11138 12.1255 3.47043 12.1255C3.47043 12.1249 3.47043 12.1249 3.47043 12.1249Z" fill="#E81E63"/>
</g>
<defs>
<clipPath id="clip0_1126_2203">
<rect width="23" height="23" fill="white"/>
</clipPath>
</defs>
</svg>
