<svg width="34" height="34" viewBox="0 0 34 34" fill="none" xmlns="http://www.w3.org/2000/svg">
<path d="M26.2291 29.2081V23.3182L27.6302 23.3186V29.2086C28.4221 29.4396 29.0456 30.062 29.277 30.8525H33.2994C33.6847 30.8525 34 31.1602 34 31.5519C34 31.9366 33.6847 32.2514 33.2994 32.2514H29.277C28.9758 33.2585 28.0368 34.0001 26.9296 34.0001C25.8224 34.0001 24.8833 33.2585 24.5818 32.2514H9.41789C9.11667 33.2585 8.17757 34.0001 7.07044 34.0001C5.96331 34.0001 5.02418 33.2585 4.72299 32.2511H0.700647C0.315276 32.2511 0 31.9363 0 31.5516C0 31.1599 0.315276 30.8522 0.700647 30.8522H4.72299C4.95416 30.0617 5.57792 29.4393 6.36979 29.2086V23.3186L7.77109 23.3179V29.2078C8.56296 29.4388 9.1865 30.0613 9.4179 30.8518H24.5826C24.8137 30.0613 25.4375 29.4388 26.2291 29.2081Z" fill="white"/>
<path d="M14.405 3.43206V23.3178H0.130371V3C0.130371 1.34314 1.47352 0 3.13037 0H10.8364C12.8073 0 14.405 1.53658 14.405 3.43206ZM3.42452 3.33111V5.55185H11.1109V3.33111H3.42452ZM3.42452 6.66223V8.88297H11.1109V6.66223H3.42452Z" fill="white"/>
<path d="M33.8703 3.43206V23.3178H19.5957V3C19.5957 1.34314 20.9388 0 22.5957 0H30.3017C32.2726 0 33.8703 1.53658 33.8703 3.43206ZM22.8899 3.33111V5.55185H30.5762V3.33111H22.8899ZM22.8899 6.66223V8.88297H30.5762V6.66223H22.8899Z" fill="white"/>
</svg>
